<svg width="36" height="36" viewBox="0 0 36 36" fill="none" xmlns="http://www.w3.org/2000/svg">
<path d="M36 0H0V36H36V0Z" fill="#F2C94C"/>
<path d="M3 18C3 9.71429 9.71429 3 18 3C26.2857 3 33 9.71429 33 18C33 26.2857 26.2857 33 18 33C9.71429 33 3 26.2857 3 18Z" fill="#3E5363" fill-opacity="0.05"/>
<path d="M15.3213 21.2144H20.6785V8.35722H15.3213L15.3213 21.2144Z" fill="white"/>
<path d="M17.9999 22.2859C16.5206 22.2859 15.3213 23.4852 15.3213 24.9645C15.3213 26.4438 16.5206 27.6431 17.9999 27.6431C19.4792 27.6431 20.6785 26.4438 20.6785 24.9645C20.6785 23.4852 19.4792 22.2859 17.9999 22.2859Z" fill="white"/>
</svg>
