<svg width="36" height="36" viewBox="0 0 36 36" fill="none" xmlns="http://www.w3.org/2000/svg">
<path d="M36 0H0V36H36V0Z" fill="#97BB2F"/>
<path opacity="0.25" d="M16.7143 36H0V19.9286L11.5714 8.35714L17.3571 9.64286V10.9286L18.6429 9.64286L24.4286 8.35714V12.8571L23.7857 13.5H27L27 18.6429H26.3571V26.3571L16.7143 36Z" fill="#3E5363"/>
<path d="M9 18.6429H9.64286V26.3571H17.3572V13.5H9V18.6429Z" fill="white"/>
<path d="M18.6431 13.5V26.3571H26.3574V18.6429H27.0003V13.5H18.6431Z" fill="white"/>
<path fill-rule="evenodd" clip-rule="evenodd" d="M17.3572 9.64265L11.5715 8.35693V12.8569H17.3572V9.64265ZM16.0714 10.9283L12.8571 10.2855V11.5712H16.0714V10.9283Z" fill="white"/>
<path fill-rule="evenodd" clip-rule="evenodd" d="M18.6428 9.64265L24.4285 8.35693V12.8569H18.6428V9.64265ZM19.9286 10.9283L23.1429 10.2855V11.5712H19.9286V10.9283Z" fill="white"/>
</svg>
