<svg width="36" height="36" viewBox="0 0 36 36" fill="none" xmlns="http://www.w3.org/2000/svg">
<rect x="-1" y="-1" width="34" height="33.9999" transform="matrix(1.28494e-07 -1 -1 -1.48699e-08 33.9999 34)" stroke="white" stroke-width="2"/>
<line y1="-1" x2="31.1127" y2="-1" transform="matrix(-0.707107 0.707107 0.707107 0.707107 35.9999 13.6279)" stroke="white" stroke-width="2"/>
<line y1="-1" x2="45.2548" y2="-1" transform="matrix(-0.707107 0.707107 0.707107 0.707107 35.9999 3.62793)" stroke="white" stroke-width="2"/>
<line y1="-1" x2="8.48528" y2="-1" transform="matrix(-0.707107 0.707107 0.707107 0.707107 7.99994 1.62793)" stroke="white" stroke-width="2"/>
<line y1="-1" x2="16.9706" y2="-1" transform="matrix(-0.707107 0.707107 0.707107 0.707107 35.9999 23.6279)" stroke="white" stroke-width="2"/>
<line y1="-1" x2="22.6274" y2="-1" transform="matrix(-0.707107 0.707107 0.707107 0.707107 17.9999 1.62793)" stroke="white" stroke-width="2"/>
<line y1="-1" x2="2.82843" y2="-1" transform="matrix(-0.707107 0.707107 0.707107 0.707107 35.9999 33.6279)" stroke="white" stroke-width="2"/>
<line y1="-1" x2="36.7696" y2="-1" transform="matrix(-0.707107 0.707107 0.707107 0.707107 27.9999 1.62793)" stroke="white" stroke-width="2"/>
</svg>
