<svg width="36" height="36" viewBox="0 0 36 36" fill="none" xmlns="http://www.w3.org/2000/svg">
<path d="M36 36H0V0H36V36Z" fill="#2FBB96"/>
<path opacity="0.25" d="M27.6429 15.4286H25.0714L26.3572 14.1429C26.3572 14.1429 26.3643 11.5714 26.3572 11.5714H8.35715L0 19.9286V36H14.7857C14.7857 36 26.3572 24.4357 26.3572 24.4286V21.8571L27.6429 20.5714V15.4286Z" fill="#3E5363"/>
<path d="M17.9999 21.857H26.3571V24.4285C26.3571 24.4356 8.35706 24.4285 8.35706 24.4285V11.5713H26.3571C26.3642 11.5713 26.3571 14.1428 26.3571 14.1428H17.9999V21.857Z" fill="white"/>
<path d="M19.2855 20.5713V15.4284H27.6427V20.5713H19.2855ZM23.1427 16.7141C22.4355 16.7141 21.857 17.2927 21.857 17.9999C21.857 18.707 22.4355 19.2856 23.1427 19.2856C23.8498 19.2856 24.4284 18.707 24.4284 17.9999C24.4284 17.2856 23.8498 16.7141 23.1427 16.7141Z" fill="white"/>
<path d="M1 1V35H35V1H1Z" stroke="white" stroke-width="2"/>
</svg>
