<svg width="295" height="245" viewBox="0 0 295 245" fill="none" xmlns="http://www.w3.org/2000/svg">
<path d="M59.4706 167.13C61.2353 167.13 63 166.393 64.0294 165.803L63.7353 163.003C62.7059 163.592 61.8236 164.034 60.5 164.034C58.8824 164.034 58 163.298 58 160.497V129.252H54.6177V161.382C54.6177 165.508 56.2353 167.13 59.4706 167.13Z" fill="white"/>
<path d="M75.7942 167.13C79.1765 167.13 82.1177 165.509 83.8824 163.298C84.3236 165.951 85.5001 167.13 88.0001 167.13C89.4707 167.13 91.0883 166.541 91.9707 165.804L91.6765 163.004C90.7942 163.741 89.9118 164.183 89.1765 164.183C87.7059 164.183 87.1177 162.856 87.1177 160.793V138.98H83.7354V141.928C81.9707 139.717 78.8824 138.391 76.0883 138.391C68.8824 138.391 64.6177 143.844 64.6177 152.687C64.4707 161.825 69.0295 167.13 75.7942 167.13ZM76.6765 141.633C79.6177 141.633 82.1177 143.549 83.5883 145.318V160.203C82.2648 161.972 79.7648 164.035 76.6765 164.035C71.2354 164.035 67.853 159.909 67.853 152.982C67.853 145.907 71.3824 141.633 76.6765 141.633Z" fill="white"/>
<path d="M94.4707 129.252V166.54H97.8531V163.592C99.6178 165.656 102.265 167.13 105.794 167.13C112.559 167.13 116.971 161.824 116.971 152.833C116.971 143.843 112.559 138.684 105.794 138.684C102.412 138.684 99.6178 140.158 97.8531 142.222V129.399H94.4707V129.252ZM104.765 141.632C110.206 141.632 113.588 145.906 113.588 152.833C113.588 159.76 110.206 163.887 104.765 163.887C101.824 163.887 99.1766 162.118 97.8531 160.35V145.317C99.1766 143.401 101.824 141.632 104.765 141.632Z" fill="white"/>
<path d="M77.5588 203.092C76.0882 203.092 75.5 201.766 75.5 199.702V178.037H72.1176V180.984C70.3529 178.774 67.2647 177.447 64.4706 177.447C57.2647 177.447 53 182.9 53 191.743C53 200.586 57.4118 205.892 64.3235 205.892C67.7059 205.892 70.6471 204.271 72.4118 202.06C72.8529 204.713 74.0294 205.892 76.5294 205.892C78 205.892 79.6176 205.303 80.5 204.566L80.2059 201.766C79.3235 202.65 78.4412 203.092 77.5588 203.092ZM72.1176 199.26C70.7941 201.029 68.2941 203.092 65.2059 203.092C59.7647 203.092 56.3824 198.965 56.3824 192.038C56.3824 185.111 59.7647 180.837 65.2059 180.837C68.1471 180.837 70.6471 182.753 72.1176 184.522V199.26Z" fill="white"/>
<path d="M105.794 203.091C104.324 203.091 103.735 202.354 103.735 200.291V188.353C103.735 181.573 100.794 177.594 94.9118 177.594C90.9412 177.594 88 179.362 86.3824 182.457V178.036H83V205.597H86.3824V187.321C87.2647 183.784 89.9118 180.836 93.7353 180.836C98.1471 180.836 100.353 183.784 100.353 188.942V201.028C100.353 204.565 101.824 206.039 104.765 206.039C106.382 206.039 107.853 205.449 108.735 204.712L108.441 201.912C107.412 202.649 106.676 203.091 105.794 203.091Z" fill="white"/>
<path d="M133.882 203.092C132.411 203.092 131.823 201.766 131.823 199.702V178.037H128.441V180.984C126.676 178.774 123.588 177.447 120.794 177.447C113.588 177.447 109.323 182.9 109.323 191.743C109.323 200.586 113.735 205.892 120.647 205.892C124.029 205.892 126.97 204.271 128.735 202.06C129.176 204.713 130.353 205.892 132.853 205.892C134.323 205.892 135.941 205.303 136.823 204.566L136.529 201.766C135.5 202.65 134.764 203.092 133.882 203.092ZM128.294 199.26C126.97 201.029 124.47 203.092 121.382 203.092C115.941 203.092 112.559 198.965 112.559 192.038C112.559 185.111 115.941 180.837 121.382 180.837C124.323 180.837 126.823 182.753 128.294 184.522V199.26Z" fill="white"/>
<path d="M148.147 202.059C147.265 202.649 146.383 203.091 145.059 203.091C143.441 203.091 142.559 202.354 142.559 199.554V168.161H139.177V200.291C139.177 204.565 140.941 206.039 144.03 206.039C145.794 206.039 147.559 205.302 148.589 204.712L148.147 202.059Z" fill="white"/>
<path d="M181.529 203.092C178.735 203.092 177.265 201.618 177.265 198.081V180.984H186.823V178.184H177.265V171.257H174.47L174.176 178.184H171.088H169.47H167.559L159.47 201.913L150.5 178.184H146.676L157.853 205.45L157.118 207.661C155.941 211.198 154.618 213.114 151.676 213.114C149.618 213.114 148.294 212.524 147.118 211.787L146.529 214.44C147.706 215.177 149.47 216.061 151.823 216.061C156.382 216.061 158.441 213.114 160.206 208.397L170.059 180.984H174.029V198.523C174.029 203.976 176.823 206.187 180.941 206.187C183.882 206.187 186.235 205.155 188.147 203.829L187.118 201.028C185.647 202.06 183.294 203.092 181.529 203.092Z" fill="white"/>
<path d="M194.912 170.372L211.383 160.94C211.824 161.382 212.265 161.677 213 161.677C214.177 161.677 215.059 160.792 215.059 159.613C215.059 158.876 214.765 158.287 214.177 157.845L228 112.451C228.147 112.451 228.147 112.451 228.294 112.451C229.471 112.451 230.353 111.566 230.353 110.387C230.353 109.208 229.471 108.324 228.294 108.324H228.147L193.589 31.6846C194.177 31.2424 194.471 30.6529 194.471 30.0634C194.471 28.8843 193.589 28 192.412 28C191.236 28 190.353 28.8843 190.353 30.0634C190.353 30.9477 190.794 31.5372 191.53 31.9794L174.912 138.538C174.324 138.538 173.736 138.98 173.441 139.422L93.2944 112.303V112.156C93.2944 110.977 92.4121 110.093 91.2356 110.093C90.0591 110.093 89.1768 110.977 89.1768 112.156C89.1768 113.335 90.0591 114.219 91.2356 114.219C91.8238 114.219 92.265 113.925 92.7062 113.63L190.206 170.225C190.206 171.994 191.236 172.583 192.559 172.583C193.883 172.583 194.765 171.994 194.912 170.372ZM212.853 157.55C211.677 157.55 210.794 158.434 210.794 159.613C210.794 159.761 210.794 159.908 210.794 160.056L194.765 169.341C194.765 169.193 194.618 168.899 194.618 168.751L226.383 113.777L213.147 157.55C213 157.55 212.853 157.55 212.853 157.55ZM175.941 138.685L191.824 36.1061L192.265 167.867C191.971 167.867 191.824 168.014 191.53 168.014L182.706 152.539L176.53 142.075C176.971 141.633 177.118 141.19 177.118 140.601C177.118 139.717 176.677 138.98 175.941 138.685ZM190.647 168.604C190.5 168.751 190.353 169.046 190.353 169.193L99.1768 116.283L181.824 153.276L190.647 168.604ZM225.941 110.387C225.941 110.829 226.089 111.419 226.383 111.714L193.883 168.162C193.736 168.014 193.441 168.014 193.147 168.014L192.706 32.2741L226.824 108.766C226.236 109.061 225.941 109.798 225.941 110.387ZM175.059 142.664C175.206 142.664 175.5 142.664 175.647 142.517L180.941 151.802L100.5 115.841L173 140.306C173 140.454 173 140.454 173 140.601C173.147 141.633 174.03 142.664 175.059 142.664Z" fill="white"/>
<path d="M196.235 203.091C194.911 203.091 194.323 202.354 194.323 200.291V178.036H190.941V201.028C190.941 204.565 192.411 206.039 195.206 206.039C196.823 206.039 198.294 205.449 199.176 204.712L198.882 201.912C198 202.649 197.264 203.091 196.235 203.091Z" fill="white"/>
<path d="M212.706 180.395C217.265 180.395 219.618 183.048 219.912 187.764L222.706 186.88C222.118 181.132 218.883 177.3 212.412 177.3C204.912 177.3 200.206 183.343 200.206 191.891C200.206 200.292 203.883 206.334 212.706 206.334C216.53 206.334 219.912 204.861 222.412 202.502L220.941 199.702C218.735 201.618 215.941 203.239 213 203.239C206.235 203.239 203.588 198.523 203.588 191.891C203.735 185.111 207.118 180.395 212.706 180.395Z" fill="white"/>
<path d="M237.118 191.153L232.412 189.827C229.471 188.942 228.147 188.058 228.147 185.847C228.147 182.752 230.353 180.689 234.471 180.689C237.118 180.689 239.912 181.573 241.824 182.605L242.706 179.657C240.941 178.773 237.265 177.741 234.324 177.741C228.294 177.741 224.618 181.278 224.618 185.847C224.618 189.532 226.676 191.448 230.5 192.48L235.206 193.806C237.706 194.543 239.471 195.427 239.471 198.08C239.471 200.88 237.412 203.239 233.588 203.239C230.206 203.239 227.559 201.912 225.794 200.88L225.059 203.975C226.824 205.007 230.059 206.186 233.735 206.186C239.618 206.186 242.853 202.502 242.853 197.933C243 194.101 240.794 192.185 237.118 191.153Z" fill="white"/>
</svg>
