<svg width="295" height="245" viewBox="0 0 295 245" fill="none" xmlns="http://www.w3.org/2000/svg">
<path d="M147.702 114.016H147.106V114.462H147.702V114.016Z" fill="white"/>
<path d="M147.107 86.1668C149.409 86.1668 151.276 84.2999 151.276 81.997C151.276 79.6941 149.409 77.8271 147.107 77.8271C144.804 77.8271 142.938 79.6941 142.938 81.997C142.938 84.2999 144.804 86.1668 147.107 86.1668Z" fill="white"/>
<path d="M109.881 96.1451C119.857 100.315 129.387 103.442 133.705 102.102C135.194 101.655 136.088 101.208 137.279 100.166C138.321 99.1235 138.768 98.0811 139.215 96.5919C139.661 95.1026 139.661 92.8688 139.066 90.3371C140.555 92.422 141.895 93.9112 143.384 94.6559C144.724 95.4005 145.766 95.6983 147.255 95.6983C148.744 95.6983 149.787 95.4005 151.127 94.6559C152.616 93.9112 154.254 92.1242 155.743 89.7414C155.147 92.5709 154.998 94.9537 155.594 96.5919C156.041 98.0811 156.487 98.9746 157.53 100.166C158.572 101.208 159.614 101.655 161.103 102.102C165.57 103.442 174.951 100.315 184.928 96.1451C185.077 96.1451 185.97 95.2516 185.672 94.6559C185.077 93.7623 184.034 93.9112 183.588 94.0602C178.674 96.4429 168.846 98.8257 164.975 97.4854C163.933 97.0386 162.89 96.5919 161.997 95.6983C161.103 94.8048 160.657 93.9112 160.21 92.7199C158.87 89.2946 160.806 81.1039 162.741 75.8916C162.89 75.4448 163.039 74.998 163.337 74.5513C163.337 74.4023 163.486 74.2534 163.486 74.1045C163.486 73.9556 163.486 73.9556 163.635 73.8067C163.635 73.8067 163.635 73.6577 163.784 73.6577C163.784 73.5088 163.933 72.3174 163.188 72.1685C163.039 72.1685 162.89 72.1685 162.89 72.1685C162.295 72.0196 161.55 72.7642 161.55 72.9131C161.55 73.062 161.401 73.062 161.401 73.211C161.401 73.3599 161.252 73.5088 161.252 73.6577C161.103 74.1045 160.806 74.5513 160.657 74.998C158.423 80.2103 153.956 87.2097 150.531 88.6989C149.489 89.1457 148.298 89.4436 147.255 89.4436C146.064 89.4436 145.022 89.1457 143.98 88.6989C141.299 87.3586 137.875 82.5931 135.343 77.9765C134.748 76.3383 134.003 74.5513 133.259 72.7642C133.259 72.6153 132.514 71.8707 131.918 72.0196C131.77 72.0196 131.472 72.0196 131.174 72.0196C130.429 72.1685 130.578 73.3599 130.578 73.5088C131.323 75.4448 132.067 77.2319 132.961 79.019C134.45 83.9334 135.492 89.8903 134.45 92.7199C134.003 93.7623 133.556 94.8048 132.663 95.6983C131.77 96.5919 130.876 97.0386 129.685 97.4854C125.813 98.9746 115.986 96.4429 111.072 94.0602C110.625 93.9112 109.583 93.7623 108.987 94.6559C108.838 95.4005 109.732 96.1451 109.881 96.1451Z" fill="white"/>
<path d="M164.379 93.3154C166.017 94.9536 168.698 94.9536 170.335 93.3154C171.973 91.6773 171.973 88.9966 170.335 87.3585C168.698 85.7203 166.017 85.7203 164.379 87.3585C162.741 88.9966 162.741 91.6773 164.379 93.3154Z" fill="white"/>
<path d="M130.578 93.3154C132.216 91.6773 132.216 88.9966 130.578 87.3585C128.94 85.7203 126.26 85.7203 124.622 87.3585C122.984 88.9966 122.984 91.6773 124.622 93.3154C126.26 94.9536 128.94 94.9536 130.578 93.3154Z" fill="white"/>
<path d="M126.409 110.442C145.618 105.974 146.064 114.165 146.064 114.165H146.66V112.08C146.362 99.7193 127.303 107.612 110.328 106.421C107.35 106.123 101.096 104.932 101.096 104.932V112.229C101.245 112.08 109.583 114.314 126.409 110.442Z" fill="white"/>
<path d="M126.409 118.334C145.618 113.867 146.064 122.057 146.064 122.057H146.66V119.973C146.362 107.612 127.303 115.505 110.328 114.313C107.35 114.016 101.096 112.824 101.096 112.824V120.121C101.245 119.973 109.583 122.206 126.409 118.334Z" fill="white"/>
<path d="M126.409 126.079C145.618 121.611 146.064 129.802 146.064 129.802H146.66V127.717C146.362 115.356 127.303 123.249 110.328 122.058C107.35 121.76 101.096 120.568 101.096 120.568V127.866C101.245 127.866 109.583 130.099 126.409 126.079Z" fill="white"/>
<path d="M148.149 111.931V114.015H148.745C148.745 114.015 149.191 105.825 168.4 110.292C185.226 114.164 193.564 112.079 193.564 112.079V104.782C193.564 104.782 187.31 105.974 184.332 106.271C167.655 107.463 148.447 99.5699 148.149 111.931Z" fill="white"/>
<path d="M148.149 119.824V121.909H148.745C148.745 121.909 149.191 113.718 168.4 118.186C185.226 122.058 193.564 119.973 193.564 119.973V112.676C193.564 112.676 187.31 113.867 184.332 114.165C167.655 115.356 148.447 107.463 148.149 119.824Z" fill="white"/>
<path d="M148.149 127.717V129.802H148.745C148.745 129.802 149.191 121.611 168.4 126.079C185.226 129.95 193.564 127.866 193.564 127.866V120.568C193.564 120.568 187.31 121.76 184.332 122.058C167.655 123.249 148.447 115.207 148.149 127.717Z" fill="white"/>
<path d="M62.5298 167.628C62.3809 168.074 62.0831 168.819 61.6364 169.713C61.4875 169.266 61.1897 168.521 60.8918 167.628L55.6803 155.714H53V172.691H54.9357V161.373C54.9357 159.884 54.9357 158.692 54.7868 158.097C54.9357 158.841 55.0846 159.437 55.2335 159.884L61.0408 172.84H62.0831L67.8903 159.735C68.0392 159.437 68.1881 158.841 68.337 158.097C68.1881 159.437 68.1881 160.479 68.1881 161.373V172.84H70.1238V155.714H67.8903L62.5298 167.628Z" fill="white"/>
<path d="M75.6331 154.97C75.3353 154.97 75.0375 155.119 74.7397 155.268C74.4419 155.565 74.4419 155.863 74.4419 156.161C74.4419 156.459 74.5908 156.757 74.7397 157.055C75.0375 157.352 75.3353 157.352 75.6331 157.352C75.9309 157.352 76.2287 157.204 76.5265 157.055C76.8243 156.757 76.9732 156.459 76.9732 156.161C76.9732 155.863 76.8243 155.565 76.5265 155.268C76.2287 155.119 75.9309 154.97 75.6331 154.97Z" fill="white"/>
<path d="M76.5266 160.629H74.5908V172.841H76.5266V160.629Z" fill="white"/>
<path d="M86.503 160.331C84.7162 160.331 83.376 161.076 82.4826 162.565V160.48H80.5469V172.692H82.4826V165.841C82.4826 164.65 82.7804 163.756 83.376 163.012C83.9716 162.267 84.8651 161.969 85.7585 161.969C87.6942 161.969 88.5876 163.31 88.5876 165.841V172.841H90.5234V165.394C90.5234 163.756 90.2256 162.565 89.481 161.671C88.8854 160.778 87.8431 160.331 86.503 160.331Z" fill="white"/>
<path d="M96.3308 160.629H94.395V172.841H96.3308V160.629Z" fill="white"/>
<path d="M95.2884 154.97C94.9906 154.97 94.6928 155.119 94.395 155.268C94.0972 155.565 94.0972 155.863 94.0972 156.161C94.0972 156.459 94.2461 156.757 94.395 157.055C94.6928 157.352 94.9906 157.352 95.2884 157.352C95.5862 157.352 95.884 157.204 96.1818 157.055C96.4796 156.757 96.6285 156.459 96.6285 156.161C96.6285 155.863 96.4796 155.565 96.1818 155.268C96.0329 155.119 95.7351 154.97 95.2884 154.97Z" fill="white"/>
<path d="M106.605 167.33C106.308 167.033 106.01 166.884 105.563 166.586C105.116 166.437 104.67 166.139 104.074 165.99C103.627 165.841 103.329 165.692 103.032 165.543C102.734 165.394 102.436 165.246 102.287 165.097C102.138 164.948 101.84 164.799 101.84 164.501C101.692 164.352 101.692 164.054 101.692 163.756C101.692 163.458 101.692 163.31 101.84 163.012C101.989 162.863 102.138 162.565 102.287 162.416C102.436 162.267 102.734 162.118 103.032 162.118C103.329 161.969 103.627 161.969 104.074 161.969C105.265 161.969 106.308 162.267 107.201 162.863V160.927C106.308 160.629 105.414 160.331 104.372 160.331C103.776 160.331 103.181 160.48 102.585 160.629C101.989 160.778 101.543 161.076 101.096 161.374C100.649 161.671 100.351 161.969 100.054 162.416C99.7558 162.863 99.6069 163.31 99.6069 163.905C99.6069 164.352 99.6069 164.799 99.7558 165.097C99.9047 165.394 100.054 165.692 100.351 165.99C100.649 166.288 100.947 166.437 101.394 166.735C101.84 166.884 102.287 167.182 102.883 167.33C103.329 167.479 103.627 167.628 103.925 167.777C104.223 167.926 104.521 168.075 104.819 168.224C105.116 168.373 105.265 168.671 105.414 168.82C105.563 169.118 105.563 169.266 105.563 169.713C105.563 170.905 104.67 171.351 103.032 171.351C101.692 171.351 100.649 170.905 99.458 170.16V172.245C100.351 172.692 101.394 172.99 102.734 172.99C103.329 172.99 103.925 172.99 104.521 172.841C105.116 172.692 105.563 172.543 106.01 172.245C106.456 171.947 106.754 171.649 107.052 171.202C107.35 170.756 107.499 170.309 107.499 169.564C107.499 169.118 107.35 168.671 107.201 168.224C107.201 167.926 106.903 167.628 106.605 167.33Z" fill="white"/>
<path d="M113.157 157.055L111.221 157.65V160.629H109.136V162.267H111.221V169.415C111.221 171.798 112.263 172.989 114.348 172.989C115.092 172.989 115.688 172.841 116.135 172.543V170.905C115.837 171.202 115.39 171.351 114.795 171.351C114.199 171.351 113.752 171.202 113.454 170.756C113.157 170.458 113.008 169.862 113.008 168.969V162.118H116.135V160.48H113.008V157.055H113.157Z" fill="white"/>
<path d="M123.133 158.246L126.26 154.374H124.175L121.495 158.246H123.133Z" fill="white"/>
<path d="M123.431 160.331C121.793 160.331 120.453 160.927 119.411 162.118C118.369 163.31 117.773 164.799 117.773 166.735C117.773 168.671 118.22 170.309 119.262 171.351C120.304 172.394 121.644 172.99 123.282 172.99C125.069 172.99 126.409 172.543 127.601 171.798V170.011C126.409 170.905 125.218 171.351 123.878 171.351C122.687 171.351 121.644 171.054 121.049 170.309C120.304 169.564 120.006 168.522 120.006 167.182H128.643V166.139C128.643 164.352 128.196 162.863 127.303 161.82C126.26 160.778 125.069 160.331 123.431 160.331ZM119.858 165.543C120.006 164.501 120.453 163.607 121.049 163.012C121.644 162.416 122.538 161.969 123.431 161.969C124.325 161.969 125.069 162.267 125.665 162.863C126.26 163.458 126.409 164.352 126.409 165.543H119.858Z" fill="white"/>
<path d="M134.748 161.075C134.152 161.522 133.705 162.267 133.407 163.011V160.479H131.472V172.691H133.407V166.436C133.407 165.096 133.705 164.054 134.301 163.16C134.896 162.415 135.492 161.969 136.385 161.969C136.981 161.969 137.577 162.118 137.874 162.415V160.331C137.577 160.182 137.279 160.182 136.683 160.182C135.939 160.331 135.343 160.628 134.748 161.075Z" fill="white"/>
<path d="M141.001 154.97C140.703 154.97 140.406 155.119 140.108 155.268C139.81 155.565 139.81 155.863 139.81 156.161C139.81 156.459 139.959 156.757 140.108 157.055C140.257 157.352 140.703 157.352 141.001 157.352C141.299 157.352 141.597 157.204 141.895 157.055C142.193 156.757 142.341 156.459 142.341 156.161C142.341 155.863 142.193 155.565 141.895 155.268C141.597 155.119 141.299 154.97 141.001 154.97Z" fill="white"/>
<path d="M141.895 160.629H139.959V172.841H141.895V160.629Z" fill="white"/>
<path d="M151.276 160.331C149.34 160.331 147.851 160.927 146.809 162.118C145.618 163.31 145.171 164.799 145.171 166.884C145.171 168.82 145.767 170.309 146.809 171.351C147.851 172.543 149.34 172.99 151.127 172.99C152.914 172.99 154.403 172.394 155.594 171.202C156.636 170.011 157.232 168.522 157.232 166.586C157.232 164.65 156.785 163.012 155.743 161.969C154.552 160.927 153.063 160.331 151.276 160.331ZM153.956 170.16C153.212 170.905 152.318 171.351 150.978 171.351C149.787 171.351 148.745 170.905 148 170.16C147.256 169.266 146.958 168.224 146.958 166.735C146.958 165.246 147.256 164.054 148 163.161C148.745 162.267 149.787 161.82 150.978 161.82C152.169 161.82 153.212 162.267 153.956 163.012C154.701 163.905 154.998 164.948 154.998 166.586C154.998 168.224 154.701 169.415 153.956 170.16Z" fill="white"/>
<path d="M175.994 157.054C174.951 156.161 173.611 155.714 171.824 155.714H167.208V172.691H169.144V166.287H171.378C173.314 166.287 174.803 165.841 175.845 164.798C176.887 163.756 177.483 162.415 177.483 160.777C177.483 159.139 177.036 157.948 175.994 157.054ZM174.356 163.607C173.611 164.202 172.569 164.5 171.229 164.5H169.144V157.501H171.527C174.207 157.501 175.547 158.692 175.547 160.926C175.398 162.118 175.1 163.011 174.356 163.607Z" fill="white"/>
<path d="M188.353 167.628C188.353 168.819 188.055 169.713 187.459 170.308C186.864 171.053 186.119 171.351 185.077 171.351C183.141 171.351 182.099 170.011 182.099 167.479V160.479H180.163V167.777C180.163 171.202 181.652 172.989 184.481 172.989C186.119 172.989 187.459 172.244 188.204 170.755V172.691H190.14V160.479H188.204V167.628H188.353Z" fill="white"/>
<path d="M185.375 158.246L188.502 154.374H186.566L183.886 158.246H185.375Z" fill="white"/>
<path d="M200.563 160.331C198.776 160.331 197.287 161.076 196.393 162.714V154.672H194.458V172.692H196.393V170.904C197.287 172.245 198.478 172.989 200.116 172.989C201.903 172.989 203.243 172.394 204.136 171.202C205.179 170.011 205.625 168.373 205.625 166.288C205.625 164.501 205.179 163.012 204.285 161.969C203.392 160.927 202.052 160.331 200.563 160.331ZM202.498 170.011C201.903 170.904 200.86 171.351 199.669 171.351C198.627 171.351 197.882 171.053 197.138 170.309C196.542 169.564 196.095 168.82 196.095 167.777V166.139C196.095 164.948 196.393 163.905 197.138 163.16C197.882 162.416 198.776 161.969 199.818 161.969C200.86 161.969 201.754 162.416 202.349 163.16C202.945 163.905 203.243 164.948 203.243 166.288C203.541 167.926 203.243 169.117 202.498 170.011Z" fill="white"/>
<path d="M210.539 154.82H208.604V172.84H210.539V154.82Z" fill="white"/>
<path d="M215.602 154.97C215.304 154.97 215.006 155.119 214.708 155.268C214.411 155.565 214.411 155.863 214.411 156.161C214.411 156.459 214.56 156.757 214.708 157.055C214.857 157.352 215.304 157.352 215.602 157.352C215.9 157.352 216.197 157.204 216.495 157.055C216.793 156.757 216.942 156.459 216.942 156.161C216.942 155.863 216.793 155.565 216.495 155.268C216.197 155.119 215.9 154.97 215.602 154.97Z" fill="white"/>
<path d="M216.495 160.629H214.56V172.841H216.495V160.629Z" fill="white"/>
<path d="M221.409 162.118C220.218 163.309 219.622 164.947 219.622 166.883C219.622 168.67 220.218 170.159 221.26 171.351C222.302 172.542 223.791 172.989 225.429 172.989C226.769 172.989 227.812 172.691 228.705 172.095V170.308C227.812 171.053 226.769 171.351 225.727 171.351C224.536 171.351 223.494 170.904 222.749 170.159C222.005 169.266 221.558 168.223 221.558 166.734C221.558 165.245 222.005 164.054 222.749 163.16C223.494 162.267 224.536 161.82 225.876 161.82C226.918 161.82 227.812 162.118 228.705 162.713V160.777C227.961 160.331 226.918 160.182 225.876 160.182C224.089 160.331 222.6 160.926 221.409 162.118Z" fill="white"/>
<path d="M241.362 161.969C240.32 160.778 238.98 160.331 237.044 160.331C235.108 160.331 233.619 160.927 232.577 162.118C231.386 163.31 230.939 164.799 230.939 166.884C230.939 168.82 231.535 170.309 232.577 171.351C233.619 172.543 235.108 172.99 236.895 172.99C238.682 172.99 240.171 172.394 241.362 171.202C242.405 170.011 243 168.522 243 166.586C243 164.65 242.405 163.161 241.362 161.969ZM239.873 170.16C239.129 170.905 238.235 171.351 236.895 171.351C235.704 171.351 234.662 170.905 233.917 170.16C233.173 169.266 232.875 168.224 232.875 166.735C232.875 165.246 233.173 164.054 233.917 163.161C234.662 162.267 235.704 161.82 236.895 161.82C238.086 161.82 239.129 162.267 239.873 163.012C240.618 163.905 240.915 164.948 240.915 166.586C240.915 168.224 240.618 169.415 239.873 170.16Z" fill="white"/>
<path d="M75.0375 135.461L71.4639 144.992H72.6551L73.5485 142.311H77.5689L78.6112 144.992H79.8024L76.0799 135.461H75.0375ZM73.9952 141.269L75.4842 137.248C75.4842 137.099 75.6331 136.95 75.6331 136.652C75.6331 136.95 75.782 137.099 75.782 137.248L77.2711 141.269H73.9952Z" fill="white"/>
<path d="M83.6739 145.141C83.9717 144.992 84.2695 144.992 84.5673 144.843C84.8651 144.694 85.014 144.545 85.1629 144.247C85.3118 143.95 85.4607 143.652 85.4607 143.354C85.4607 143.056 85.4607 142.907 85.3118 142.609C85.1629 142.46 85.1629 142.163 84.8651 142.014C84.7162 141.865 84.4184 141.716 84.2695 141.567C83.9717 141.418 83.8228 141.269 83.525 141.269C83.2272 141.12 83.0783 141.12 82.9294 140.971C82.7805 140.822 82.6316 140.822 82.4827 140.673C82.3338 140.524 82.3338 140.524 82.1849 140.375C82.0359 140.227 82.0359 140.078 82.0359 139.929C82.0359 139.78 82.0359 139.631 82.1849 139.482C82.1849 139.333 82.3338 139.333 82.4827 139.184C82.6316 139.035 82.7805 139.035 82.9294 139.035C83.0783 139.035 83.2272 139.035 83.525 139.035C84.1206 139.035 84.7162 139.184 85.3118 139.482V138.439C84.8651 138.291 84.2695 138.142 83.6739 138.142C83.3761 138.142 83.0783 138.142 82.6316 138.291C82.1849 138.439 82.0359 138.439 81.7381 138.737C81.4403 138.886 81.2914 139.184 81.1425 139.333C80.9936 139.482 80.9936 139.929 80.9936 140.227C80.9936 140.524 80.9936 140.673 81.1425 140.971C81.2914 141.12 81.2914 141.269 81.4403 141.567C81.5892 141.716 81.7381 141.865 82.0359 142.014C82.3338 142.163 82.4827 142.311 82.7805 142.311C82.9294 142.46 83.2272 142.46 83.3761 142.609C83.525 142.758 83.6739 142.758 83.8228 142.907C83.9717 143.056 84.1206 143.056 84.1206 143.205C84.2695 143.354 84.2695 143.503 84.2695 143.652C84.2695 144.247 83.8228 144.545 82.7805 144.545C82.0359 144.545 81.4403 144.396 80.8447 143.95V145.141C81.2914 145.439 82.0359 145.588 82.6316 145.588C82.9294 145.141 83.2272 145.141 83.6739 145.141Z" fill="white"/>
<path d="M90.5233 142.014C90.3744 141.865 90.0766 141.716 89.9277 141.567C89.6299 141.418 89.481 141.269 89.1832 141.269C88.8854 141.12 88.7365 141.12 88.5876 140.971C88.4387 140.822 88.2898 140.822 88.1409 140.673C87.992 140.524 87.992 140.524 87.8431 140.375C87.8431 140.227 87.6942 140.078 87.6942 139.929C87.6942 139.78 87.6942 139.631 87.8431 139.482C87.8431 139.333 87.992 139.333 88.1409 139.184C88.2898 139.035 88.4387 139.035 88.5876 139.035C88.7365 139.035 88.8854 139.035 89.1832 139.035C89.7788 139.035 90.3744 139.184 90.97 139.482V138.439C90.5233 138.291 89.9277 138.142 89.3321 138.142C89.0343 138.142 88.7365 138.142 88.2898 138.291C87.8431 138.439 87.6942 138.439 87.3963 138.737C87.0985 138.886 86.9496 139.184 86.8007 139.333C86.6518 139.631 86.6518 139.929 86.6518 140.227C86.6518 140.524 86.6518 140.673 86.8007 140.971C86.9496 141.12 86.9496 141.269 87.0985 141.567C87.2474 141.716 87.3963 141.865 87.6942 142.014C87.992 142.163 88.1409 142.311 88.4387 142.311C88.5876 142.46 88.8854 142.46 89.0343 142.609C89.1832 142.758 89.3321 142.758 89.481 142.907C89.6299 143.056 89.7788 143.056 89.7788 143.205C89.9277 143.354 89.9277 143.503 89.9277 143.652C89.9277 144.247 89.481 144.545 88.4387 144.545C87.6942 144.545 87.0985 144.396 86.5029 143.95V145.141C86.9496 145.439 87.6942 145.588 88.2898 145.588C88.5876 145.588 89.0343 145.588 89.3321 145.439C89.6299 145.29 89.9277 145.29 90.2255 145.141C90.5233 144.992 90.6722 144.843 90.8211 144.545C90.97 144.247 91.1189 143.95 91.1189 143.652C91.1189 143.354 91.1189 143.205 90.97 142.907C90.8211 142.311 90.6722 142.163 90.5233 142.014Z" fill="white"/>
<path d="M95.7348 137.992C94.6925 137.992 93.7991 138.29 93.2035 138.886C92.6079 139.481 92.3101 140.375 92.3101 141.566C92.3101 142.609 92.6079 143.502 93.2035 144.098C93.7991 144.694 94.5436 144.992 95.5859 144.992C96.6282 144.992 97.3728 144.694 98.1173 143.949C98.8618 143.204 99.0107 142.46 99.0107 141.268C99.0107 140.226 98.7129 139.332 98.1173 138.588C97.6706 138.29 96.7771 137.992 95.7348 137.992ZM97.3728 143.651C96.926 144.098 96.4793 144.396 95.7348 144.396C94.9903 144.396 94.5436 144.098 94.0969 143.651C93.6502 143.204 93.5013 142.609 93.5013 141.715C93.5013 140.822 93.6502 140.226 94.0969 139.779C94.5436 139.332 94.9903 139.035 95.7348 139.035C96.4793 139.035 96.926 139.332 97.3728 139.779C97.8195 140.226 97.9684 140.971 97.9684 141.715C97.9684 142.46 97.6706 143.056 97.3728 143.651Z" fill="white"/>
<path d="M103.627 145.14C104.371 145.14 104.967 144.992 105.563 144.694V143.651C104.967 144.098 104.52 144.247 103.925 144.247C103.18 144.247 102.585 143.949 102.287 143.502C101.84 143.056 101.691 142.46 101.691 141.566C101.691 140.822 101.989 140.077 102.287 139.63C102.734 139.184 103.329 138.886 104.074 138.886C104.669 138.886 105.265 139.035 105.712 139.481V138.29C105.265 138.141 104.669 137.992 104.074 137.992C103.031 137.992 102.138 138.29 101.542 139.035C100.947 139.779 100.649 140.673 100.649 141.715C100.649 142.758 100.947 143.502 101.542 144.247C101.84 144.843 102.585 145.14 103.627 145.14Z" fill="white"/>
<path d="M108.094 138.142H107.052V144.992H108.094V138.142Z" fill="white"/>
<path d="M107.647 135.014C107.498 135.014 107.35 135.014 107.201 135.163C107.052 135.312 107.052 135.46 107.052 135.609C107.052 135.758 107.052 136.056 107.201 136.056C107.35 136.205 107.498 136.205 107.647 136.205C107.796 136.205 107.945 136.205 108.094 136.056C108.243 135.907 108.243 135.758 108.243 135.609C108.243 135.46 108.243 135.163 108.094 135.163C108.094 135.163 107.945 135.014 107.647 135.014Z" fill="white"/>
<path d="M115.39 144.992V140.524C115.39 138.886 114.646 137.992 113.008 137.992C112.114 137.992 111.37 138.141 110.625 138.588V139.779C111.221 139.184 111.965 138.886 112.859 138.886C113.752 138.886 114.199 139.481 114.199 140.673L112.114 140.971C110.625 141.12 109.881 141.864 109.881 143.204C109.881 143.8 110.03 144.247 110.476 144.694C110.923 144.992 111.37 145.289 112.114 145.289C113.008 145.289 113.752 144.843 114.199 144.098V144.992H115.39ZM113.752 143.651C113.455 144.098 113.008 144.247 112.412 144.247C111.965 144.247 111.668 144.098 111.519 143.949C111.221 143.8 111.072 143.502 111.072 143.204C111.072 142.758 111.221 142.46 111.519 142.311C111.817 142.162 112.114 142.013 112.71 141.864L114.348 141.566V142.311C114.199 142.907 114.05 143.353 113.752 143.651Z" fill="white"/>
<path d="M119.411 146.183C119.56 146.183 119.709 146.183 119.709 146.183C120.304 146.183 120.602 146.332 120.602 146.63C120.602 147.077 120.304 147.226 119.709 147.226C119.56 147.226 119.411 147.226 119.262 147.226V147.822C119.411 147.822 119.56 147.822 119.709 147.822C120.9 147.822 121.495 147.375 121.495 146.63C121.495 146.332 121.347 146.035 121.198 145.886C120.9 145.737 120.602 145.588 120.304 145.588V144.992C121.049 144.992 121.644 144.843 122.091 144.545V143.503C121.495 143.95 121.049 144.099 120.453 144.099C119.709 144.099 119.113 143.801 118.815 143.354C118.368 142.907 118.22 142.311 118.22 141.418C118.22 140.673 118.517 139.929 118.815 139.482C119.262 139.035 119.858 138.737 120.602 138.737C121.198 138.737 121.793 138.886 122.24 139.333V138.142C121.793 137.993 121.198 137.844 120.602 137.844C119.56 137.844 118.666 138.142 118.071 138.886C117.475 139.631 117.177 140.524 117.177 141.567C117.177 142.609 117.475 143.354 118.071 144.099C118.517 144.545 119.113 144.843 119.709 144.992V146.183H119.411Z" fill="white"/>
<path d="M126.26 137.992C125.367 137.992 124.622 138.141 123.878 138.588V139.779C124.473 139.184 125.218 138.886 126.111 138.886C127.005 138.886 127.451 139.481 127.451 140.673L125.367 140.971C123.878 141.12 123.133 141.864 123.133 143.204C123.133 143.8 123.282 144.247 123.729 144.694C124.176 144.992 124.622 145.289 125.367 145.289C126.26 145.289 127.005 144.843 127.451 144.098V144.992H128.494V140.524C128.643 138.886 127.749 137.992 126.26 137.992ZM127.451 142.311C127.451 142.907 127.303 143.353 126.856 143.8C126.558 144.247 126.111 144.396 125.516 144.396C125.069 144.396 124.771 144.247 124.622 144.098C124.325 143.949 124.325 143.651 124.325 143.353C124.325 142.907 124.473 142.609 124.771 142.46C125.069 142.311 125.367 142.162 125.962 142.013L127.6 141.715V142.311H127.451Z" fill="white"/>
<path d="M127.005 136.056C126.707 136.056 126.409 135.907 126.111 135.758C125.665 135.46 125.367 135.46 125.069 135.46C124.622 135.46 124.325 135.609 124.176 135.907C124.027 136.205 123.878 136.503 123.878 137.099H124.474C124.474 136.652 124.622 136.354 125.069 136.354C125.218 136.354 125.516 136.503 125.814 136.652C126.26 136.95 126.558 136.95 126.856 136.95C127.154 136.95 127.452 136.801 127.749 136.503C127.898 136.205 128.047 135.758 128.047 135.312H127.452C127.601 135.758 127.452 136.056 127.005 136.056Z" fill="white"/>
<path d="M135.939 144.247C136.534 143.651 136.832 142.758 136.832 141.566C136.832 140.524 136.534 139.63 135.939 138.886C135.343 138.29 134.598 137.992 133.556 137.992C132.514 137.992 131.62 138.29 131.025 138.886C130.429 139.481 130.131 140.375 130.131 141.566C130.131 142.609 130.429 143.502 131.025 144.098C131.62 144.694 132.365 144.992 133.407 144.992C134.598 145.14 135.343 144.843 135.939 144.247ZM131.918 143.502C131.471 143.056 131.323 142.46 131.323 141.566C131.323 140.673 131.471 140.077 131.918 139.63C132.365 139.184 132.812 138.886 133.556 138.886C134.301 138.886 134.747 139.184 135.194 139.63C135.641 140.077 135.79 140.822 135.79 141.566C135.79 142.46 135.641 143.056 135.194 143.502C134.747 143.949 134.301 144.247 133.556 144.247C132.961 144.247 132.365 144.098 131.918 143.502Z" fill="white"/>
<path d="M148.447 138.29C148.447 137.397 148.149 136.652 147.553 136.206C146.958 135.759 146.213 135.461 145.171 135.461H142.491V144.992H143.682V141.418H144.873C145.915 141.418 146.809 141.12 147.405 140.524C148.149 139.929 148.447 139.184 148.447 138.29ZM146.66 139.929C146.213 140.226 145.618 140.524 144.873 140.524H143.682V136.652H145.022C146.511 136.652 147.256 137.248 147.256 138.588C147.256 139.035 147.107 139.482 146.66 139.929Z" fill="white"/>
<path d="M149.191 143.204C149.191 143.8 149.34 144.247 149.787 144.694C150.234 144.992 150.68 145.289 151.425 145.289C152.318 145.289 153.063 144.843 153.51 144.098V144.992H154.552V140.524C154.552 138.886 153.807 137.992 152.169 137.992C151.276 137.992 150.532 138.141 149.787 138.588V139.779C150.383 139.184 151.127 138.886 152.021 138.886C152.914 138.886 153.361 139.481 153.361 140.673L151.276 140.971C149.936 141.268 149.191 142.013 149.191 143.204ZM153.51 141.566V142.311C153.51 142.907 153.361 143.353 152.914 143.8C152.616 144.247 152.169 144.396 151.574 144.396C151.127 144.396 150.829 144.247 150.68 144.098C150.383 143.949 150.383 143.651 150.383 143.353C150.383 142.907 150.532 142.609 150.829 142.46C151.127 142.311 151.425 142.162 152.021 142.013L153.51 141.566Z" fill="white"/>
<path d="M158.423 138.439C158.125 138.737 157.827 139.035 157.679 139.63V138.29H156.636V144.992H157.679V141.566C157.679 140.822 157.827 140.226 158.125 139.779C158.423 139.332 158.87 139.184 159.316 139.184C159.614 139.184 159.912 139.184 160.21 139.332V138.141C160.061 138.141 159.912 137.992 159.614 137.992C159.168 138.141 158.721 138.29 158.423 138.439Z" fill="white"/>
<path d="M163.784 137.992C162.89 137.992 162.146 138.141 161.401 138.588V139.779C161.997 139.184 162.741 138.886 163.635 138.886C164.528 138.886 164.975 139.481 164.975 140.673L163.188 140.971C161.699 141.12 160.955 141.864 160.955 143.204C160.955 143.8 161.103 144.247 161.55 144.694C161.997 144.992 162.444 145.289 163.188 145.289C164.082 145.289 164.826 144.843 165.273 144.098V144.992H166.315V140.524C166.315 138.886 165.422 137.992 163.784 137.992ZM165.124 142.311C165.124 142.907 164.975 143.353 164.528 143.8C164.23 144.247 163.784 144.396 163.188 144.396C162.741 144.396 162.444 144.247 162.295 144.098C161.997 143.949 161.997 143.651 161.997 143.353C161.997 142.907 162.146 142.609 162.444 142.46C162.741 142.311 163.039 142.162 163.635 142.013L165.273 141.715V142.311H165.124Z" fill="white"/>
<path d="M169.442 135.312C169.293 135.163 169.144 135.163 168.996 135.163C168.847 135.163 168.698 135.163 168.549 135.312C168.4 135.461 168.4 135.61 168.4 135.759C168.4 135.908 168.4 136.206 168.549 136.206C168.698 136.206 168.847 136.354 168.996 136.354C169.144 136.354 169.293 136.354 169.442 136.206C169.591 136.057 169.591 135.908 169.591 135.759C169.591 135.61 169.591 135.461 169.442 135.312Z" fill="white"/>
<path d="M169.442 138.142H168.4V144.992H169.442V138.142Z" fill="white"/>
<path d="M175.101 137.993C174.058 137.993 173.314 138.439 172.718 139.333V134.865H171.676V144.992H172.718V143.95C173.165 144.694 173.909 145.141 174.803 145.141C175.696 145.141 176.59 144.843 177.036 144.098C177.632 143.354 177.93 142.46 177.93 141.418C177.93 140.375 177.632 139.631 177.185 139.035C176.738 138.29 175.994 137.993 175.101 137.993ZM176.292 143.503C175.845 143.95 175.398 144.247 174.803 144.247C174.207 144.247 173.76 144.098 173.463 143.652C173.165 143.205 172.867 142.758 172.867 142.162V141.269C172.867 140.673 173.016 140.078 173.463 139.631C173.909 139.184 174.356 139.035 174.952 139.035C175.547 139.035 175.994 139.184 176.441 139.631C176.738 140.078 177.036 140.673 177.036 141.418C176.738 142.311 176.59 143.056 176.292 143.503Z" fill="white"/>
<path d="M183.29 143.949V144.992H184.332V140.524C184.332 138.886 183.588 137.992 181.95 137.992C181.056 137.992 180.312 138.141 179.567 138.588V139.779C180.163 139.184 180.907 138.886 181.801 138.886C182.694 138.886 183.141 139.481 183.141 140.673L181.056 140.971C179.567 141.12 178.823 141.864 178.823 143.204C178.823 143.8 178.972 144.247 179.418 144.694C179.865 144.992 180.312 145.289 181.056 145.289C182.099 145.14 182.843 144.843 183.29 143.949ZM180.163 143.204C180.163 142.758 180.312 142.46 180.61 142.311C180.907 142.162 181.205 142.013 181.801 141.864L183.439 141.566V142.311C183.439 142.907 183.29 143.353 182.843 143.8C182.545 144.247 182.099 144.396 181.503 144.396C181.056 144.396 180.758 144.247 180.61 144.098C180.312 143.8 180.163 143.502 180.163 143.204Z" fill="white"/>
<path d="M189.842 137.992C188.799 137.992 188.055 138.439 187.608 139.332V138.141H186.566V144.992H187.608V141.12C187.608 140.524 187.757 139.928 188.204 139.63C188.502 139.184 188.948 139.035 189.544 139.035C190.586 139.035 191.182 139.779 191.182 141.268V144.992H192.224V140.822C192.224 139.928 192.075 139.184 191.629 138.737C191.182 138.29 190.586 137.992 189.842 137.992Z" fill="white"/>
<path d="M198.032 143.949V144.992H199.074V140.524C199.074 138.886 198.329 137.992 196.691 137.992C195.798 137.992 195.054 138.141 194.309 138.588V139.779C194.905 139.184 195.649 138.886 196.543 138.886C197.436 138.886 197.883 139.481 197.883 140.673L195.947 140.971C194.458 141.12 193.713 141.864 193.713 143.204C193.713 143.8 193.862 144.247 194.309 144.694C194.756 144.992 195.202 145.289 195.947 145.289C196.84 145.14 197.436 144.843 198.032 143.949ZM194.756 143.204C194.756 142.758 194.905 142.46 195.202 142.311C195.5 142.162 195.798 142.013 196.394 141.864L198.032 141.566V142.311C198.032 142.907 197.883 143.353 197.436 143.8C197.138 144.247 196.691 144.396 196.096 144.396C195.649 144.396 195.351 144.247 195.202 144.098C194.905 143.8 194.756 143.502 194.756 143.204Z" fill="white"/>
<path d="M209.646 139.184C209.199 138.439 208.454 138.142 207.561 138.142C206.668 138.142 205.923 138.439 205.328 139.184C204.732 139.929 204.434 140.822 204.434 141.865C204.434 142.907 204.732 143.801 205.179 144.396C205.625 144.992 206.37 145.29 207.263 145.29C208.306 145.29 209.05 144.843 209.646 143.95V144.992H210.688V134.865H209.646V139.184ZM209.646 142.014C209.646 142.758 209.497 143.205 209.05 143.652C208.603 144.098 208.157 144.247 207.561 144.247C206.965 144.247 206.519 143.95 206.072 143.503C205.774 143.056 205.476 142.46 205.476 141.567C205.476 140.673 205.625 140.078 206.072 139.482C206.519 139.035 206.965 138.737 207.71 138.737C208.306 138.737 208.752 138.886 209.05 139.333C209.348 139.78 209.646 140.226 209.646 140.673V142.014Z" fill="white"/>
<path d="M216.049 137.992C215.006 137.992 214.113 138.29 213.517 138.886C212.922 139.481 212.624 140.375 212.624 141.566C212.624 142.609 212.922 143.502 213.517 144.098C214.113 144.694 214.858 144.992 215.9 144.992C216.942 144.992 217.687 144.694 218.431 143.949C219.176 143.204 219.325 142.46 219.325 141.268C219.325 140.226 219.027 139.332 218.431 138.588C217.836 138.29 216.942 137.992 216.049 137.992ZM217.538 143.651C217.091 144.098 216.644 144.396 215.9 144.396C215.155 144.396 214.709 144.098 214.262 143.651C213.815 143.204 213.666 142.609 213.666 141.715C213.666 140.822 213.815 140.226 214.262 139.779C214.709 139.332 215.155 139.035 215.9 139.035C216.644 139.035 217.091 139.332 217.538 139.779C217.985 140.226 218.133 140.971 218.133 141.715C218.133 142.46 217.836 143.056 217.538 143.651Z" fill="white"/>
</svg>
