<svg width="295" height="245" viewBox="0 0 295 245" fill="none" xmlns="http://www.w3.org/2000/svg">
<path d="M148 135.911C169.302 135.911 186.686 118.563 186.686 97.0306V44H109.314V97.1536C109.314 118.563 126.698 135.911 148 135.911ZM113.477 48.0603H182.646V97.0306C182.646 116.225 167.098 131.728 148.122 131.728C129.024 131.728 113.599 116.102 113.599 97.0306V48.0603H113.477Z" fill="white"/>
<path d="M145.674 112.78V127.914L148 130.498L150.326 127.914V112.78L166.853 118.809L175.055 96.1695C177.259 90.0174 174.076 83.1272 167.955 80.9124C166.118 80.2972 164.16 80.0511 162.323 80.2972V80.1742L162.446 77.3442C162.568 77.3442 162.691 77.2212 162.813 77.2212L166.486 79.1899L166.118 75.0065C166.241 74.8834 166.241 74.8834 166.363 74.7604L170.281 76.1138L169.301 72.0535C169.424 71.9305 169.424 71.9305 169.546 71.8074L173.709 72.5457L172.117 68.6084C172.24 68.4853 172.24 68.3623 172.362 68.3623L176.524 68.4853L174.443 64.9171C174.443 64.7941 174.566 64.671 174.566 64.671L178.728 64.1789L176.035 60.8568C176.035 60.7337 176.157 60.6107 176.157 60.4877L180.197 59.3803L177.137 56.5504C177.137 56.4273 177.137 56.3043 177.137 56.1812L180.932 54.4587L177.381 52.1209C177.381 51.9979 177.381 51.8748 177.381 51.7518L180.932 49.537L177.993 48.1836H175.3C175.423 49.291 175.545 50.3983 175.545 51.6287C175.545 66.2706 164.405 78.2055 150.204 79.4359V72.2996C150.326 72.1765 150.448 71.9305 150.448 71.8074V70.577L158.039 74.7604C158.406 75.0065 158.896 74.6374 158.896 74.2682V65.6554C158.896 65.1632 158.406 64.9171 158.039 65.1632L150.448 69.3466V68.1162C150.448 67.7471 150.081 67.3779 149.714 67.2549C150.326 66.0245 150.816 64.1789 150.816 62.0872C150.816 59.1342 149.959 56.5504 148.734 55.8121V54.9508H148.979V54.2126H146.776V54.9508H147.021V55.6891C145.796 56.5504 144.939 59.0112 144.939 61.9642C144.939 64.0558 145.307 65.9015 146.041 67.1319C145.674 67.2549 145.307 67.624 145.307 67.9931V69.2236L137.716 65.0402C137.349 64.7941 136.859 65.1632 136.859 65.5323V74.1452C136.859 74.6374 137.349 74.8834 137.716 74.6373L145.307 70.454V71.6844C145.307 71.9305 145.429 72.0535 145.551 72.1765V79.1899C131.473 78.0825 120.332 66.1475 120.332 51.5057C120.332 50.3983 120.455 49.1679 120.577 48.0605H117.884L114.946 49.414L118.496 51.6287C118.496 51.7518 118.496 51.8748 118.496 51.9979L114.946 54.3356L118.741 56.0582C118.741 56.1812 118.741 56.3043 118.741 56.4273L115.68 59.2573L119.72 60.3646C119.72 60.4877 119.843 60.6107 119.843 60.7337L117.149 64.0558L121.312 64.548C121.312 64.671 121.434 64.7941 121.434 64.7941L119.353 68.3623L123.515 68.2392C123.638 68.3623 123.638 68.4853 123.76 68.4853L122.169 72.4226L126.331 71.6844C126.454 71.8074 126.454 71.8074 126.576 71.9305L125.597 75.9908L129.514 74.6373C129.637 74.7604 129.637 74.7604 129.759 74.8834L129.392 79.0668L133.064 77.0982C133.187 77.0982 133.309 77.2212 133.432 77.2212L133.554 79.9281V80.1742C133.432 80.1742 133.309 80.1742 133.187 80.1742C131.473 80.0511 129.759 80.1742 127.923 80.7894C121.801 83.0041 118.618 89.8944 120.822 96.0464L129.024 118.686L145.674 112.78ZM167.955 90.8787L169.301 91.3709L168.689 98.1381L172.607 92.6013L173.954 93.0935L168.445 100.968L167.588 110.565L166.241 110.073L166.853 103.306L162.936 108.843L161.589 108.351L167.098 100.476L167.955 90.8787ZM163.303 89.1562L166.975 90.5096L165.751 93.8317L164.405 93.3395L165.139 91.3709L162.813 90.5096L160.854 95.9234L163.18 96.9077L162.691 98.1381L160.365 97.2768L157.426 105.398L159.753 106.259L160.487 104.29L161.834 104.782L160.609 108.104L156.937 106.751L155.59 106.259L159.018 96.9077L159.508 95.5543L161.956 88.787L163.303 89.1562ZM158.528 79.1899C158.651 79.1899 158.773 79.0668 158.896 79.0668L160.854 80.4203C160.732 80.4203 160.609 80.5433 160.487 80.5433C159.63 80.7894 158.773 81.1585 158.039 81.6507L158.528 79.1899ZM150.326 81.0355C150.326 81.0355 150.448 81.0355 150.326 81.0355L150.693 81.4046L152.897 84.3576L154.366 80.4203C154.488 80.4203 154.611 80.4203 154.733 80.2972L156.814 82.3889C156.692 82.512 156.57 82.512 156.57 82.635C154.856 83.9884 153.509 85.711 152.774 87.9258L150.448 94.57V81.0355H150.326ZM156.08 86.5723L157.426 87.0645L151.55 103.183L153.876 104.044L154.611 102.075L155.957 102.568L154.733 105.89L149.714 104.044L156.08 86.5723ZM146.531 104.29L141.512 106.136L140.287 102.814L141.634 102.322L142.368 104.29L144.695 103.429L143.225 99.2455L137.227 94.3239L135.146 88.541L140.165 86.6953L141.389 90.0174L140.042 90.5096L139.308 88.541L136.982 89.4022L138.451 93.5856L144.45 98.5073L146.531 104.29ZM139.43 82.2659L141.267 80.4203C141.389 80.4203 141.512 80.4203 141.634 80.5433L143.103 84.4806L145.674 81.1585V94.693L143.348 88.0488C142.491 85.711 141.022 83.8654 139.186 82.512L139.43 82.2659ZM135.39 80.2972L137.104 79.0668C137.227 79.0668 137.349 79.1899 137.472 79.1899L137.961 81.2815L138.084 81.6507C137.961 81.5276 137.839 81.5276 137.594 81.4046C136.859 81.0355 136.003 80.6663 135.146 80.5433L135.39 80.2972ZM130.493 90.2635L136.37 106.382L138.696 105.521L132.82 89.4022L134.166 88.9101L140.532 106.382L135.513 108.227L129.269 90.7557L130.493 90.2635ZM126.943 91.617L128.29 91.1248L134.656 108.597L129.637 110.442L128.412 107.12L129.759 106.628L130.493 108.597L132.82 107.735L126.943 91.617Z" fill="white"/>
<path d="M174.321 139.479C174.321 139.356 174.321 139.233 174.321 139.11C174.198 138.987 174.198 138.864 174.076 138.864H173.954C173.831 138.864 173.831 138.864 173.709 138.864C173.586 138.987 173.464 138.987 173.464 139.11C173.464 139.233 173.464 139.356 173.464 139.479C173.586 139.603 173.586 139.726 173.709 139.726C173.831 139.726 173.954 139.726 174.076 139.726C174.198 139.603 174.198 139.603 174.321 139.479Z" fill="white"/>
<path d="M162.201 143.909C162.079 143.786 161.956 143.663 161.834 143.54C161.711 143.417 161.589 143.417 161.467 143.417C161.344 143.417 161.222 143.417 160.732 143.54L160.365 143.663L160.977 146.493L161.589 146.37C161.834 146.37 161.956 146.247 162.079 146.247C162.201 146.124 162.324 146.124 162.324 146.001C162.446 145.878 162.446 145.755 162.446 145.509C162.446 145.263 162.446 145.017 162.324 144.647C162.324 144.278 162.323 144.032 162.201 143.909Z" fill="white"/>
<path d="M155.835 144.771C155.59 144.647 155.346 144.524 155.101 144.524H154.978C154.611 144.524 154.366 144.77 154.121 145.017C153.876 145.263 153.876 145.632 153.876 146.124C153.876 146.616 154.121 146.985 154.366 147.231C154.611 147.477 154.856 147.6 155.223 147.477C155.59 147.477 155.835 147.231 155.958 146.985C156.203 146.739 156.203 146.37 156.203 145.878C156.203 145.263 156.08 145.017 155.835 144.771Z" fill="white"/>
<path d="M123.638 139.233C123.515 139.11 123.271 138.987 123.026 138.864L122.781 138.741L121.557 141.325L122.046 141.571C122.291 141.694 122.414 141.694 122.536 141.817C122.658 141.817 122.781 141.817 122.903 141.817C123.026 141.817 123.148 141.694 123.271 141.571C123.393 141.448 123.515 141.202 123.76 140.833C123.883 140.587 124.005 140.218 124.005 140.095C124.005 139.972 124.005 139.726 124.005 139.602C123.883 139.479 123.76 139.356 123.638 139.233Z" fill="white"/>
<path d="M142.246 144.524C141.879 144.524 141.634 144.524 141.389 144.771C141.144 145.017 141.022 145.386 140.899 145.878C140.899 146.37 140.899 146.739 141.144 146.985C141.389 147.231 141.634 147.354 142.001 147.477C142.368 147.477 142.613 147.477 142.858 147.231C143.103 146.985 143.225 146.616 143.348 146.124C143.348 145.632 143.348 145.263 143.103 145.017C142.858 144.647 142.613 144.524 142.246 144.524Z" fill="white"/>
<path d="M131.963 144.278L132.942 144.647L132.82 143.171L131.963 144.278Z" fill="white"/>
<path d="M177.993 138.741C177.871 138.741 177.749 138.741 177.626 138.741C177.504 138.864 177.381 138.987 177.381 139.11C177.381 139.233 177.381 139.479 177.504 139.602C177.626 139.849 177.749 139.972 177.871 139.972C177.993 139.972 178.116 139.972 178.361 139.972C178.483 139.849 178.606 139.726 178.606 139.602C178.606 139.479 178.606 139.233 178.483 139.11C178.238 138.864 178.116 138.741 177.993 138.741Z" fill="white"/>
<path d="M183.625 132.712C184.972 131.728 186.196 130.621 187.42 129.513L183.013 128.037L182.034 123.484C180.932 124.469 179.83 125.33 178.728 126.314C177.137 127.545 175.423 128.652 173.709 129.759L175.79 133.328C167.71 138.126 158.161 140.956 148.122 140.956C138.084 140.956 128.535 138.249 120.455 133.328L122.536 129.759C120.822 128.775 119.108 127.545 117.517 126.314C116.415 125.453 115.313 124.469 114.211 123.484L112.987 127.914L108.58 129.39C109.804 130.498 111.151 131.605 112.375 132.589L108.458 137.757C110.539 139.357 112.742 140.833 114.946 142.187C124.617 147.969 135.88 151.169 148 151.169C160.12 151.169 171.383 147.846 181.054 142.187C183.258 140.833 185.461 139.357 187.543 137.757L183.625 132.712ZM118.374 136.896C118.741 137.142 118.986 137.388 118.986 137.88C119.108 138.249 118.986 138.741 118.741 139.111C118.496 139.48 118.251 139.726 117.884 139.849C117.639 139.972 117.517 139.972 117.272 139.972C117.027 139.972 116.66 139.849 116.415 139.726C116.048 139.48 115.803 139.234 115.68 138.864C115.558 138.495 115.558 138.126 115.803 137.757V137.634L116.782 138.126V138.249C116.66 138.372 116.66 138.618 116.782 138.741C116.782 138.864 116.905 138.988 117.027 139.111C117.15 139.234 117.272 139.234 117.517 139.111C117.639 139.111 117.884 138.864 118.006 138.618C118.129 138.372 118.251 138.249 118.129 138.003C118.129 137.88 118.006 137.757 117.884 137.634C117.639 137.511 117.517 137.511 117.15 137.511L116.537 137.019L118.251 135.173L120.333 136.527L119.843 137.388L118.251 136.281L117.884 136.773C118.006 136.773 118.251 136.773 118.374 136.896ZM123.271 142.679C123.148 142.679 123.026 142.802 122.781 142.802C122.659 142.802 122.536 142.802 122.414 142.802C122.169 142.802 121.924 142.679 121.679 142.556L120.088 141.817V141.694L122.169 137.511L123.76 138.249C124.128 138.372 124.372 138.618 124.495 138.741C124.74 138.988 124.862 139.234 124.985 139.48C125.107 139.726 125.107 140.095 125.107 140.341C125.107 140.71 124.985 140.956 124.74 141.448C124.617 141.817 124.372 142.064 124.128 142.31C123.883 142.433 123.638 142.556 123.271 142.679ZM129.147 141.571L126.821 140.71L126.454 141.448L128.535 142.31L128.168 143.171L126.086 142.31L125.719 143.294L128.045 144.278L127.678 145.14L124.495 143.663L126.209 139.234L129.514 140.587L129.147 141.571ZM133.064 146.739L132.942 145.632L131.351 145.14L130.738 146.001L129.637 145.632L132.697 141.571L133.677 141.817L134.166 146.862L133.064 146.739ZM136.247 146.124C136.37 146.37 136.737 146.616 136.982 146.616C137.104 146.616 137.349 146.616 137.594 146.616C137.717 146.616 137.961 146.493 138.084 146.493L138.206 146.001L137.227 145.755L137.349 144.893H137.472L139.43 145.263L138.941 147.354C138.696 147.477 138.451 147.6 137.961 147.723C137.717 147.723 137.594 147.723 137.349 147.723C137.104 147.723 136.982 147.723 136.737 147.723C136.247 147.6 135.88 147.477 135.513 147.108C135.146 146.862 135.023 146.493 134.901 146.124C134.778 145.755 134.778 145.263 134.901 144.893C135.023 144.401 135.146 144.032 135.513 143.663C135.758 143.294 136.125 143.048 136.615 142.925C136.982 142.802 137.349 142.802 137.717 142.925C138.329 143.048 138.696 143.294 138.941 143.54C139.186 143.786 139.308 144.278 139.43 144.647V144.77H138.329V144.647C138.329 144.401 138.206 144.278 138.084 144.155C137.961 144.032 137.717 143.909 137.472 143.909C137.104 143.786 136.737 143.909 136.492 144.032C136.247 144.278 136.003 144.524 136.003 145.017C136.003 145.509 136.003 145.878 136.247 146.124ZM144.45 146.247C144.327 146.985 144.083 147.6 143.593 147.969C143.226 148.339 142.736 148.462 142.246 148.462C142.124 148.462 142.001 148.462 141.879 148.462C141.144 148.339 140.655 148.093 140.287 147.6C139.92 147.108 139.798 146.493 139.92 145.755C139.92 145.263 140.043 144.893 140.287 144.524C140.41 144.278 140.532 144.155 140.777 143.909C141.022 143.786 141.144 143.663 141.389 143.54C141.634 143.417 142.001 143.417 142.369 143.417C143.103 143.54 143.593 143.786 143.96 144.278C144.327 144.893 144.45 145.509 144.45 146.247ZM148.367 148.093C148.245 148.339 148 148.462 147.755 148.585C147.51 148.708 147.266 148.708 146.898 148.708H146.776C146.164 148.708 145.674 148.585 145.429 148.216C145.062 147.969 144.939 147.477 144.939 146.985V146.862L146.041 146.739V146.862C146.041 147.108 146.164 147.354 146.286 147.477C146.409 147.6 146.653 147.723 146.898 147.723C147.143 147.723 147.388 147.723 147.51 147.6C147.633 147.477 147.755 147.354 147.755 147.231C147.755 147.108 147.755 147.108 147.633 146.985C147.633 146.862 147.51 146.862 147.388 146.862C147.266 146.862 147.021 146.739 146.653 146.616C146.164 146.493 145.796 146.37 145.552 146.124C145.307 145.878 145.184 145.509 145.184 145.14C145.184 144.893 145.307 144.647 145.429 144.401C145.552 144.155 145.796 144.032 146.041 143.909C146.286 143.786 146.653 143.786 147.021 143.786C147.633 143.786 148 143.909 148.367 144.278C148.612 144.524 148.857 144.893 148.857 145.386V145.509H147.755V145.386C147.755 145.14 147.633 145.017 147.51 144.893C147.388 144.77 147.266 144.77 147.021 144.77C146.776 144.77 146.531 144.77 146.409 144.893C146.286 144.893 146.286 145.017 146.286 145.14C146.286 145.263 146.286 145.263 146.409 145.386C146.531 145.509 146.653 145.509 147.266 145.755C147.755 145.878 148 146.001 148.245 146.124C148.49 146.247 148.612 146.37 148.735 146.616C148.857 146.862 148.857 147.108 148.857 147.354C148.612 147.6 148.49 147.846 148.367 148.093ZM151.428 148.585H150.326L150.204 144.893H148.857V143.909L152.652 143.786V144.77H151.305L151.428 148.585ZM156.937 147.6C156.57 148.093 156.08 148.339 155.345 148.462C155.223 148.462 155.101 148.462 154.978 148.462C154.488 148.462 153.999 148.339 153.631 147.969C153.142 147.6 152.897 146.985 152.775 146.247C152.775 145.755 152.775 145.386 152.897 145.017C153.019 144.77 153.142 144.524 153.264 144.278C153.387 144.032 153.631 143.909 153.876 143.786C154.121 143.663 154.488 143.54 154.856 143.54C155.59 143.417 156.08 143.663 156.57 144.032C157.059 144.401 157.304 145.017 157.427 145.755C157.427 146.493 157.304 147.108 156.937 147.6ZM163.67 145.386C163.67 145.755 163.548 146.001 163.425 146.37C163.303 146.616 163.058 146.739 162.813 146.862C162.568 146.985 162.323 147.108 162.079 147.108L160.365 147.477L159.263 142.925L160.977 142.556C161.344 142.433 161.589 142.433 161.834 142.433C162.079 142.433 162.446 142.556 162.691 142.679C162.936 142.802 163.18 143.048 163.303 143.294C163.425 143.54 163.548 143.909 163.67 144.278C163.67 144.77 163.67 145.14 163.67 145.386ZM168.2 145.386L164.772 146.493L163.425 141.94H163.548L166.853 140.956L167.098 141.817L164.772 142.556L165.017 143.417L167.22 142.679L167.465 143.54L165.262 144.278L165.629 145.263L168.077 144.524L168.2 145.386ZM171.75 144.032L170.526 141.079C170.403 141.448 170.159 141.694 169.791 141.94L169.669 142.064L169.302 141.202C169.424 141.079 169.669 140.833 169.791 140.587C169.914 140.341 170.036 139.972 170.036 139.726L170.771 139.357L172.607 143.786L171.75 144.032ZM176.28 141.571C176.157 141.94 175.912 142.187 175.423 142.433C175.178 142.556 174.933 142.679 174.566 142.679C174.443 142.679 174.321 142.679 174.198 142.679C173.831 142.556 173.464 142.31 173.219 141.94C173.097 141.694 173.097 141.448 173.097 141.202C173.097 140.956 173.219 140.833 173.342 140.587C173.097 140.587 172.974 140.587 172.852 140.464C172.729 140.341 172.485 140.218 172.485 139.972C172.362 139.603 172.362 139.357 172.485 138.988C172.607 138.618 172.852 138.372 173.219 138.249C173.586 138.003 173.954 138.003 174.321 138.126C174.688 138.249 174.933 138.495 175.055 138.741C175.178 138.988 175.178 139.111 175.178 139.357C175.178 139.48 175.055 139.603 175.055 139.849C175.3 139.849 175.423 139.849 175.668 139.972C175.912 140.095 176.035 140.341 176.157 140.464C176.28 140.71 176.402 141.202 176.28 141.571ZM179.463 139.726C179.34 140.095 179.095 140.464 178.728 140.71C178.483 140.833 178.116 140.956 177.871 140.956C177.749 140.956 177.749 140.956 177.626 140.956C177.137 140.833 176.892 140.71 176.647 140.218C176.525 139.972 176.402 139.726 176.402 139.48C176.402 139.234 176.525 139.111 176.525 138.864C176.28 138.864 176.157 138.864 176.035 138.741C175.912 138.618 175.668 138.495 175.545 138.249C175.423 137.88 175.3 137.634 175.423 137.265C175.545 136.896 175.79 136.65 176.157 136.404C176.525 136.158 176.892 136.158 177.259 136.158C177.626 136.281 177.871 136.404 177.994 136.773C178.116 137.019 178.116 137.142 178.116 137.388C178.116 137.511 178.116 137.757 177.994 137.88C178.238 137.88 178.361 137.88 178.606 138.003C178.851 138.126 178.973 138.249 179.095 138.495C179.463 138.988 179.585 139.357 179.463 139.726ZM181.544 138.741L179.83 136.035C179.708 136.404 179.585 136.773 179.34 137.019L179.218 137.142L178.728 136.281C178.851 136.158 178.973 135.911 179.095 135.542C179.218 135.296 179.218 134.927 179.095 134.681L179.83 134.189L182.401 138.126L181.544 138.741Z" fill="white"/>
<path d="M174.811 140.464C174.688 140.464 174.688 140.464 174.566 140.464C174.443 140.464 174.443 140.464 174.321 140.464C174.199 140.587 174.076 140.71 174.076 140.833C174.076 140.956 174.076 141.202 174.199 141.325C174.321 141.571 174.443 141.694 174.566 141.694C174.688 141.694 174.811 141.694 175.056 141.694C175.178 141.571 175.3 141.571 175.3 141.325C175.3 141.202 175.3 140.956 175.178 140.833C175.178 140.587 175.056 140.464 174.811 140.464Z" fill="white"/>
<path d="M177.259 137.388C177.136 137.265 177.136 137.142 177.014 137.142H176.892C176.769 137.142 176.769 137.142 176.647 137.265C176.524 137.388 176.402 137.388 176.402 137.511C176.402 137.634 176.402 137.757 176.402 137.88C176.524 138.003 176.524 138.126 176.647 138.126C176.769 138.126 176.892 138.126 177.014 138.003C177.136 137.88 177.259 137.88 177.259 137.757C177.381 137.634 177.381 137.511 177.259 137.388Z" fill="white"/>
<path d="M67.5683 183.406H67.8131V183.529H64.2629V183.406H64.5077C64.7526 183.406 64.875 183.283 64.9974 183.16C65.1198 183.037 65.2423 182.79 65.1198 182.667L64.5077 174.424L61.0799 182.175C60.7126 182.79 60.5902 183.406 60.4678 183.898H60.2229L55.9381 174.67L55.2036 182.79C55.2036 182.914 55.2036 183.16 55.326 183.283C55.4485 183.406 55.5709 183.529 55.8157 183.529H56.0606V183.652H53V183.529H53.2448C53.6121 183.529 53.857 183.406 54.1018 183.283C54.3466 183.037 54.4691 182.79 54.4691 182.544L55.6933 171.84H55.8157L60.4678 181.806L64.9974 171.84H65.1198L66.3441 182.544C66.3441 183.037 66.5889 183.283 66.9562 183.529C67.201 183.406 67.4459 183.406 67.5683 183.406Z" fill="white"/>
<path d="M70.384 183.406C70.6289 183.406 70.8737 183.283 71.1185 183.16C71.3634 182.914 71.4858 182.667 71.4858 182.421V173.193C71.4858 172.947 71.3634 172.701 71.1185 172.455C70.8737 172.209 70.6289 172.209 70.384 172.209H70.1392V171.963H73.8118V172.086H73.567C73.3221 172.086 73.0773 172.209 72.8325 172.332C72.5876 172.578 72.4652 172.824 72.4652 173.07V182.298C72.4652 182.544 72.5876 182.791 72.8325 183.037C73.0773 183.283 73.3221 183.283 73.567 183.283H73.8118V183.406H70.1392V183.283H70.384V183.406Z" fill="white"/>
<path d="M88.6251 172.209C88.3802 172.209 88.1354 172.332 87.8905 172.455C87.6457 172.701 87.6457 172.824 87.5233 173.193V181.806C87.5233 182.421 87.5233 183.037 87.6457 183.652V183.898H87.5233L78.464 174.178V182.421C78.464 182.79 78.5864 183.037 78.9537 183.283C79.0761 183.406 79.321 183.406 79.4434 183.406H79.8106V183.529H76.3828V183.406H76.7501C76.9949 183.406 77.2398 183.283 77.4846 183.16C77.7295 182.914 77.7295 182.667 77.7295 182.421V173.808C77.7295 173.193 77.7295 172.578 77.607 171.963V171.717H77.7295L86.7887 181.437V173.193C86.7887 172.947 86.6663 172.701 86.4215 172.455C86.1766 172.209 85.9318 172.209 85.6869 172.209H85.3197V171.963H88.7475V172.086H88.6251V172.209Z" fill="white"/>
<path d="M91.6858 183.406C91.9306 183.406 92.1755 183.283 92.4203 183.16C92.6651 182.914 92.7876 182.667 92.7876 182.421V173.193C92.7876 172.947 92.6651 172.701 92.4203 172.455C92.1755 172.209 91.9306 172.209 91.6858 172.209H91.4409V171.963H95.1136V172.086H94.8687C94.6239 172.086 94.3791 172.209 94.1342 172.332C93.8894 172.578 93.7669 172.824 93.7669 173.07V182.298C93.7669 182.544 93.8894 182.791 94.1342 183.037C94.3791 183.283 94.6239 183.283 94.8687 183.283H95.1136V183.406H91.4409V183.283H91.6858V183.406Z" fill="white"/>
<path d="M98.0518 182.914C98.0518 182.79 98.0518 182.421 98.0518 182.052C98.0518 181.683 98.1742 181.191 98.2966 180.699H98.419C98.419 180.822 98.419 180.945 98.419 181.068C98.419 181.683 98.6639 182.298 99.0311 182.79C99.3984 183.283 100.011 183.406 100.623 183.406C101.357 183.406 101.847 183.16 102.337 182.79C102.826 182.421 102.949 181.806 102.949 181.191C102.949 180.576 102.704 180.084 102.337 179.591L99.1536 176.638C98.5415 176.146 98.2966 175.408 98.2966 174.67C98.2966 173.932 98.5414 173.193 99.0311 172.701C99.5208 172.086 100.255 171.84 101.112 171.84C101.48 171.84 101.969 171.84 102.581 171.963H103.194V174.055H103.071C103.071 173.562 102.949 173.07 102.581 172.824C102.214 172.455 101.724 172.332 101.235 172.332C100.745 172.332 100.255 172.578 99.7657 172.947C99.3984 173.316 99.1536 173.808 99.1536 174.301C99.1536 174.916 99.3984 175.408 99.7657 175.777L103.071 178.853C103.561 179.345 103.928 180.084 103.928 180.945C103.928 181.806 103.683 182.544 103.071 183.16C102.459 183.775 101.724 184.021 100.867 184.021C100.378 184.021 99.8881 183.898 99.276 183.775C98.7863 183.529 98.2966 183.283 98.0518 182.914Z" fill="white"/>
<path d="M115.558 173.439C115.558 173.193 115.436 172.947 115.313 172.701C115.068 172.455 114.946 172.455 114.701 172.455H111.518V182.421C111.518 182.667 111.641 182.913 111.885 183.16C112.13 183.406 112.375 183.406 112.62 183.406H112.865V183.529H109.192V183.406H109.437C109.682 183.406 109.927 183.283 110.172 183.16C110.416 182.913 110.539 182.667 110.539 182.421V172.455H107.356C107.111 172.455 106.866 172.578 106.744 172.701C106.621 172.947 106.499 173.07 106.499 173.439V173.685H106.376V171.594C106.499 171.717 106.866 171.717 107.233 171.84C107.601 171.963 107.968 171.963 108.335 171.963H113.967C114.456 171.963 114.946 171.963 115.313 171.84C115.681 171.717 115.925 171.717 115.925 171.717V173.808H115.803V173.439H115.558Z" fill="white"/>
<path d="M118.251 183.406C118.496 183.406 118.741 183.282 118.986 183.159C119.231 182.913 119.353 182.667 119.353 182.421V173.07C119.353 172.824 119.231 172.578 118.986 172.455C118.741 172.332 118.496 172.209 118.251 172.209H118.006V172.086H122.903C123.393 172.086 123.76 172.086 124.127 171.963C124.495 171.84 124.74 171.84 124.862 171.84V173.931H124.74V173.685C124.74 173.439 124.617 173.193 124.495 172.947C124.372 172.701 124.127 172.701 123.883 172.701H120.455V177.869H123.271C123.515 177.869 123.638 177.746 123.883 177.623C124.005 177.5 124.127 177.253 124.127 177.007V176.761H124.25V179.345H124.005V179.099C124.005 178.853 123.883 178.73 123.76 178.484C123.638 178.361 123.393 178.238 123.148 178.238H120.332V183.159H122.781C123.638 183.159 124.25 183.036 124.617 182.667C125.107 182.298 125.352 181.806 125.719 181.068H125.841L124.862 183.775H118.006V183.652H118.251V183.406ZM122.046 170.978C122.781 169.994 123.515 169.256 124.005 168.641C124.25 168.887 124.495 169.256 124.74 169.502C124.005 169.994 123.026 170.363 122.046 170.978Z" fill="white"/>
<path d="M131.84 172.455H130.738V182.298C130.738 182.544 130.861 182.791 130.983 183.037C131.228 183.283 131.473 183.283 131.718 183.283H131.963V183.406H128.29V183.283H128.535C128.78 183.283 129.025 183.16 129.269 183.037C129.514 182.791 129.637 182.544 129.637 182.298V173.193C129.637 172.947 129.514 172.701 129.269 172.455C129.025 172.209 128.78 172.209 128.535 172.209H128.29V171.963H132.697C133.677 171.963 134.534 172.209 135.023 172.824C135.635 173.439 135.88 174.055 135.88 175.039C135.88 175.9 135.635 176.761 135.023 177.377C134.534 177.992 133.799 178.361 133.065 178.361C133.187 178.484 133.432 178.607 133.677 178.853C133.921 179.099 134.044 179.345 134.289 179.591C135.268 180.945 135.88 181.806 136.125 182.052C136.37 182.421 136.615 182.544 136.737 182.667C136.86 182.791 136.982 182.914 137.104 183.037C137.227 183.16 137.349 183.283 137.594 183.283C137.961 183.406 138.206 183.529 138.574 183.529V183.652H137.717C137.227 183.652 136.86 183.529 136.37 183.406C136.003 183.283 135.635 183.037 135.513 182.914C135.268 182.791 135.146 182.544 135.023 182.421C134.901 182.298 134.411 181.683 133.799 180.699C133.187 179.714 132.697 179.222 132.575 178.976C132.452 178.853 132.33 178.73 132.208 178.607C131.84 178.238 131.473 177.992 131.106 177.992V177.869C131.228 177.869 131.351 177.869 131.473 177.869C131.595 177.869 131.84 177.869 131.963 177.869C133.309 177.869 134.166 177.254 134.534 176.146C134.656 175.9 134.656 175.777 134.656 175.531C134.656 175.285 134.656 175.162 134.656 175.162C134.656 174.424 134.411 173.809 134.044 173.316C133.677 172.824 133.187 172.578 132.575 172.578C132.575 172.578 132.208 172.455 131.84 172.455Z" fill="white"/>
<path d="M140.287 183.406C140.532 183.406 140.777 183.283 141.022 183.16C141.267 182.914 141.389 182.667 141.389 182.421V173.193C141.389 172.947 141.267 172.701 141.022 172.455C140.777 172.209 140.532 172.209 140.287 172.209H140.042V171.963H143.715V172.086H143.47C143.225 172.086 142.981 172.209 142.736 172.332C142.491 172.578 142.369 172.824 142.369 173.07V182.298C142.369 182.544 142.491 182.791 142.736 183.037C142.981 183.283 143.225 183.283 143.47 183.283H143.715V183.406H140.042V183.283H140.287V183.406Z" fill="white"/>
<path d="M148.122 173.439C149.224 172.332 150.693 171.717 152.407 171.717C154.121 171.717 155.59 172.332 156.692 173.439C157.794 174.547 158.406 176.023 158.406 177.869C158.406 179.714 157.794 181.191 156.692 182.298C155.59 183.406 154.121 184.021 152.407 184.021C150.693 184.021 149.224 183.406 148.122 182.298C147.02 181.191 146.531 179.714 146.531 177.869C146.531 176.023 147.02 174.547 148.122 173.439ZM149.102 181.806C149.959 182.79 151.06 183.283 152.529 183.283C153.999 183.283 155.1 182.79 155.957 181.806C156.814 180.822 157.182 179.468 157.182 177.746C157.182 176.638 156.937 175.654 156.569 174.793C156.202 173.932 155.59 173.316 154.978 172.824C154.243 172.332 153.509 172.086 152.529 172.086C151.183 172.086 149.959 172.578 149.102 173.562C148.245 174.547 147.877 175.9 147.877 177.623C147.755 179.468 148.245 180.822 149.102 181.806Z" fill="white"/>
<path d="M174.076 175.162C174.076 175.654 173.953 176.146 173.831 176.515C173.464 177.254 172.852 177.869 171.872 178.115C171.505 178.238 171.26 178.238 171.015 178.238C170.281 178.238 169.791 178.115 169.301 177.869V177.746C170.158 177.869 170.893 177.869 171.505 177.5C172.117 177.131 172.484 176.638 172.729 176.023C172.852 175.777 172.852 175.531 172.852 175.408C172.852 175.162 172.852 175.039 172.852 175.039C172.852 174.301 172.607 173.685 172.24 173.193C171.872 172.701 171.26 172.455 170.648 172.455H168.689V182.421C168.689 182.667 168.812 182.914 169.057 183.16C169.301 183.406 169.546 183.406 169.791 183.406H170.036V183.529H166.363V183.406H166.608C166.853 183.406 167.098 183.283 167.343 183.16C167.588 182.914 167.71 182.667 167.71 182.421V173.193C167.71 172.947 167.588 172.701 167.343 172.455C167.098 172.332 166.853 172.209 166.608 172.209H166.363V172.086H170.648C171.75 172.086 172.484 172.332 173.097 172.947C173.709 173.439 174.076 174.178 174.076 175.162Z" fill="white"/>
<path d="M188.032 172.209H187.787C187.543 172.209 187.298 172.332 187.175 172.455C187.053 172.578 186.93 172.824 186.93 173.07V179.591C186.93 180.945 186.563 181.929 185.706 182.79C184.849 183.529 183.747 184.021 182.401 184.021C181.054 184.021 179.952 183.652 179.095 182.79C178.238 182.052 177.871 180.945 177.871 179.714V173.193C177.871 172.947 177.749 172.824 177.626 172.578C177.504 172.455 177.259 172.332 177.014 172.332H176.647V171.963H179.952V172.086H179.708C179.34 172.086 179.095 172.209 178.973 172.455C178.851 172.578 178.851 172.701 178.851 172.824V179.222C178.851 180.453 179.218 181.437 179.83 182.175C180.442 182.913 181.299 183.282 182.401 183.282C183.503 183.282 184.36 182.913 185.094 182.175C185.706 181.437 186.074 180.576 186.074 179.468V172.947C186.074 172.578 185.829 172.332 185.584 172.209C185.461 172.209 185.339 172.086 185.217 172.086H184.972V171.963H188.032V172.209ZM182.523 170.978C183.258 169.994 183.992 169.256 184.482 168.641C184.727 168.887 184.972 169.256 185.094 169.502C184.482 169.994 183.625 170.363 182.523 170.978Z" fill="white"/>
<path d="M194.643 183.652H190.603V183.529H190.848C191.093 183.529 191.338 183.406 191.582 183.283C191.827 183.037 191.95 182.79 191.95 182.544V173.193C191.95 172.947 191.827 172.701 191.582 172.455C191.338 172.209 191.093 172.209 190.848 172.209H190.603V172.086H193.908C195.01 172.086 195.867 172.332 196.602 172.824C197.214 173.316 197.581 174.055 197.581 174.793C197.581 175.408 197.459 176.023 197.091 176.392C196.724 176.885 196.357 177.131 195.745 177.254C196.602 177.377 197.336 177.746 197.826 178.361C198.316 178.976 198.561 179.714 198.561 180.576C198.561 181.437 198.193 182.175 197.581 182.79C196.847 183.406 195.867 183.652 194.643 183.652ZM192.929 183.037H194.521C195.378 183.037 195.99 182.79 196.479 182.298C196.969 181.806 197.214 181.191 197.214 180.33C197.214 179.838 197.091 179.468 196.969 179.099C196.847 178.73 196.602 178.484 196.357 178.238C195.745 177.746 194.765 177.5 193.541 177.5V177.377H193.664C193.786 177.377 193.908 177.377 194.031 177.377C194.153 177.377 194.398 177.377 194.643 177.254C194.888 177.254 195.01 177.131 195.255 177.008C195.378 176.885 195.622 176.761 195.745 176.515C196.112 176.146 196.234 175.654 196.234 174.916C196.234 174.178 195.99 173.562 195.622 173.193C195.255 172.824 194.643 172.578 193.786 172.578H192.929V183.037Z" fill="white"/>
<path d="M201.376 183.406C201.621 183.406 201.866 183.283 202.111 183.16C202.356 182.914 202.478 182.667 202.478 182.421V173.193C202.478 172.947 202.356 172.701 202.111 172.455C201.866 172.209 201.621 172.209 201.376 172.209H201.131V171.963H204.804V172.086H204.559C204.192 172.086 203.825 172.209 203.702 172.578C203.58 172.701 203.58 172.947 203.58 173.07V182.914H205.906C206.763 182.914 207.375 182.79 207.742 182.421C208.232 182.052 208.477 181.56 208.844 180.822H208.966L207.987 183.529H201.131V183.406H201.376Z" fill="white"/>
<path d="M211.415 183.406C211.66 183.406 211.904 183.283 212.149 183.16C212.394 182.914 212.517 182.667 212.517 182.421V173.193C212.517 172.947 212.394 172.701 212.149 172.455C211.904 172.209 211.66 172.209 211.415 172.209H211.17V171.963H214.843V172.086H214.598C214.353 172.086 214.108 172.209 213.863 172.332C213.618 172.578 213.496 172.824 213.496 173.07V182.298C213.496 182.544 213.618 182.791 213.863 183.037C214.108 183.283 214.353 183.283 214.598 183.283H214.843V183.406H211.17V183.283H211.415V183.406Z" fill="white"/>
<path d="M219.005 182.175C217.903 181.068 217.414 179.591 217.414 177.746C217.414 175.9 217.903 174.424 219.005 173.316C220.107 172.209 221.576 171.594 223.412 171.594C224.881 171.594 226.228 171.963 227.33 172.701L227.697 175.039H227.575C227.33 174.055 226.84 173.316 226.106 172.824C225.371 172.332 224.514 172.086 223.535 172.086C222.066 172.086 220.964 172.578 220.107 173.562C219.25 174.547 218.76 175.9 218.76 177.623C218.76 179.345 219.127 180.576 219.984 181.683C220.841 182.667 221.943 183.16 223.412 183.283C224.637 183.283 225.616 182.914 226.473 182.298C227.33 181.56 227.942 180.33 228.064 178.73H228.187L227.942 181.314C226.963 182.914 225.371 183.775 223.29 183.775C221.576 183.898 220.107 183.283 219.005 182.175Z" fill="white"/>
<path d="M232.716 173.439C233.818 172.332 235.287 171.717 237.001 171.717C238.715 171.717 240.184 172.332 241.286 173.439C242.388 174.547 243 176.023 243 177.869C243 179.714 242.388 181.191 241.286 182.298C240.184 183.406 238.715 184.021 237.001 184.021C235.287 184.021 233.818 183.406 232.716 182.298C231.615 181.191 231.125 179.714 231.125 177.869C231.125 176.023 231.615 174.547 232.716 173.439ZM233.696 181.806C234.553 182.79 235.655 183.283 237.124 183.283C238.47 183.283 239.695 182.79 240.552 181.806C241.409 180.822 241.776 179.468 241.776 177.746C241.776 176.638 241.531 175.654 241.164 174.793C240.796 173.932 240.184 173.316 239.572 172.824C238.838 172.332 238.103 172.086 237.124 172.086C235.777 172.086 234.553 172.578 233.696 173.562C232.839 174.547 232.472 175.9 232.472 177.623C232.349 179.468 232.839 180.822 233.696 181.806Z" fill="white"/>
<path d="M80.5451 193.249C81.402 194.11 81.7693 195.095 81.7693 196.448C81.7693 197.801 81.402 198.786 80.5451 199.647C79.6881 200.508 78.7087 200.877 77.3621 200.877H73.1997V200.754H73.3221C73.567 200.754 73.6894 200.631 73.9342 200.508C74.0567 200.385 74.1791 200.139 74.1791 199.893V192.88C74.1791 192.634 74.0567 192.511 73.9342 192.388C73.8118 192.265 73.567 192.142 73.3221 192.142H73.1997V192.019H77.3621C78.5863 192.019 79.6881 192.388 80.5451 193.249ZM74.9136 192.388V200.385H77.3621C78.0966 200.385 78.7087 200.262 79.1984 199.893C79.6881 199.524 80.1778 199.032 80.4226 198.54C80.6675 197.924 80.9123 197.186 80.9123 196.448C80.9123 195.218 80.5451 194.233 79.933 193.495C79.3208 192.757 78.4639 192.388 77.3621 192.388H74.9136Z" fill="white"/>
<path d="M84.5851 193.126C85.442 192.265 86.4214 191.896 87.7681 191.896C89.1147 191.896 90.2165 192.265 90.951 193.126C91.808 193.987 92.1753 195.095 92.1753 196.448C92.1753 197.801 91.808 198.909 90.951 199.77C90.0941 200.631 88.9923 201.001 87.7681 201.001C86.4214 201.001 85.3196 200.631 84.5851 199.77C83.7281 198.909 83.3608 197.801 83.3608 196.448C83.3608 195.095 83.7281 193.987 84.5851 193.126ZM85.3196 199.401C85.9317 200.139 86.7887 200.508 87.8905 200.508C88.9923 200.508 89.8492 200.139 90.4614 199.401C91.0735 198.663 91.4407 197.678 91.4407 196.325C91.4407 195.464 91.3183 194.725 90.951 194.11C90.7062 193.495 90.2165 193.003 89.7268 192.634C89.2371 192.265 88.625 192.142 87.8905 192.142C86.7887 192.142 86.0541 192.511 85.3196 193.249C84.7075 193.987 84.3402 194.972 84.3402 196.325C84.3402 197.678 84.5851 198.663 85.3196 199.401Z" fill="white"/>
<path d="M97.1944 200.631C97.4393 200.631 97.5617 200.508 97.8065 200.385C97.929 200.262 98.0514 200.016 98.0514 199.77V192.88C98.0514 192.634 97.929 192.511 97.8065 192.388C97.6841 192.265 97.4393 192.142 97.3168 192.142H97.1944V192.019H100.867C101.112 192.019 101.357 192.019 101.724 191.895C101.969 191.895 102.214 191.772 102.336 191.772V193.372H101.969V193.126C101.969 192.88 101.846 192.757 101.724 192.634C101.602 192.511 101.479 192.388 101.234 192.388H98.6635V196.202H100.745C100.867 196.202 100.99 196.079 101.112 195.956C101.234 195.833 101.234 195.71 101.234 195.464V195.341H101.357V197.309H101.234V197.063C101.234 196.94 101.234 196.817 101.112 196.694C100.99 196.571 100.867 196.571 100.745 196.448H98.6635V200.139H100.377C100.99 200.139 101.479 200.016 101.724 199.77C102.091 199.524 102.336 199.032 102.581 198.54H102.703L101.969 200.508H96.8271V200.385H97.1944V200.631Z" fill="white"/>
<path d="M104.295 200.262C104.295 200.139 104.295 199.893 104.295 199.647C104.295 199.278 104.417 198.909 104.54 198.54H104.662C104.662 198.663 104.662 198.663 104.662 198.786C104.662 199.278 104.785 199.77 105.152 200.016C105.397 200.385 105.886 200.508 106.376 200.508C106.866 200.508 107.355 200.385 107.6 200.016C107.968 199.647 108.09 199.278 108.09 198.786C108.09 198.294 107.968 197.925 107.6 197.678L105.274 195.464C104.785 195.095 104.662 194.602 104.662 193.987C104.662 193.372 104.907 192.88 105.274 192.511C105.642 192.142 106.254 191.896 106.866 191.896C107.233 191.896 107.478 191.896 107.968 192.019H108.457V193.495H108.09C108.09 193.126 107.968 192.757 107.723 192.511C107.478 192.265 107.111 192.142 106.743 192.142C106.376 192.142 106.009 192.265 105.642 192.511C105.397 192.757 105.274 193.126 105.274 193.618C105.274 193.987 105.397 194.356 105.764 194.725L108.212 196.94C108.58 197.309 108.825 197.801 108.825 198.54C108.825 199.155 108.58 199.77 108.212 200.139C107.845 200.508 107.233 200.754 106.499 200.754C106.131 200.754 105.764 200.754 105.397 200.631C104.785 200.631 104.54 200.508 104.295 200.262Z" fill="white"/>
<path d="M116.905 193.126C116.905 192.88 116.782 192.757 116.66 192.634C116.538 192.511 116.415 192.388 116.17 192.388H113.844V199.893C113.844 200.139 113.967 200.262 114.089 200.385C114.212 200.508 114.456 200.631 114.701 200.631H114.824V200.754H112.13V200.631H112.253C112.498 200.631 112.62 200.508 112.865 200.385C112.987 200.262 113.11 200.016 113.11 199.893V192.388H110.784C110.539 192.388 110.416 192.511 110.294 192.634C110.172 192.757 110.049 193.003 110.049 193.126V193.372H109.927V191.772C110.049 191.772 110.294 191.895 110.539 191.895C110.784 191.895 111.151 192.019 111.396 192.019H115.436C115.803 192.019 116.17 192.019 116.415 191.895C116.66 191.772 116.905 191.772 116.905 191.772V193.372H116.782V193.126H116.905Z" fill="white"/>
<path d="M125.352 200.631L125.474 200.754H122.659V200.631H122.781C122.903 200.631 123.026 200.631 123.148 200.508C123.271 200.385 123.271 200.262 123.271 200.139C123.271 200.016 123.271 199.893 123.271 199.893L122.536 197.801H119.108L118.251 199.893C118.251 200.016 118.251 200.139 118.251 200.139C118.251 200.262 118.251 200.385 118.374 200.508C118.496 200.631 118.619 200.631 118.741 200.631H118.863V200.754H116.415V200.631H116.537C116.782 200.631 116.905 200.508 117.15 200.385C117.394 200.262 117.517 200.016 117.639 199.77L120.455 193.003C120.7 192.388 120.945 191.896 120.945 191.772H121.067L124.373 199.77C124.495 200.016 124.617 200.262 124.862 200.385C124.985 200.631 125.107 200.631 125.352 200.631ZM119.231 197.432H122.291L120.822 193.372L119.231 197.432Z" fill="white"/>
<path d="M133.554 193.249C134.411 194.11 134.778 195.095 134.778 196.448C134.778 197.801 134.411 198.786 133.554 199.647C132.697 200.508 131.718 200.877 130.371 200.877H126.208V200.754H126.331C126.576 200.754 126.698 200.631 126.943 200.508C127.065 200.385 127.188 200.139 127.188 199.893V192.88C127.188 192.634 127.065 192.511 126.943 192.388C126.821 192.265 126.576 192.142 126.331 192.142H126.208V192.019H130.371C131.718 192.019 132.819 192.388 133.554 193.249ZM127.922 192.388V200.385H130.371C131.105 200.385 131.718 200.262 132.207 199.893C132.697 199.524 133.187 199.032 133.431 198.54C133.676 197.924 133.921 197.186 133.921 196.448C133.921 195.218 133.554 194.233 132.942 193.495C132.33 192.757 131.473 192.388 130.371 192.388H127.922Z" fill="white"/>
<path d="M137.716 193.126C138.573 192.265 139.553 191.896 140.899 191.896C142.246 191.896 143.348 192.265 144.082 193.126C144.939 193.987 145.307 195.095 145.307 196.448C145.307 197.801 144.939 198.909 144.082 199.77C143.225 200.631 142.124 201.001 140.899 201.001C139.553 201.001 138.451 200.631 137.716 199.77C136.859 198.909 136.492 197.801 136.492 196.448C136.492 195.095 136.859 193.987 137.716 193.126ZM138.329 199.401C138.941 200.139 139.798 200.508 140.899 200.508C142.001 200.508 142.858 200.139 143.47 199.401C144.082 198.663 144.45 197.678 144.45 196.325C144.45 195.464 144.327 194.725 143.96 194.11C143.715 193.495 143.225 193.003 142.736 192.634C142.246 192.265 141.634 192.142 140.899 192.142C139.798 192.142 139.063 192.511 138.329 193.249C137.716 193.987 137.349 194.972 137.349 196.325C137.349 197.678 137.716 198.663 138.329 199.401Z" fill="white"/>
<path d="M157.426 193.249C158.283 194.11 158.651 195.095 158.651 196.448C158.651 197.801 158.283 198.786 157.426 199.647C156.569 200.508 155.59 200.877 154.243 200.877H150.081V200.754H150.203C150.448 200.754 150.571 200.631 150.816 200.508C150.938 200.385 151.06 200.139 151.06 199.893V192.88C151.06 192.634 150.938 192.511 150.816 192.388C150.693 192.265 150.448 192.142 150.203 192.142H150.081V192.019H154.243C155.59 192.019 156.692 192.388 157.426 193.249ZM151.795 192.388V200.385H154.243C154.978 200.385 155.59 200.262 156.08 199.893C156.569 199.524 157.059 199.032 157.304 198.54C157.549 197.924 157.794 197.186 157.794 196.448C157.794 195.218 157.426 194.233 156.814 193.495C156.202 192.757 155.345 192.388 154.243 192.388H151.795Z" fill="white"/>
<path d="M167.833 200.631L167.955 200.754H165.139V200.631H165.262C165.384 200.631 165.506 200.631 165.629 200.508C165.751 200.385 165.751 200.262 165.751 200.139C165.751 200.016 165.751 199.893 165.751 199.893L165.017 197.801H161.711L160.854 199.893C160.854 200.016 160.854 200.139 160.854 200.139C160.854 200.262 160.854 200.385 160.977 200.508C161.099 200.631 161.222 200.631 161.344 200.631H161.467V200.754H159.018V200.631H159.14C159.385 200.631 159.508 200.508 159.753 200.385C159.997 200.262 160.12 200.016 160.242 199.77L163.058 193.003C163.303 192.388 163.548 191.896 163.548 191.772H163.67L166.976 199.77C167.098 200.016 167.22 200.262 167.465 200.385C167.465 200.631 167.71 200.631 167.833 200.631ZM161.834 197.432H164.894L163.425 193.372L161.834 197.432Z" fill="white"/>
<path d="M177.748 194.479C177.748 194.848 177.626 195.218 177.504 195.464C177.259 196.079 176.769 196.448 176.035 196.694C175.79 196.817 175.545 196.817 175.422 196.817C174.933 196.817 174.443 196.694 174.076 196.571V196.448C174.688 196.571 175.178 196.571 175.79 196.202C176.279 195.956 176.524 195.587 176.769 195.095C176.769 194.972 176.892 194.725 176.892 194.602C176.892 194.479 176.892 194.356 176.892 194.356C176.892 193.741 176.769 193.372 176.402 193.003C176.157 192.634 175.667 192.511 175.178 192.511H173.709V200.016C173.709 200.262 173.831 200.385 173.953 200.631C174.076 200.754 174.321 200.877 174.566 200.877H174.688V201.001H171.995V200.877H172.117C172.362 200.877 172.484 200.754 172.729 200.631C172.852 200.508 172.974 200.262 172.974 200.016V192.88C172.974 192.634 172.852 192.511 172.729 192.388C172.607 192.265 172.362 192.142 172.239 192.142H172.117V192.019H175.3C176.035 192.019 176.769 192.265 177.136 192.634C177.504 193.126 177.748 193.741 177.748 194.479Z" fill="white"/>
<path d="M186.441 200.631L186.563 200.754H183.748V200.631H183.87C183.992 200.631 184.115 200.631 184.237 200.508C184.36 200.385 184.36 200.262 184.36 200.139C184.36 200.016 184.36 199.893 184.36 199.893L183.625 197.801H180.32L179.463 199.893C179.463 200.016 179.463 200.139 179.463 200.139C179.463 200.262 179.463 200.385 179.585 200.508C179.708 200.631 179.83 200.631 179.952 200.631H180.075V200.754H177.626V200.631H177.749C177.994 200.631 178.116 200.508 178.361 200.385C178.606 200.262 178.728 200.016 178.851 199.77L181.666 193.003C181.911 192.388 182.156 191.896 182.156 191.772H182.279L185.584 199.77C185.706 200.016 185.829 200.262 186.074 200.385C186.074 200.631 186.318 200.631 186.441 200.631ZM180.442 197.432H183.503L182.034 193.372L180.442 197.432Z" fill="white"/>
<path d="M189.868 192.388H189.134V199.77C189.134 200.016 189.256 200.139 189.379 200.385C189.501 200.508 189.746 200.631 189.991 200.631H190.113V200.754H187.42V200.631H187.542C187.787 200.631 187.91 200.508 188.154 200.385C188.277 200.262 188.399 200.016 188.399 199.893V193.003C188.399 192.757 188.277 192.634 188.154 192.388C188.032 192.265 187.787 192.142 187.542 192.142H187.42V192.019H190.725C191.46 192.019 192.072 192.265 192.439 192.634C192.929 193.003 193.051 193.618 193.051 194.233C193.051 194.848 192.807 195.464 192.439 195.956C192.072 196.448 191.582 196.694 190.97 196.694C191.093 196.694 191.215 196.817 191.46 197.063C191.582 197.186 191.827 197.432 191.95 197.555C192.684 198.54 193.174 199.155 193.296 199.401C193.541 199.647 193.663 199.77 193.786 199.893C193.908 200.016 194.031 200.016 194.031 200.139C194.153 200.262 194.276 200.262 194.398 200.385C194.643 200.508 194.888 200.508 195.133 200.508V200.631H194.398C194.031 200.631 193.663 200.508 193.419 200.385C193.174 200.262 192.929 200.139 192.684 200.016C192.562 199.893 192.439 199.77 192.317 199.647C192.194 199.524 191.95 199.032 191.337 198.417C190.848 197.678 190.48 197.309 190.48 197.186C190.358 197.063 190.358 196.94 190.236 196.94C189.991 196.694 189.746 196.571 189.501 196.571V196.448C189.624 196.448 189.624 196.448 189.746 196.448C189.868 196.448 189.991 196.448 190.113 196.448C191.093 196.448 191.827 195.956 192.072 195.095C192.072 194.972 192.194 194.725 192.194 194.602C192.194 194.479 192.194 194.356 192.194 194.356C192.194 193.741 192.072 193.372 191.705 193.003C191.46 192.634 191.093 192.511 190.603 192.511C190.358 192.388 190.113 192.388 189.868 192.388Z" fill="white"/>
<path d="M203.58 200.631L203.702 200.754H200.887V200.631H201.009C201.132 200.631 201.254 200.631 201.376 200.508C201.499 200.385 201.499 200.262 201.499 200.139C201.499 200.016 201.499 199.893 201.499 199.893L200.764 197.801H197.459L196.602 199.893C196.602 200.016 196.602 200.139 196.602 200.139C196.602 200.262 196.602 200.385 196.724 200.508C196.847 200.631 196.969 200.631 197.092 200.631H197.214V200.754H194.766V200.631H194.888C195.133 200.631 195.255 200.508 195.5 200.385C195.745 200.262 195.867 200.016 195.99 199.77L198.806 193.003C199.05 192.388 199.295 191.896 199.295 191.772H199.418L202.723 199.77C202.846 200.016 202.968 200.262 203.213 200.385C203.213 200.631 203.335 200.631 203.58 200.631ZM197.459 197.432H200.519L199.05 193.372L197.459 197.432Z" fill="white"/>
<path d="M204.559 200.631C204.804 200.631 204.927 200.508 205.172 200.385C205.294 200.262 205.416 200.016 205.416 199.77V192.88C205.416 192.634 205.294 192.511 205.172 192.388C205.049 192.265 204.804 192.141 204.559 192.141H204.437V192.018H207.13V192.141H207.008C206.763 192.141 206.641 192.265 206.396 192.388C206.273 192.511 206.151 192.757 206.151 192.88V199.77C206.151 200.016 206.273 200.139 206.396 200.385C206.518 200.508 206.763 200.631 207.008 200.631H207.13V200.754H204.437V200.631H204.559ZM205.784 191.28C206.273 190.542 206.885 189.927 207.253 189.558C207.498 189.804 207.62 190.05 207.742 190.173C207.253 190.542 206.518 190.911 205.784 191.28Z" fill="white"/>
<path d="M211.782 200.754H208.722V200.631H208.844C209.089 200.631 209.211 200.508 209.456 200.385C209.579 200.262 209.701 200.016 209.701 199.893V193.003C209.701 192.757 209.579 192.634 209.456 192.511C209.334 192.388 209.089 192.265 208.844 192.265H208.722V192.142H211.17C212.027 192.142 212.639 192.388 213.129 192.757C213.619 193.126 213.863 193.618 213.863 194.233C213.863 194.725 213.741 195.095 213.496 195.464C213.251 195.833 212.884 195.956 212.517 196.079C213.129 196.202 213.741 196.448 214.108 196.94C214.476 197.432 214.72 197.925 214.72 198.663C214.72 199.401 214.476 199.893 213.986 200.262C213.374 200.508 212.639 200.754 211.782 200.754ZM210.436 200.385H211.66C212.272 200.385 212.762 200.262 213.129 199.893C213.496 199.524 213.619 199.032 213.619 198.417C213.619 198.048 213.619 197.801 213.496 197.432C213.374 197.186 213.251 196.94 213.006 196.817C212.517 196.448 211.782 196.202 210.803 196.202V196.079C210.803 196.079 210.803 196.079 210.925 196.079C211.048 196.079 211.048 196.079 211.17 196.079C211.293 196.079 211.415 196.079 211.66 195.956C211.782 195.956 212.027 195.833 212.15 195.71C212.272 195.587 212.394 195.464 212.517 195.341C212.762 195.095 212.884 194.602 212.884 194.11C212.884 193.618 212.762 193.126 212.394 192.88C212.027 192.634 211.66 192.388 211.048 192.388H210.436V200.385Z" fill="white"/>
<path d="M224.269 200.631L224.392 200.754H221.576V200.631H221.699C221.821 200.631 221.943 200.631 222.066 200.508C222.188 200.385 222.188 200.262 222.188 200.139C222.188 200.016 222.188 199.893 222.188 199.893L221.454 197.801H218.148L217.291 199.893C217.291 200.016 217.291 200.139 217.291 200.139C217.291 200.262 217.291 200.385 217.414 200.508C217.536 200.631 217.659 200.631 217.781 200.631H217.904V200.754H215.455V200.631H215.578C215.822 200.631 215.945 200.508 216.19 200.385C216.434 200.262 216.557 200.016 216.679 199.77L219.495 193.003C219.74 192.388 219.985 191.896 219.985 191.772H220.107L223.413 199.77C223.535 200.016 223.657 200.262 223.902 200.385C223.902 200.631 224.025 200.631 224.269 200.631ZM218.148 197.432H221.209L219.74 193.372L218.148 197.432Z" fill="white"/>
</svg>
