<svg width="295" height="245" viewBox="0 0 295 245" fill="none" xmlns="http://www.w3.org/2000/svg">
<g filter="url(#filter0_d)">
<path d="M177.866 134.057V137.971C177.866 138.411 177.963 138.656 178.205 138.753C178.351 138.802 178.545 138.851 178.787 138.851V139.243H176.557V138.851H176.605C176.848 138.851 176.993 138.802 177.139 138.705C177.284 138.607 177.332 138.411 177.332 138.166V133.422C177.139 133.275 176.896 133.177 176.605 133.177V132.786H178.496L182.278 137.188V134.057C182.278 133.568 182.181 133.324 181.987 133.226C181.841 133.177 181.696 133.177 181.405 133.177H181.308V132.786H183.684V133.177H183.587C183.344 133.177 183.199 133.226 183.053 133.226C182.908 133.324 182.811 133.47 182.811 133.666V139.194H182.326L177.866 134.057ZM169.284 135.623C169.284 136.601 169.478 137.384 169.915 138.02C170.303 138.656 170.836 138.949 171.515 138.949C172.339 138.949 172.872 138.509 173.212 137.628C173.357 137.237 173.405 136.748 173.405 136.259C173.405 135.378 173.212 134.596 172.872 134.009C172.484 133.373 171.951 133.03 171.272 133.03C170.497 133.03 169.915 133.422 169.575 134.253C169.381 134.644 169.284 135.085 169.284 135.623ZM167.927 136.112C167.927 135.085 168.266 134.253 168.897 133.568C169.575 132.883 170.4 132.59 171.418 132.59C172.387 132.59 173.163 132.883 173.793 133.519C174.424 134.155 174.714 134.938 174.714 135.916C174.714 136.65 174.521 137.335 174.181 137.873C173.793 138.46 173.308 138.851 172.727 139.096C172.29 139.291 171.806 139.389 171.272 139.389C170.642 139.389 170.109 139.243 169.575 138.998C169.042 138.705 168.606 138.313 168.315 137.726C168.024 137.237 167.927 136.699 167.927 136.112ZM163.176 133.177V132.786H166.085V133.177H165.939C165.454 133.177 165.261 133.422 165.261 133.96V138.069C165.261 138.362 165.309 138.558 165.454 138.656C165.551 138.753 165.745 138.802 165.988 138.802H166.133V139.194H163.176V138.802H163.321C163.758 138.802 164 138.558 164 138.069V133.911C164 133.617 163.952 133.422 163.855 133.324C163.758 133.226 163.564 133.128 163.321 133.128L163.176 133.177ZM159.103 133.324V138.069C159.103 138.362 159.152 138.607 159.297 138.705C159.394 138.802 159.588 138.851 159.879 138.851H160.121V139.243H156.825V138.851H157.116C157.6 138.851 157.843 138.607 157.843 138.069V133.324H156.776C156.534 133.324 156.388 133.324 156.291 133.373C156.146 133.422 156 133.519 155.952 133.715C155.904 133.862 155.807 134.155 155.758 134.547H155.37L155.516 132.59H155.807C155.904 132.688 155.952 132.737 156 132.737C156.049 132.737 156.146 132.786 156.291 132.786H160.703C160.897 132.786 161.043 132.737 161.14 132.59H161.43L161.576 134.547H161.188C161.14 134.204 161.091 134.009 161.091 133.911C160.994 133.666 160.897 133.47 160.752 133.422C160.655 133.373 160.461 133.324 160.218 133.324H159.103ZM151.055 136.259L150.231 133.813L149.455 136.259H151.055ZM151.249 136.846H149.213L148.825 138.069C148.728 138.362 148.728 138.558 148.825 138.656C148.922 138.753 149.165 138.851 149.552 138.851H149.649V139.243H147.225V138.851H147.371C147.613 138.851 147.807 138.753 147.953 138.558C148.049 138.411 148.146 138.215 148.243 137.873L149.795 132.932L149.698 132.639H151.055L152.898 137.922C152.995 138.215 153.092 138.46 153.237 138.558C153.382 138.705 153.576 138.802 153.819 138.851V139.243H150.813V138.851H151.152C151.443 138.851 151.589 138.802 151.686 138.656C151.734 138.509 151.734 138.313 151.637 138.069L151.249 136.846ZM140.777 133.177V138.02C140.777 138.362 140.826 138.607 140.923 138.656C141.02 138.753 141.214 138.802 141.601 138.802C142.523 138.802 143.25 138.509 143.686 137.873C144.026 137.335 144.219 136.748 144.219 135.965C144.219 135.085 143.977 134.351 143.541 133.862C143.104 133.373 142.426 133.128 141.553 133.128C141.262 133.128 141.02 133.128 140.777 133.177ZM138.644 133.177V132.786C138.838 132.786 139.08 132.737 139.323 132.737L139.759 132.688C139.808 132.688 139.905 132.688 140.147 132.639C140.632 132.59 141.068 132.59 141.407 132.59C142.62 132.59 143.492 132.737 144.026 132.981C144.656 133.324 145.141 133.862 145.383 134.547C145.528 134.938 145.577 135.329 145.577 135.77C145.577 136.65 145.286 137.433 144.704 138.118C144.074 138.802 143.056 139.194 141.601 139.194H138.693V138.802C138.983 138.802 139.177 138.753 139.323 138.705C139.468 138.607 139.565 138.411 139.565 138.118V134.106C139.565 133.617 139.468 133.373 139.274 133.275C139.08 133.177 138.886 133.177 138.644 133.177ZM131.372 134.057V137.971C131.372 138.411 131.469 138.656 131.711 138.753C131.857 138.802 132.051 138.851 132.244 138.851V139.243H130.014V138.851H130.063C130.305 138.851 130.451 138.802 130.596 138.705C130.742 138.607 130.79 138.411 130.79 138.166V133.422C130.596 133.275 130.354 133.177 130.063 133.177V132.786H131.954L135.735 137.188V134.057C135.735 133.568 135.638 133.324 135.444 133.226C135.299 133.177 135.153 133.177 134.862 133.177H134.765V132.786H137.141V133.177H137.044C136.802 133.177 136.608 133.226 136.511 133.275C136.365 133.373 136.268 133.519 136.268 133.715V139.243H135.735L131.372 134.057ZM126.281 133.177V132.786H128.657V133.177H128.608C128.317 133.177 128.075 133.226 127.978 133.373C127.833 133.519 127.784 133.715 127.784 134.057V136.601C127.784 137.531 127.542 138.215 127.105 138.656C126.669 139.096 126.039 139.34 125.215 139.34C124.439 139.34 123.809 139.145 123.324 138.802C122.79 138.411 122.5 137.775 122.5 136.944V133.862C122.5 133.568 122.451 133.422 122.354 133.324C122.257 133.226 122.112 133.177 121.869 133.177H121.724V132.786H124.584V133.177H124.439C124.003 133.177 123.76 133.422 123.76 133.862V136.944C123.76 137.726 124.051 138.215 124.584 138.46C124.827 138.558 125.118 138.607 125.409 138.607C125.942 138.607 126.427 138.46 126.718 138.118C127.057 137.775 127.202 137.286 127.202 136.699V134.155C127.202 133.666 127.105 133.324 126.911 133.177C126.814 133.079 126.669 133.079 126.475 133.079L126.281 133.177ZM114.597 135.574C114.597 136.552 114.791 137.335 115.227 137.971C115.615 138.558 116.149 138.9 116.827 138.9C117.651 138.9 118.185 138.46 118.476 137.579C118.621 137.188 118.67 136.699 118.67 136.21C118.67 135.329 118.476 134.596 118.136 133.96C117.748 133.324 117.215 132.981 116.536 132.981C115.761 132.981 115.179 133.373 114.839 134.204C114.646 134.644 114.597 135.085 114.597 135.574ZM113.191 136.063C113.191 135.036 113.53 134.204 114.209 133.519C114.888 132.835 115.712 132.541 116.73 132.541C117.7 132.541 118.476 132.835 119.106 133.47C119.736 134.106 120.027 134.889 120.027 135.867C120.027 136.601 119.833 137.286 119.494 137.824C119.154 138.411 118.621 138.802 118.039 139.047C117.603 139.243 117.118 139.34 116.585 139.34C115.955 139.34 115.421 139.194 114.888 138.949C114.355 138.656 113.918 138.264 113.627 137.677C113.337 137.237 113.191 136.699 113.191 136.063ZM108.44 133.373V135.721H109.7C110.088 135.721 110.331 135.623 110.428 135.427C110.476 135.329 110.476 135.183 110.476 134.987H110.864V137.041H110.476C110.476 136.552 110.282 136.308 109.846 136.308H108.391V137.971C108.391 138.46 108.488 138.705 108.634 138.802C108.731 138.851 108.828 138.9 109.022 138.9H109.216V139.292H106.452V138.9H106.598C106.792 138.9 106.937 138.851 107.034 138.753C107.131 138.656 107.131 138.509 107.131 138.313V134.106C107.131 133.813 107.082 133.617 107.034 133.519C106.937 133.373 106.792 133.275 106.549 133.275H106.452V132.883H111.106V134.351H110.767C110.767 134.057 110.719 133.813 110.67 133.715C110.573 133.519 110.428 133.47 110.185 133.47L108.44 133.373Z" fill="#3E5363"/>
<path d="M233.959 122.219C233.911 122.219 233.862 122.219 233.862 122.121V121.828C233.862 119.675 233.862 119.186 233.911 118.746C233.959 118.257 234.056 118.061 234.444 117.963C234.589 117.914 234.735 117.914 234.832 117.914C235.026 117.914 235.074 117.865 235.074 117.767C235.074 117.67 234.977 117.621 234.783 117.621C234.201 117.621 233.232 117.67 232.844 117.67C232.456 117.67 231.487 117.621 230.711 117.621C230.517 117.621 230.42 117.67 230.42 117.767C230.42 117.865 230.517 117.914 230.662 117.914C230.856 117.914 231.099 117.914 231.244 117.963C231.729 118.11 231.826 118.257 231.874 118.746C231.874 119.186 231.874 119.577 231.874 121.73V124.224C231.874 125.496 231.874 126.621 231.826 127.208C231.777 127.6 231.68 127.893 231.39 127.942C231.244 127.991 231.099 127.991 230.905 127.991C230.711 127.991 230.662 128.089 230.662 128.138C230.662 128.236 230.759 128.285 230.953 128.285C231.535 128.285 232.456 128.236 232.796 128.236C233.183 128.236 234.201 128.285 235.123 128.285C235.317 128.285 235.414 128.236 235.414 128.138C235.414 128.089 235.365 127.991 235.171 127.991C234.977 127.991 234.638 127.991 234.444 127.942C234.008 127.893 233.959 127.6 233.911 127.208C233.862 126.621 233.814 125.545 233.814 124.224V123.148C233.814 123.099 233.862 123.05 233.911 123.05H239.341C239.389 123.05 239.438 123.099 239.438 123.148V124.224C239.438 125.496 239.438 126.572 239.389 127.208C239.341 127.6 239.244 127.893 238.953 127.942C238.807 127.991 238.662 127.991 238.419 127.991C238.274 127.991 238.177 128.089 238.177 128.138C238.177 128.236 238.274 128.285 238.468 128.285C239.001 128.285 240.019 128.236 240.359 128.236C240.747 128.236 241.716 128.285 242.637 128.285C242.831 128.285 242.928 128.236 242.928 128.138C242.928 128.089 242.831 127.991 242.686 127.991C242.443 127.991 242.152 127.991 241.959 127.942C241.522 127.893 241.425 127.6 241.377 127.208C241.328 126.621 241.328 125.496 241.328 124.176V121.681C241.328 119.528 241.328 119.137 241.377 118.697C241.425 118.208 241.522 118.012 241.91 117.914C242.104 117.865 242.201 117.865 242.346 117.865C242.492 117.865 242.589 117.816 242.589 117.719C242.589 117.621 242.492 117.572 242.298 117.572C241.765 117.572 240.795 117.621 240.456 117.621C240.068 117.621 239.05 117.572 238.274 117.572C238.08 117.572 237.983 117.621 237.983 117.719C237.983 117.816 238.08 117.865 238.225 117.865C238.419 117.865 238.662 117.865 238.807 117.914C239.292 118.061 239.389 118.208 239.438 118.697C239.438 119.137 239.486 119.675 239.486 121.779V122.072C239.486 122.17 239.438 122.17 239.389 122.17L233.959 122.219ZM223.439 124.176C223.439 125.496 223.439 126.572 223.39 127.159C223.342 127.551 223.245 127.844 222.954 127.893C222.857 127.942 222.663 127.942 222.469 127.942C222.275 127.942 222.226 128.04 222.226 128.089C222.226 128.187 222.323 128.236 222.517 128.236C223.099 128.236 224.069 128.187 224.408 128.187C224.796 128.187 225.766 128.236 226.735 128.236C226.881 128.236 227.026 128.187 227.026 128.089C227.026 128.04 226.978 127.942 226.784 127.942C226.59 127.942 226.25 127.942 226.057 127.893C225.62 127.844 225.572 127.551 225.523 127.159C225.475 126.572 225.426 125.447 225.426 124.127V118.501L227.269 118.55C228.578 118.55 228.965 118.99 228.965 119.382V119.528C228.965 119.724 229.014 119.822 229.111 119.822C229.208 119.822 229.208 119.724 229.256 119.577C229.256 119.235 229.305 118.159 229.305 117.865C229.305 117.67 229.305 117.572 229.208 117.572C229.159 117.572 229.062 117.621 228.82 117.621C228.626 117.67 228.287 117.67 227.85 117.67H221.984C221.499 117.67 220.966 117.67 220.53 117.621C220.19 117.572 220.045 117.474 219.899 117.474C219.802 117.474 219.754 117.572 219.754 117.719C219.705 117.816 219.463 119.186 219.463 119.431C219.463 119.577 219.512 119.675 219.608 119.675C219.705 119.675 219.754 119.626 219.754 119.48C219.802 119.382 219.851 119.186 219.996 118.99C220.19 118.648 220.53 118.599 221.402 118.55L223.536 118.501L223.439 124.176ZM212.724 118.599C212.724 118.501 212.773 118.452 212.87 118.403C213.015 118.354 213.354 118.354 213.742 118.354C214.615 118.354 215.924 118.893 215.924 120.849C215.924 122.023 215.439 122.61 215.003 122.953C214.76 123.148 214.566 123.197 213.985 123.197C213.597 123.197 213.209 123.148 212.87 123.05C212.773 123.002 212.724 122.953 212.724 122.806V118.599ZM210.93 124.176C210.93 125.447 210.93 126.572 210.882 127.159C210.833 127.551 210.736 127.844 210.445 127.893C210.3 127.942 210.155 127.942 209.961 127.942C209.767 127.942 209.718 128.04 209.718 128.089C209.718 128.187 209.815 128.236 210.009 128.236C210.591 128.236 211.512 128.187 211.803 128.187C211.997 128.187 213.209 128.236 214.033 128.236C214.227 128.236 214.324 128.187 214.324 128.089C214.324 128.04 214.275 127.942 214.13 127.942C213.936 127.942 213.645 127.942 213.403 127.893C212.966 127.844 212.918 127.551 212.87 127.159C212.821 126.572 212.773 125.496 212.773 124.176V123.98C212.773 123.882 212.821 123.882 212.87 123.882L214.179 123.931C214.275 123.931 214.372 123.931 214.421 124.029C214.615 124.224 215.197 125.203 215.778 125.937C216.603 127.013 217.136 127.698 217.766 127.991C218.154 128.187 218.542 128.285 219.318 128.285H220.724C220.917 128.285 221.014 128.236 221.014 128.138C221.014 128.089 220.966 127.991 220.821 127.991C220.675 127.991 220.627 127.991 220.481 127.942C220.239 127.893 219.754 127.844 218.93 127.013C218.057 126.132 217.039 124.86 215.778 123.246C217.184 122.121 217.766 121.192 217.766 120.115C217.766 119.186 217.184 118.452 216.748 118.159C215.972 117.621 214.906 117.572 214.033 117.572C213.597 117.572 212.288 117.621 211.803 117.621C211.512 117.621 210.591 117.572 209.815 117.572C209.621 117.572 209.476 117.621 209.476 117.719C209.476 117.816 209.573 117.865 209.718 117.865C209.912 117.865 210.155 117.865 210.3 117.914C210.785 118.061 210.882 118.208 210.93 118.697C210.93 119.137 210.93 119.528 210.93 121.681V124.176ZM202.737 127.698C200.022 127.698 198.373 125.398 198.373 122.512C198.373 119.039 200.264 118.159 201.864 118.159C204.191 118.159 206.034 120.067 206.034 123.197C206.082 127.208 203.755 127.698 202.737 127.698ZM202.155 128.48C205.888 128.48 208.215 125.937 208.215 122.708C208.215 119.48 205.937 117.425 202.3 117.425C197.937 117.425 196.24 120.556 196.24 122.953C196.24 125.447 197.937 128.48 202.155 128.48ZM183.877 127.942C184.023 128.333 184.071 128.48 184.265 128.48C184.459 128.48 184.556 128.333 184.799 127.746C185.38 126.475 187.32 121.485 187.562 120.849H187.611L190.519 127.795C190.713 128.333 190.81 128.48 191.004 128.48C191.198 128.48 191.295 128.333 191.441 127.795C192.168 125.692 193.622 121.241 194.301 119.431C194.592 118.599 194.786 118.11 195.125 117.963C195.271 117.914 195.465 117.914 195.61 117.914C195.755 117.914 195.804 117.865 195.804 117.767C195.804 117.67 195.707 117.67 195.562 117.67C195.077 117.67 194.446 117.719 194.349 117.719C194.204 117.719 193.574 117.67 192.798 117.67C192.556 117.67 192.459 117.719 192.459 117.816C192.459 117.914 192.556 117.963 192.701 117.963C193.283 117.963 193.428 118.11 193.428 118.354C193.428 118.55 193.38 118.844 193.283 119.186C192.798 120.8 191.683 124.518 191.392 125.35H191.344L188.435 118.403C188.241 117.963 188.144 117.767 187.95 117.767C187.804 117.767 187.659 117.865 187.514 118.306L184.75 125.496H184.702C184.508 124.86 183.199 120.605 182.908 119.675C182.714 119.039 182.617 118.55 182.617 118.403C182.617 118.257 182.617 118.159 182.762 118.11C182.859 118.061 183.005 118.061 183.102 118.061C183.247 118.061 183.344 118.012 183.344 117.914C183.344 117.816 183.247 117.767 183.053 117.767C182.229 117.767 181.502 117.816 181.356 117.816C181.211 117.816 180.435 117.767 179.66 117.767C179.417 117.767 179.32 117.816 179.32 117.914C179.32 118.012 179.417 118.061 179.563 118.061C179.708 118.061 179.999 118.061 180.096 118.159C180.29 118.306 180.435 118.599 180.581 119.137L183.877 127.942ZM172.678 124.176C172.678 125.447 172.678 126.572 172.63 127.159C172.581 127.551 172.484 127.844 172.193 127.893C172.048 127.942 171.902 127.942 171.709 127.942C171.515 127.942 171.466 128.04 171.466 128.089C171.466 128.187 171.563 128.236 171.757 128.236C172.048 128.236 172.436 128.236 172.775 128.187C173.114 128.187 173.454 128.187 173.599 128.187C174.036 128.187 174.569 128.187 175.296 128.236C176.023 128.285 176.848 128.285 177.963 128.285C178.496 128.285 178.641 128.285 178.738 127.893C178.835 127.6 178.932 126.67 178.932 126.328C178.932 126.181 178.932 125.985 178.787 125.985C178.69 125.985 178.641 126.034 178.641 126.181C178.544 126.768 178.399 127.062 178.011 127.208C177.623 127.355 177.041 127.404 176.654 127.404C175.199 127.404 174.714 127.208 174.714 126.23C174.714 125.839 174.714 124.616 174.714 124.127V123.002C174.714 122.904 174.714 122.855 174.811 122.855C175.151 122.855 176.799 122.904 177.09 122.904C177.623 122.953 177.817 123.148 177.914 123.442C177.963 123.637 177.963 123.784 177.963 123.98C177.963 124.029 178.011 124.078 178.108 124.078C178.254 124.078 178.254 123.882 178.254 123.784C178.254 123.686 178.302 123.148 178.302 122.855C178.399 122.17 178.399 121.925 178.399 121.828C178.399 121.73 178.351 121.681 178.302 121.681C178.254 121.681 178.205 121.779 178.06 121.876C177.914 122.023 177.72 122.072 177.381 122.072C177.041 122.121 175.199 122.121 174.86 122.121C174.763 122.121 174.763 122.072 174.763 121.974V118.501C174.763 118.403 174.811 118.354 174.86 118.354C175.151 118.354 176.896 118.403 177.138 118.403C177.866 118.452 177.963 118.648 178.108 118.941C178.205 119.088 178.205 119.333 178.205 119.48C178.205 119.577 178.205 119.675 178.302 119.675C178.399 119.675 178.447 119.528 178.447 119.431C178.496 119.284 178.496 118.648 178.544 118.501C178.593 117.865 178.641 117.67 178.641 117.572C178.641 117.523 178.641 117.425 178.544 117.425C178.496 117.425 178.399 117.474 178.302 117.474C178.205 117.474 177.963 117.523 177.72 117.572C177.429 117.572 174.23 117.572 173.793 117.572C173.357 117.572 172.484 117.523 171.709 117.523C171.515 117.523 171.369 117.572 171.369 117.67C171.369 117.767 171.466 117.816 171.612 117.816C171.805 117.816 172.096 117.816 172.193 117.865C172.678 118.012 172.775 118.159 172.824 118.648C172.824 119.088 172.824 119.48 172.824 121.632L172.678 124.176ZM165.6 121.73C165.6 119.577 165.6 119.186 165.648 118.746C165.697 118.257 165.794 118.061 166.182 117.963C166.327 117.914 166.569 117.914 166.715 117.914C166.909 117.914 166.957 117.865 166.957 117.767C166.957 117.67 166.86 117.621 166.666 117.621C166.133 117.621 164.921 117.67 164.582 117.67C164.194 117.67 163.273 117.621 162.594 117.621C162.4 117.621 162.303 117.67 162.303 117.767C162.303 117.865 162.4 117.914 162.545 117.914C162.739 117.914 162.885 117.914 163.03 117.963C163.467 118.11 163.612 118.257 163.661 118.746C163.661 119.186 163.661 119.577 163.661 121.73V124.224C163.661 125.496 163.661 126.621 163.612 127.208C163.564 127.6 163.467 127.893 163.176 127.942C163.03 127.991 162.885 127.991 162.642 127.991C162.448 127.991 162.4 128.089 162.4 128.138C162.4 128.236 162.497 128.285 162.691 128.285C162.982 128.285 163.37 128.285 163.709 128.236C164.048 128.236 164.388 128.236 164.533 128.236C165.115 128.236 165.745 128.236 166.472 128.285C167.2 128.333 168.024 128.333 169.042 128.333C169.818 128.333 169.866 128.285 169.963 127.942C170.06 127.551 170.157 126.475 170.157 126.328C170.157 126.181 170.109 126.034 170.012 126.034C169.915 126.034 169.866 126.132 169.866 126.23C169.818 126.475 169.672 126.915 169.527 127.062C169.139 127.453 168.606 127.453 167.83 127.453C166.715 127.453 166.182 127.355 165.891 127.159C165.6 126.915 165.6 125.985 165.6 124.176V121.73ZM155.176 124.176C155.176 125.447 155.176 126.572 155.128 127.159C155.079 127.551 154.982 127.844 154.691 127.893C154.594 127.942 154.401 127.942 154.158 127.942C153.964 127.942 153.916 128.04 153.916 128.089C153.916 128.187 154.013 128.236 154.207 128.236C154.788 128.236 155.758 128.187 156.097 128.187C156.485 128.187 157.455 128.236 158.425 128.236C158.57 128.236 158.715 128.187 158.715 128.089C158.715 128.04 158.667 127.942 158.473 127.942C158.279 127.942 157.94 127.942 157.746 127.893C157.309 127.844 157.212 127.551 157.212 127.159C157.164 126.572 157.116 125.447 157.116 124.127V118.501L158.958 118.55C160.267 118.55 160.655 118.99 160.655 119.382V119.528C160.655 119.724 160.703 119.822 160.8 119.822C160.897 119.822 160.897 119.724 160.946 119.577C160.946 119.235 160.994 118.159 160.994 117.865C160.994 117.67 160.994 117.572 160.897 117.572C160.849 117.572 160.752 117.621 160.509 117.621C160.315 117.67 159.976 117.67 159.54 117.67H153.673C153.188 117.67 152.655 117.67 152.219 117.621C151.879 117.572 151.686 117.474 151.589 117.474C151.492 117.474 151.443 117.572 151.443 117.719C151.395 117.816 151.152 119.186 151.152 119.431C151.152 119.577 151.201 119.675 151.298 119.675C151.395 119.675 151.443 119.626 151.443 119.48C151.492 119.382 151.54 119.186 151.686 118.99C151.879 118.648 152.219 118.599 153.092 118.55L155.225 118.501L155.176 124.176ZM144.801 124.176C144.801 125.447 144.801 126.572 144.753 127.159C144.704 127.551 144.607 127.844 144.316 127.893C144.219 127.942 144.025 127.942 143.783 127.942C143.589 127.942 143.541 128.04 143.541 128.089C143.541 128.187 143.638 128.236 143.832 128.236C144.413 128.236 145.383 128.187 145.722 128.187C146.11 128.187 147.08 128.236 148.049 128.236C148.195 128.236 148.34 128.187 148.34 128.089C148.34 128.04 148.292 127.942 148.098 127.942C147.904 127.942 147.565 127.942 147.371 127.893C146.934 127.844 146.837 127.551 146.837 127.159C146.789 126.572 146.74 125.447 146.74 124.127V118.501H148.534C149.843 118.501 150.231 118.941 150.231 119.333V119.48C150.231 119.675 150.28 119.773 150.377 119.773C150.474 119.773 150.474 119.675 150.522 119.528C150.522 119.186 150.57 118.11 150.57 117.816C150.57 117.621 150.57 117.523 150.474 117.523C150.425 117.523 150.328 117.572 150.086 117.572C149.892 117.621 149.552 117.621 149.116 117.621H143.25C142.765 117.621 142.232 117.621 141.795 117.572C141.456 117.523 141.262 117.425 141.165 117.425C141.068 117.425 141.02 117.523 141.02 117.67C140.971 117.767 140.729 119.137 140.729 119.382C140.729 119.528 140.777 119.626 140.874 119.626C140.971 119.626 141.02 119.577 141.02 119.431C141.068 119.333 141.117 119.137 141.262 118.941C141.456 118.599 141.795 118.55 142.668 118.501L144.801 118.452V124.176ZM129.772 123.784C129.772 125.839 130.354 126.866 131.081 127.502C132.147 128.431 133.602 128.48 134.378 128.48C135.299 128.48 136.414 128.333 137.432 127.453C138.644 126.426 138.789 124.811 138.789 123.197V121.681C138.789 119.528 138.789 119.137 138.838 118.697C138.886 118.208 138.983 118.012 139.371 117.914C139.565 117.865 139.614 117.865 139.808 117.865C139.953 117.865 140.05 117.816 140.05 117.719C140.05 117.621 139.953 117.572 139.759 117.572C139.226 117.572 138.256 117.621 138.062 117.621C138.062 117.621 137.093 117.572 136.317 117.572C136.123 117.572 136.026 117.621 136.026 117.719C136.026 117.816 136.123 117.865 136.268 117.865C136.414 117.865 136.705 117.865 136.802 117.914C137.238 118.061 137.383 118.208 137.383 118.697C137.383 119.137 137.432 119.528 137.432 121.681V123.442C137.432 124.86 137.383 126.083 136.608 126.866C136.026 127.453 135.299 127.6 134.668 127.6C134.184 127.6 133.505 127.551 132.826 127.013C132.147 126.426 131.711 125.643 131.711 123.589V121.583C131.711 119.431 131.711 119.039 131.76 118.599C131.808 118.11 131.905 117.914 132.293 117.816C132.487 117.767 132.535 117.767 132.729 117.767C132.875 117.767 132.972 117.719 132.972 117.621C132.972 117.523 132.875 117.474 132.681 117.474C132.147 117.474 131.178 117.523 130.838 117.523C130.402 117.523 129.432 117.474 128.657 117.474C128.463 117.474 128.366 117.523 128.366 117.621C128.366 117.719 128.463 117.767 128.608 117.767C128.802 117.767 129.045 117.767 129.142 117.816C129.578 117.963 129.723 118.061 129.772 118.599C129.82 119.039 129.772 119.431 129.772 121.583V123.784ZM118.185 122.219C118.136 122.219 118.088 122.219 118.088 122.121V121.828C118.088 119.675 118.088 119.186 118.136 118.746C118.185 118.257 118.282 118.061 118.669 117.963C118.815 117.914 118.96 117.914 119.057 117.914C119.251 117.914 119.3 117.865 119.3 117.767C119.3 117.67 119.203 117.621 119.009 117.621C118.427 117.621 117.457 117.67 117.07 117.67C116.682 117.67 115.712 117.621 114.936 117.621C114.742 117.621 114.645 117.67 114.645 117.767C114.645 117.865 114.742 117.914 114.888 117.914C115.082 117.914 115.324 117.914 115.47 117.963C115.906 118.11 116.051 118.257 116.1 118.746C116.1 119.186 116.1 119.577 116.1 121.73V124.224C116.1 125.496 116.1 126.621 116.051 127.208C116.003 127.6 115.906 127.893 115.615 127.942C115.47 127.991 115.324 127.991 115.082 127.991C114.888 127.991 114.839 128.089 114.839 128.138C114.839 128.236 114.936 128.285 115.13 128.285C115.712 128.285 116.633 128.236 116.973 128.236C117.409 128.236 118.379 128.285 119.3 128.285C119.494 128.285 119.591 128.236 119.591 128.138C119.591 128.089 119.542 127.991 119.348 127.991C119.154 127.991 118.815 127.991 118.621 127.942C118.185 127.893 118.088 127.6 118.088 127.208C118.039 126.572 117.991 125.496 117.991 124.224V123.148C117.991 123.099 118.039 123.05 118.088 123.05H123.518C123.566 123.05 123.615 123.099 123.615 123.148V124.224C123.615 125.496 123.615 126.572 123.566 127.208C123.518 127.6 123.421 127.893 123.13 127.942C122.984 127.991 122.839 127.991 122.596 127.991C122.451 127.991 122.354 128.089 122.354 128.138C122.354 128.236 122.451 128.285 122.645 128.285C123.178 128.285 124.196 128.236 124.536 128.236C124.924 128.236 125.893 128.285 126.814 128.285C127.008 128.285 127.105 128.236 127.105 128.138C127.105 128.089 127.008 127.991 126.863 127.991C126.62 127.991 126.33 127.991 126.136 127.942C125.699 127.893 125.602 127.6 125.554 127.208C125.505 126.621 125.505 125.496 125.505 124.176V121.681C125.505 119.528 125.505 119.137 125.554 118.697C125.602 118.208 125.699 118.012 126.087 117.914C126.281 117.865 126.378 117.865 126.524 117.865C126.669 117.865 126.766 117.816 126.766 117.719C126.766 117.621 126.669 117.572 126.475 117.572C125.942 117.572 124.972 117.621 124.633 117.621C124.245 117.621 123.227 117.572 122.451 117.572C122.257 117.572 122.16 117.621 122.16 117.719C122.16 117.816 122.257 117.865 122.403 117.865C122.596 117.865 122.839 117.865 122.936 117.914C123.372 118.061 123.518 118.208 123.566 118.697C123.566 119.137 123.615 119.675 123.615 121.779V122.072C123.615 122.17 123.566 122.17 123.518 122.17L118.185 122.219ZM109.167 128.431C109.943 128.431 110.912 128.333 111.591 127.844C112.658 127.111 113.046 126.279 113.046 125.203C113.046 123.931 112.464 122.855 110.573 121.779L109.991 121.436C108.682 120.702 108.488 120.213 108.488 119.577C108.488 118.599 109.409 118.061 110.476 118.061C111.397 118.061 111.882 118.452 112.076 118.697C112.367 119.088 112.464 119.48 112.464 119.626C112.464 119.773 112.512 119.871 112.609 119.871C112.706 119.871 112.803 119.724 112.803 119.431C112.803 118.306 112.852 117.914 112.852 117.719C112.852 117.621 112.803 117.572 112.658 117.523C112.27 117.425 111.543 117.278 110.622 117.278C108.634 117.278 106.985 118.403 106.985 120.115C106.985 121.338 107.519 122.317 109.264 123.295L110.088 123.784C111.349 124.567 111.494 125.154 111.494 125.79C111.494 126.768 110.718 127.6 109.506 127.6C108.585 127.6 107.519 127.257 107.228 126.23C107.131 125.985 107.082 125.692 107.082 125.496C107.082 125.398 107.082 125.252 106.937 125.252C106.84 125.252 106.743 125.398 106.743 125.643C106.743 125.888 106.646 126.768 106.646 127.502C106.646 127.844 106.694 127.893 106.937 127.991C107.422 128.382 108.343 128.48 109.167 128.431Z" fill="#3E5363"/>
<path d="M68.8785 107.055C60.3457 111.115 55.1097 118.892 55.4006 125.985C55.643 131.66 60.0064 138.704 67.2301 143.057C58.358 143.351 53.1219 132.442 53.3159 127.208C52.0553 133.323 54.237 144.867 65.9211 149.074C69.7512 150.444 76.9265 150.639 80.1263 148.34C85.6532 144.329 83.423 138.753 78.8658 134.986C73.5812 130.632 68.9755 127.697 66.309 121.779C64.5152 117.718 63.8364 112.729 68.8785 107.055Z" fill="#3E5363"/>
<path d="M73.3872 125.986C65.921 118.257 67.4724 113.023 72.2721 106.321C74.5023 103.191 76.684 100.06 76.3446 96C87.7378 108.278 77.0718 112.24 82.6957 118.551C83.4714 115.077 85.8955 111.458 89.2892 108.865C88.3681 118.599 91.5194 118.893 94.3313 124.91C98.5977 134.155 92.6345 144.427 83.7138 148.732C87.4954 144.965 87.8833 139.829 83.4229 134.742C81.1443 132.149 77.0233 129.703 73.3872 125.986Z" fill="#3E5363"/>
</g>
<defs>
<filter id="filter0_d" x="-4" y="0" width="303" height="253" filterUnits="userSpaceOnUse" color-interpolation-filters="sRGB">
<feFlood flood-opacity="0" result="BackgroundImageFix"/>
<feColorMatrix in="SourceAlpha" type="matrix" values="0 0 0 0 0 0 0 0 0 0 0 0 0 0 0 0 0 0 127 0"/>
<feOffset dy="4"/>
<feGaussianBlur stdDeviation="2"/>
<feColorMatrix type="matrix" values="0 0 0 0 0 0 0 0 0 0 0 0 0 0 0 0 0 0 0.25 0"/>
<feBlend mode="normal" in2="BackgroundImageFix" result="effect1_dropShadow"/>
<feBlend mode="normal" in="SourceGraphic" in2="effect1_dropShadow" result="shape"/>
</filter>
</defs>
</svg>
