<svg width="108" height="109" viewBox="0 0 108 109" fill="none" xmlns="http://www.w3.org/2000/svg">
<path opacity="0.25" d="M57 75L72 60V34H32L25 41V75H57Z" fill="white"/>
<path fill-rule="evenodd" clip-rule="evenodd" d="M72 34H32V60H49V64H46V66H58V64H55V60H72V34ZM35 56.9951C35 56.9951 68.994 57.0062 68.994 56.9951C68.994 56.9951 69.0075 37 68.994 37H35V56.9951Z" fill="white"/>
<path d="M97.4854 58.9707L105.971 50.4854L97.4854 42.0001" stroke="white" stroke-width="2"/>
<path d="M89 50.4854L105 50.4854" stroke="white" stroke-width="2"/>
<path d="M60.9707 10.4854L52.4854 2.00007L44.0001 10.4854" stroke="white" stroke-width="2"/>
<path d="M52.4854 18.9707L52.4854 2.9707" stroke="white" stroke-width="2"/>
<path d="M44 98.4854L52.4853 106.971L60.9706 98.4854" stroke="white" stroke-width="2"/>
<path d="M52.4854 90L52.4854 106" stroke="white" stroke-width="2"/>
</svg>
