<svg width="44" height="44" viewBox="0 0 44 44" fill="none" xmlns="http://www.w3.org/2000/svg">
<path opacity="0.25" d="M37.5 1.61732e-06L33.5 1.44248e-06L0.5 33L0.5 44L31.5 44L43.5 32L43.5 6L39.5 6L37.5 8.5L37.5 1.61732e-06Z" fill="white"/>
<rect width="4" height="26" transform="matrix(-1 0 0 1 43.5 6)" fill="white"/>
<rect width="4" height="32" transform="matrix(-1 0 0 1 37.5 0)" fill="white"/>
<rect width="4" height="24" transform="matrix(-1 0 0 1 31.5 8)" fill="white"/>
<rect width="4" height="13" transform="matrix(-1 0 0 1 25.5 19)" fill="white"/>
<rect width="4" height="8" transform="matrix(-1 0 0 1 19.5 24)" fill="white"/>
</svg>
