<svg width="56" height="80" viewBox="0 0 56 80" fill="none" xmlns="http://www.w3.org/2000/svg">
<path opacity="0.25" d="M37 80L0 80V22L22 0H48V7H52V25H54V49H56V65L37 80Z" fill="white"/>
<path fill-rule="evenodd" clip-rule="evenodd" d="M16 49H14V65H56V49H54V25H52V7H48V0H22V7H18V25H16V49ZM24 11H28V15H24V11ZM28 17H24V21H28V17ZM28 29H24V33H28V29ZM24 41H28V45H24V41ZM28 52H24V56H28V52ZM28 58H24V62H28V58ZM24 35H28V39H24V35ZM22 52H18V56H22V52ZM18 58H22V62H18V58ZM40 41H36V45H40V41ZM36 29H40V33H36V29ZM40 35H36V39H40V35ZM48 52H52V56H48V52ZM52 58H48V62H52V58ZM32 52H38V62H32V52ZM34 41H30V45H34V41ZM30 29H34V33H30V29ZM34 35H30V39H34V35ZM42 52H46V56H42V52ZM46 58H42V62H46V58ZM42 41H46V45H42V41ZM46 29H42V33H46V29ZM42 35H46V39H42V35ZM40 17H36V21H40V17ZM36 11H40V15H36V11ZM34 17H30V21H34V17ZM30 11H34V15H30V11ZM46 17H42V21H46V17ZM42 11H46V15H42V11Z" fill="white"/>
</svg>
