<svg width="56" height="56" viewBox="0 0 56 56" fill="none" xmlns="http://www.w3.org/2000/svg">
<path opacity="0.25" d="M33 42.0001V48.0001L25 56.0001H0V31.0001L24.4667 9.4668L31.5333 16.5335L27.6 20.0001H33V22.0001L35 20.0001H37V38.0001L33 42.0001Z" fill="white"/>
<path d="M37 20H35V38H37V20Z" fill="white"/>
<path d="M21 20H19V38H21V20Z" fill="white"/>
<path d="M23 20V48H26V35H30V48H33V20H23Z" fill="white"/>
<path d="M28 18C30.7614 18 33 15.7614 33 13C33 10.2386 30.7614 8 28 8C25.2386 8 23 10.2386 23 13C23 15.7614 25.2386 18 28 18Z" fill="white"/>
</svg>
