<svg width="46" height="37" viewBox="0 0 46 37" fill="none" xmlns="http://www.w3.org/2000/svg">
<path opacity="0.25" d="M27 37H0V10L10 3.8147e-06H46V18L27 37Z" fill="white"/>
<path d="M38.4222 5.00018H17.5778C17.0778 6.15574 16.1444 7.07796 15 7.57796V10.4113C16.1556 10.9113 17.0778 11.8446 17.5778 12.9891H38.4111C38.9111 11.8335 39.8444 10.9113 40.9889 10.4113V7.57796C39.8444 7.07796 38.9222 6.15574 38.4222 5.00018ZM28 11.0002C26.9 11.0002 26 10.1002 26 9.00019C26 7.90018 26.9 7.00018 28 7.00018C29.1 7.00018 30 7.90018 30 9.00019C30 10.1113 29.1 11.0002 28 11.0002Z" fill="white"/>
<path d="M10 9.15527e-05V18.0001H46V9.15527e-05H10ZM43 12.0001C42.2333 12.0001 41.5333 12.289 41 12.7668C40.9111 12.8445 40.8333 12.9223 40.7667 13.0001C40.2889 13.5334 40 14.2334 40 15.0001H16C16 14.2334 15.7111 13.5334 15.2333 13.0001C15.1556 12.9112 15.0778 12.8334 15 12.7668C14.4667 12.289 13.7667 12.0001 13 12.0001V6.00009C13.7667 6.00009 14.4667 5.7112 15 5.23342C15.0889 5.15564 15.1667 5.07787 15.2333 5.00009C15.7111 4.46676 16 3.76676 16 3.00009H40C40 3.76676 40.2889 4.46676 40.7667 5.00009C40.8444 5.08898 40.9222 5.16675 41 5.23342C41.5333 5.7112 42.2333 6.00009 43 6.00009V12.0001Z" fill="white"/>
</svg>
