<svg width="398" height="660" viewBox="0 0 398 660" fill="none" xmlns="http://www.w3.org/2000/svg">
<g opacity="0.25">
<rect x="364.564" y="31.3916" width="15.6962" height="15.6962" transform="rotate(90 364.564 31.3916)" fill="white"/>
<path opacity="0.25" d="M348.868 15.6953L364.564 31.3915L364.564 47.0877L348.868 47.0877L333.172 31.3915L333.172 15.6953L348.868 15.6953Z" fill="white"/>
<rect x="168.362" y="274.682" width="15.6962" height="15.6962" fill="#3EDBB1"/>
<path opacity="0.25" d="M152.666 290.378L168.362 274.682H184.058V290.378L168.362 306.075H152.666V290.378Z" fill="#3EDBB1"/>
<rect x="237.425" y="536.809" width="15.6962" height="15.6962" transform="rotate(-90 237.425 536.809)" fill="white"/>
<path opacity="0.25" d="M253.122 552.505L237.425 536.809L237.425 521.113L253.122 521.113L268.818 536.809L268.818 552.505L253.122 552.505Z" fill="white"/>
<rect width="15.6962" height="15.6962" transform="matrix(9.93477e-08 -1 -1 -9.93477e-08 320.615 172.657)" fill="white"/>
<path opacity="0.25" d="M304.919 188.354L320.615 172.657L320.615 156.961L304.919 156.961L289.223 172.657L289.223 188.354L304.919 188.354Z" fill="white"/>
<rect x="246.843" y="47.0879" width="15.6962" height="15.6962" transform="rotate(-180 246.843 47.0879)" fill="#3EDBB1"/>
<path opacity="0.25" d="M278.236 15.6955L246.843 47.0879L231.147 47.0879L231.147 31.3917L262.539 -0.000756183L278.236 -0.00075531L278.236 15.6955Z" fill="#3EDBB1"/>
<rect x="397.527" y="536.81" width="15.6962" height="15.6962" transform="rotate(90 397.527 536.81)" fill="#3E5363"/>
<path opacity="0.25" d="M366.134 505.417L397.527 536.809L397.527 552.506L381.831 552.506L350.438 521.113L350.438 505.417L366.134 505.417Z" fill="#3E5363"/>
<rect width="15.6962" height="15.6962" transform="matrix(-1.19249e-08 1 1 1.19249e-08 160.514 172.657)" fill="#3E5363"/>
<path opacity="0.25" d="M191.906 141.264L160.514 172.657L160.514 188.353L176.21 188.353L207.602 156.96L207.602 141.264L191.906 141.264Z" fill="#3E5363"/>
<rect x="317.476" y="599.594" width="15.6962" height="15.6962" fill="#B361C6"/>
<path opacity="0.25" d="M278.235 638.836L317.476 599.595L333.172 599.595L333.172 615.291L293.931 654.532L278.235 654.532L278.235 638.836Z" fill="#B361C6"/>
<rect width="15.6962" height="15.6962" transform="matrix(-1 -5.56363e-08 -5.56363e-08 1 240.564 235.442)" fill="#B361C6"/>
<path opacity="0.25" d="M279.805 274.684L240.564 235.443L224.868 235.443L224.868 251.14L264.109 290.38L279.805 290.38L279.805 274.684Z" fill="#B361C6"/>
<rect x="268.818" y="458.328" width="15.6962" height="15.6962" transform="rotate(-90 268.818 458.328)" fill="#3EDBB1"/>
<path opacity="0.25" d="M308.059 497.569L268.819 458.328L268.819 442.632L284.515 442.632L323.755 481.873L323.755 497.569L308.059 497.569Z" fill="#3EDBB1"/>
<rect width="15.6962" height="15.6962" transform="matrix(9.93477e-08 -1 -1 -9.93477e-08 289.223 94.1768)" fill="#3EDBB1"/>
<path opacity="0.25" d="M249.981 133.418L289.222 94.1772L289.222 78.481L273.526 78.481L234.285 117.722L234.285 133.418L249.981 133.418Z" fill="#3EDBB1"/>
<rect width="15.6962" height="15.6962" transform="matrix(9.93477e-08 -1 -1 -9.93477e-08 381.831 235.442)" fill="white"/>
<path opacity="0.25" d="M326.894 290.379L381.831 235.442L381.831 219.746L366.134 219.746L311.198 274.683L311.198 290.379L326.894 290.379Z" fill="white"/>
<rect x="95.9849" y="31.3916" width="15.6962" height="15.6962" transform="rotate(90 95.9849 31.3916)" fill="white"/>
<path opacity="0.25" d="M80.2887 15.6953L95.9849 31.3915L95.9849 47.0877L80.2887 47.0877L64.5925 31.3915L64.5925 15.6953L80.2887 15.6953Z" fill="white"/>
<rect x="128.947" y="411.239" width="15.6962" height="15.6962" fill="#B361C6"/>
<path opacity="0.25" d="M113.251 426.935L128.947 411.239L144.643 411.239L144.643 426.935L128.947 442.632L113.251 442.632L113.251 426.935Z" fill="#B361C6"/>
<rect width="15.6962" height="15.6962" transform="matrix(9.93477e-08 -1 -1 -9.93477e-08 52.0358 172.656)" fill="white"/>
<path opacity="0.25" d="M36.3396 188.353L52.0358 172.656L52.0358 156.96L36.3396 156.96L20.6434 172.656L20.6434 188.353L36.3396 188.353Z" fill="white"/>
<rect width="15.6962" height="15.6962" transform="matrix(1 -3.17865e-08 -3.17865e-08 -1 42.6179 379.847)" fill="#3EDBB1"/>
<path opacity="0.25" d="M11.2251 348.455L42.6176 379.847L58.3138 379.847L58.3138 364.151L26.9213 332.759L11.2251 332.759L11.2251 348.455Z" fill="#3EDBB1"/>
<rect x="128.947" y="536.81" width="15.6962" height="15.6962" transform="rotate(90 128.947 536.81)" fill="#3E5363"/>
<path opacity="0.25" d="M97.5548 505.417L128.947 536.809L128.947 552.506L113.251 552.506L81.8586 521.113L81.8586 505.417L97.5548 505.417Z" fill="#3E5363"/>
<rect x="48.8964" y="599.594" width="15.6962" height="15.6962" fill="#B361C6"/>
<path opacity="0.25" d="M9.65561 638.836L48.8963 599.595L64.5926 599.595L64.5926 615.291L25.3518 654.532L9.65561 654.532L9.65561 638.836Z" fill="#B361C6"/>
<rect x="0.238495" y="458.328" width="15.6962" height="15.6962" transform="rotate(-90 0.238495 458.328)" fill="#3EDBB1"/>
<path opacity="0.25" d="M39.4796 497.569L0.239058 458.328L0.239057 442.632L15.9353 442.632L55.1758 481.873L55.1758 497.569L39.4796 497.569Z" fill="#3EDBB1"/>
</g>
</svg>
