<svg width="57" height="57" viewBox="0 0 57 57" fill="none" xmlns="http://www.w3.org/2000/svg">
<g id="Facebook">
<path id="Fill 1" fill-rule="evenodd" clip-rule="evenodd" d="M56.0022 28.0011C56.0022 12.5365 43.4657 0 28.0011 0C12.5365 0 0 12.5365 0 28.0011C0 41.9772 10.2396 53.5614 23.6259 55.662V36.0952H16.5163V28.0011H23.6259V21.8321C23.6259 14.8143 27.8063 10.9379 34.2024 10.9379C37.2659 10.9379 40.4703 11.4848 40.4703 11.4848V18.3757H36.9395C33.461 18.3757 32.3763 20.5342 32.3763 22.7485V28.0011H40.1422L38.9007 36.0952H32.3763V55.662C45.7626 53.5614 56.0022 41.9772 56.0022 28.0011Z" fill="#1877F2"/>
<path id="Fill 4" fill-rule="evenodd" clip-rule="evenodd" d="M38.9008 36.0952L40.1423 28.0012H32.3764V22.7486C32.3764 20.5342 33.4611 18.3758 36.9395 18.3758H40.4704V11.4849C40.4704 11.4849 37.266 10.938 34.2024 10.938C27.8064 10.938 23.626 14.8144 23.626 21.8322V28.0012H16.5164V36.0952H23.626V55.6621C25.0516 55.8858 26.5127 56.0022 28.0012 56.0022C29.4896 56.0022 30.9508 55.8858 32.3764 55.6621V36.0952H38.9008Z" fill="white"/>
</g>
</svg>
