<svg width="140" height="109" viewBox="0 0 140 109" fill="none" xmlns="http://www.w3.org/2000/svg">
<g id="hover_beneficios">
<path id="bg_beneficio" opacity="0.9" d="M140 108H0V0H140V108Z" fill="#3EDBB1"/>
<path id="Sal&#195;&#161;rios: R$ 20.9M" d="M47.8672 47.0156C47.8672 46.5521 47.7474 46.2031 47.5078 45.9688C47.2734 45.7292 46.8438 45.4818 46.2188 45.2266C45.0781 44.7943 44.2578 44.2891 43.7578 43.7109C43.2578 43.1276 43.0078 42.4401 43.0078 41.6484C43.0078 40.6901 43.3464 39.9219 44.0234 39.3438C44.7057 38.7604 45.5703 38.4688 46.6172 38.4688C47.3151 38.4688 47.9375 38.6172 48.4844 38.9141C49.0312 39.2057 49.4505 39.6198 49.7422 40.1562C50.0391 40.6927 50.1875 41.3021 50.1875 41.9844H47.8984C47.8984 41.4531 47.7839 41.0495 47.5547 40.7734C47.3307 40.4922 47.0052 40.3516 46.5781 40.3516C46.1771 40.3516 45.8646 40.4714 45.6406 40.7109C45.4167 40.9453 45.3047 41.263 45.3047 41.6641C45.3047 41.9766 45.4297 42.2604 45.6797 42.5156C45.9297 42.7656 46.3724 43.026 47.0078 43.2969C48.1172 43.6979 48.9219 44.1901 49.4219 44.7734C49.9271 45.3568 50.1797 46.099 50.1797 47C50.1797 47.9896 49.8646 48.763 49.2344 49.3203C48.6042 49.8776 47.7474 50.1562 46.6641 50.1562C45.9297 50.1562 45.2604 50.0052 44.6562 49.7031C44.0521 49.401 43.5781 48.9688 43.2344 48.4062C42.8958 47.8438 42.7266 47.1797 42.7266 46.4141H45.0312C45.0312 47.0703 45.1589 47.5469 45.4141 47.8438C45.6693 48.1406 46.0859 48.2891 46.6641 48.2891C47.4661 48.2891 47.8672 47.8646 47.8672 47.0156ZM55.6094 50C55.5469 49.8698 55.4844 49.651 55.4219 49.3438C55.026 49.8854 54.4896 50.1562 53.8125 50.1562C53.1042 50.1562 52.5156 49.9219 52.0469 49.4531C51.5833 48.9844 51.3516 48.3776 51.3516 47.6328C51.3516 46.7474 51.6328 46.0625 52.1953 45.5781C52.763 45.0938 53.5781 44.8464 54.6406 44.8359H55.3125V44.1562C55.3125 43.776 55.2474 43.5078 55.1172 43.3516C54.987 43.1953 54.7969 43.1172 54.5469 43.1172C53.9948 43.1172 53.7188 43.4401 53.7188 44.0859H51.5078C51.5078 43.3047 51.7995 42.6615 52.3828 42.1562C52.9714 41.6458 53.7135 41.3906 54.6094 41.3906C55.5365 41.3906 56.2526 41.6328 56.7578 42.1172C57.2682 42.5964 57.5234 43.2839 57.5234 44.1797V48.1562C57.5339 48.8854 57.638 49.4557 57.8359 49.8672V50H55.6094ZM54.3047 48.4219C54.5495 48.4219 54.7578 48.3724 54.9297 48.2734C55.1016 48.1745 55.2292 48.0573 55.3125 47.9219V46.1641H54.7812C54.4062 46.1641 54.1094 46.2839 53.8906 46.5234C53.6771 46.763 53.5703 47.0833 53.5703 47.4844C53.5703 48.1094 53.8151 48.4219 54.3047 48.4219ZM61.4453 50H59.2266V38H61.4453V50ZM67.1719 50C67.1094 49.8698 67.0469 49.651 66.9844 49.3438C66.5885 49.8854 66.0521 50.1562 65.375 50.1562C64.6667 50.1562 64.0781 49.9219 63.6094 49.4531C63.1458 48.9844 62.9141 48.3776 62.9141 47.6328C62.9141 46.7474 63.1953 46.0625 63.7578 45.5781C64.3255 45.0938 65.1406 44.8464 66.2031 44.8359H66.875V44.1562C66.875 43.776 66.8099 43.5078 66.6797 43.3516C66.5495 43.1953 66.3594 43.1172 66.1094 43.1172C65.5573 43.1172 65.2812 43.4401 65.2812 44.0859H63.0703C63.0703 43.3047 63.362 42.6615 63.9453 42.1562C64.5339 41.6458 65.276 41.3906 66.1719 41.3906C67.099 41.3906 67.8151 41.6328 68.3203 42.1172C68.8307 42.5964 69.0859 43.2839 69.0859 44.1797V48.1562C69.0964 48.8854 69.2005 49.4557 69.3984 49.8672V50H67.1719ZM65.8672 48.4219C66.112 48.4219 66.3203 48.3724 66.4922 48.2734C66.6641 48.1745 66.7917 48.0573 66.875 47.9219V46.1641H66.3438C65.9688 46.1641 65.6719 46.2839 65.4531 46.5234C65.2396 46.763 65.1328 47.0833 65.1328 47.4844C65.1328 48.1094 65.3776 48.4219 65.8672 48.4219ZM66.5312 38H69.0156L66.8438 40.4219H65L66.5312 38ZM74.8594 43.6797L74.125 43.6172C73.5208 43.6172 73.112 43.8828 72.8984 44.4141V50H70.6797V41.5469H72.7656L72.8281 42.4609C73.1771 41.7474 73.6589 41.3906 74.2734 41.3906C74.5234 41.3906 74.7266 41.4245 74.8828 41.4922L74.8594 43.6797ZM78.3203 50H76.1016V41.5469H78.3203V50ZM76 39.3594C76 39.0156 76.1094 38.7344 76.3281 38.5156C76.5469 38.2969 76.8385 38.1875 77.2031 38.1875C77.5677 38.1875 77.8594 38.2969 78.0781 38.5156C78.2969 38.7344 78.4062 39.0156 78.4062 39.3594C78.4062 39.6979 78.2969 39.9792 78.0781 40.2031C77.8646 40.4271 77.5729 40.5391 77.2031 40.5391C76.8333 40.5391 76.5391 40.4271 76.3203 40.2031C76.1068 39.9792 76 39.6979 76 39.3594ZM79.7734 45.5C79.7734 44.2188 80.0755 43.2135 80.6797 42.4844C81.2839 41.7552 82.1198 41.3906 83.1875 41.3906C84.2656 41.3906 85.1068 41.7552 85.7109 42.4844C86.3151 43.2135 86.6172 44.224 86.6172 45.5156V46.0547C86.6172 47.3411 86.3177 48.3464 85.7188 49.0703C85.1198 49.7943 84.2812 50.1562 83.2031 50.1562C82.1198 50.1562 81.276 49.7943 80.6719 49.0703C80.0729 48.3411 79.7734 47.3307 79.7734 46.0391V45.5ZM81.9922 46.0547C81.9922 47.5651 82.3958 48.3203 83.2031 48.3203C83.9479 48.3203 84.349 47.6901 84.4062 46.4297L84.4141 45.5C84.4141 44.7292 84.3073 44.1589 84.0938 43.7891C83.8802 43.4141 83.5781 43.2266 83.1875 43.2266C82.8125 43.2266 82.5182 43.4141 82.3047 43.7891C82.0964 44.1589 81.9922 44.7292 81.9922 45.5V46.0547ZM91.7422 47.7344C91.7422 47.5469 91.651 47.375 91.4688 47.2188C91.2917 47.0573 90.8932 46.8411 90.2734 46.5703C89.362 46.2005 88.7344 45.8177 88.3906 45.4219C88.0521 45.026 87.8828 44.5339 87.8828 43.9453C87.8828 43.2057 88.1484 42.5964 88.6797 42.1172C89.2161 41.6328 89.9245 41.3906 90.8047 41.3906C91.7318 41.3906 92.474 41.6302 93.0312 42.1094C93.5885 42.5885 93.8672 43.2318 93.8672 44.0391H91.6562C91.6562 43.3516 91.3698 43.0078 90.7969 43.0078C90.5625 43.0078 90.3698 43.0807 90.2188 43.2266C90.0677 43.3724 89.9922 43.5755 89.9922 43.8359C89.9922 44.0234 90.0755 44.1901 90.2422 44.3359C90.4089 44.4766 90.8021 44.6797 91.4219 44.9453C92.3229 45.2786 92.9583 45.651 93.3281 46.0625C93.7031 46.4688 93.8906 46.9974 93.8906 47.6484C93.8906 48.4036 93.6068 49.0104 93.0391 49.4688C92.4714 49.9271 91.7266 50.1562 90.8047 50.1562C90.1849 50.1562 89.638 50.0365 89.1641 49.7969C88.6901 49.5521 88.3177 49.2135 88.0469 48.7812C87.7812 48.349 87.6484 47.8828 87.6484 47.3828H89.75C89.7604 47.7682 89.849 48.0573 90.0156 48.25C90.1875 48.4427 90.4661 48.5391 90.8516 48.5391C91.4453 48.5391 91.7422 48.2708 91.7422 47.7344ZM95.4609 48.875C95.4609 48.5208 95.5781 48.2292 95.8125 48C96.0521 47.7708 96.362 47.6562 96.7422 47.6562C97.112 47.6562 97.4193 47.7708 97.6641 48C97.9089 48.224 98.0312 48.5156 98.0312 48.875C98.0312 49.2396 97.9062 49.5339 97.6562 49.7578C97.4115 49.9766 97.1068 50.0859 96.7422 50.0859C96.3724 50.0859 96.0651 49.974 95.8203 49.75C95.5807 49.526 95.4609 49.2344 95.4609 48.875ZM95.4609 42.4844C95.4609 42.1302 95.5781 41.8385 95.8125 41.6094C96.0521 41.3802 96.362 41.2656 96.7422 41.2656C97.112 41.2656 97.4193 41.3802 97.6641 41.6094C97.9089 41.8333 98.0312 42.125 98.0312 42.4844C98.0312 42.849 97.9062 43.1432 97.6562 43.3672C97.4115 43.5859 97.1068 43.6953 96.7422 43.6953C96.3724 43.6953 96.0651 43.5833 95.8203 43.3594C95.5807 43.1354 95.4609 42.8438 95.4609 42.4844ZM44 64.8438H42.8594V69H40.5625V57.625H44.2266C45.3776 57.625 46.2656 57.9245 46.8906 58.5234C47.5208 59.1172 47.8359 59.9635 47.8359 61.0625C47.8359 62.5729 47.2865 63.6302 46.1875 64.2344L48.1797 68.8906V69H45.7109L44 64.8438ZM42.8594 62.9297H44.1641C44.6224 62.9297 44.9661 62.7786 45.1953 62.4766C45.4245 62.1693 45.5391 61.7604 45.5391 61.25C45.5391 60.1094 45.0938 59.5391 44.2031 59.5391H42.8594V62.9297ZM53.6328 66C53.6328 65.5677 53.5443 65.2266 53.3672 64.9766C53.1901 64.7266 52.8984 64.4922 52.4922 64.2734C51.6953 63.9193 51.1042 63.5807 50.7188 63.2578C50.3385 62.9297 50.0547 62.5573 49.8672 62.1406C49.6797 61.7188 49.5859 61.2188 49.5859 60.6406C49.5859 59.776 49.8255 59.0625 50.3047 58.5C50.7839 57.9323 51.4167 57.5964 52.2031 57.4922V55.8203H53.3828V57.5234C54.1641 57.6745 54.7708 58.0703 55.2031 58.7109C55.6406 59.3516 55.8594 60.1641 55.8594 61.1484H53.6484C53.6484 60.5234 53.5573 60.0573 53.375 59.75C53.1979 59.4427 52.9661 59.2891 52.6797 59.2891C52.4036 59.2891 52.1875 59.4089 52.0312 59.6484C51.875 59.888 51.7969 60.2214 51.7969 60.6484C51.7969 61.0182 51.8776 61.3255 52.0391 61.5703C52.2005 61.8151 52.5078 62.0703 52.9609 62.3359C53.7943 62.7318 54.3932 63.0938 54.7578 63.4219C55.1276 63.7448 55.401 64.112 55.5781 64.5234C55.7552 64.9349 55.8438 65.4219 55.8438 65.9844C55.8438 66.8646 55.6094 67.5807 55.1406 68.1328C54.6771 68.6849 54.0339 69.0156 53.2109 69.125V70.6797H52.0391V69.125C51.138 68.9948 50.4427 68.612 49.9531 67.9766C49.4635 67.3359 49.2188 66.4844 49.2188 65.4219H51.4297C51.4297 66.0365 51.5286 66.5104 51.7266 66.8438C51.9245 67.1719 52.2214 67.3359 52.6172 67.3359C52.9349 67.3359 53.1823 67.2188 53.3594 66.9844C53.5417 66.7448 53.6328 66.4167 53.6328 66ZM67.7266 69H61.0234V67.4375L64.1016 63.5234C64.4922 62.9818 64.7786 62.5078 64.9609 62.1016C65.1484 61.6901 65.2422 61.2969 65.2422 60.9219C65.2422 60.4167 65.1536 60.0208 64.9766 59.7344C64.8047 59.4479 64.5547 59.3047 64.2266 59.3047C63.8672 59.3047 63.5807 59.4714 63.3672 59.8047C63.1589 60.138 63.0547 60.6068 63.0547 61.2109H60.8359C60.8359 60.513 60.9792 59.875 61.2656 59.2969C61.5573 58.7188 61.9635 58.2708 62.4844 57.9531C63.0104 57.6302 63.6042 57.4688 64.2656 57.4688C65.2812 57.4688 66.0677 57.75 66.625 58.3125C67.1875 58.8698 67.4688 59.6641 67.4688 60.6953C67.4688 61.3359 67.3125 61.987 67 62.6484C66.6927 63.3047 66.1328 64.1146 65.3203 65.0781L63.8594 67.1641H67.7266V69ZM75.7266 64.2969C75.7266 65.8698 75.4401 67.0729 74.8672 67.9062C74.2995 68.7396 73.487 69.1562 72.4297 69.1562C71.3828 69.1562 70.5729 68.7526 70 67.9453C69.4323 67.1328 69.138 65.9714 69.1172 64.4609V62.3125C69.1172 60.7448 69.401 59.5469 69.9688 58.7188C70.5365 57.8854 71.3516 57.4688 72.4141 57.4688C73.4766 57.4688 74.2917 57.8802 74.8594 58.7031C75.4271 59.526 75.7161 60.7005 75.7266 62.2266V64.2969ZM73.5078 61.9922C73.5078 61.0964 73.4193 60.4245 73.2422 59.9766C73.0651 59.5286 72.7891 59.3047 72.4141 59.3047C71.7109 59.3047 71.3464 60.125 71.3203 61.7656V64.6016C71.3203 65.5182 71.4089 66.2005 71.5859 66.6484C71.7682 67.0964 72.0495 67.3203 72.4297 67.3203C72.7891 67.3203 73.0547 67.112 73.2266 66.6953C73.4036 66.2734 73.4974 65.6302 73.5078 64.7656V61.9922ZM77.4531 67.875C77.4531 67.5208 77.5703 67.2292 77.8047 67C78.0443 66.7708 78.3542 66.6562 78.7344 66.6562C79.1042 66.6562 79.4115 66.7708 79.6562 67C79.901 67.224 80.0234 67.5156 80.0234 67.875C80.0234 68.2396 79.8984 68.5339 79.6484 68.7578C79.4036 68.9766 79.099 69.0859 78.7344 69.0859C78.3646 69.0859 78.0573 68.974 77.8125 68.75C77.5729 68.526 77.4531 68.2344 77.4531 67.875ZM86.1562 64.6016C85.6875 65.0807 85.1745 65.3203 84.6172 65.3203C83.7526 65.3203 83.0703 64.974 82.5703 64.2812C82.0755 63.5833 81.8281 62.6536 81.8281 61.4922C81.8281 60.7422 81.9688 60.0573 82.25 59.4375C82.5312 58.8125 82.9219 58.3281 83.4219 57.9844C83.9271 57.6406 84.4896 57.4688 85.1094 57.4688C85.75 57.4688 86.3203 57.6589 86.8203 58.0391C87.3203 58.4193 87.7083 58.9661 87.9844 59.6797C88.2604 60.388 88.3984 61.1953 88.3984 62.1016V62.9062C88.3984 64.8438 87.9714 66.3594 87.1172 67.4531C86.2682 68.5417 85.0625 69.0964 83.5 69.1172H83.2734V67.2109H83.4219C84.2865 67.2057 84.9349 66.9818 85.3672 66.5391C85.8047 66.0964 86.0677 65.4505 86.1562 64.6016ZM85.1797 63.5859C85.6068 63.5859 85.9427 63.2943 86.1875 62.7109V61.6953C86.1875 60.9505 86.0859 60.3672 85.8828 59.9453C85.6797 59.5182 85.4167 59.3047 85.0938 59.3047C84.776 59.3047 84.5182 59.5156 84.3203 59.9375C84.1276 60.3542 84.0312 60.8646 84.0312 61.4688C84.0312 62.125 84.1328 62.6432 84.3359 63.0234C84.5391 63.3984 84.8203 63.5859 85.1797 63.5859ZM93.1328 57.625L95.2812 65.8516L97.4219 57.625H100.422V69H98.1172V65.9219L98.3281 61.1797L96.0547 69H94.4922L92.2188 61.1797L92.4297 65.9219V69H90.1328V57.625H93.1328Z" fill="white"/>
<g id="icon_salario">
<path id="shadow_salario" opacity="0.25" d="M27.6429 87.4286H25.0714L26.3572 86.1429C26.3572 86.1429 26.3643 83.5714 26.3572 83.5714H8.35715L0 91.9286V108H14.7857C14.7857 108 26.3572 96.4357 26.3572 96.4286V93.8571L27.6429 92.5714V87.4286Z" fill="#3E5363"/>
<g id="salario">
<path id="Vector" d="M17.9998 93.857H26.357V96.4285C26.357 96.4356 8.35693 96.4285 8.35693 96.4285V83.5713H26.357C26.3641 83.5713 26.357 86.1428 26.357 86.1428H17.9998V93.857Z" fill="white"/>
<path id="Vector_2" d="M19.2854 92.5713V87.4284H27.6426V92.5713H19.2854ZM23.1426 88.7141C22.4354 88.7141 21.8568 89.2927 21.8568 89.9999C21.8568 90.707 22.4354 91.2856 23.1426 91.2856C23.8497 91.2856 24.4283 90.707 24.4283 89.9999C24.4283 89.2856 23.8497 88.7141 23.1426 88.7141Z" fill="white"/>
</g>
</g>
</g>
</svg>
