<svg width="140" height="109" viewBox="0 0 140 109" fill="none" xmlns="http://www.w3.org/2000/svg">
<g id="hover_servidores">
<path id="bg_beneficio" opacity="0.9" d="M140 108H0V0H140V108Z" fill="#7F3D8B"/>
<path id="Membros: 20" d="M42.2891 38.625L44.4375 46.8516L46.5781 38.625H49.5781V50H47.2734V46.9219L47.4844 42.1797L45.2109 50H43.6484L41.375 42.1797L41.5859 46.9219V50H39.2891V38.625H42.2891ZM54.7344 50.1562C53.599 50.1562 52.7135 49.8177 52.0781 49.1406C51.4427 48.4635 51.125 47.4948 51.125 46.2344V45.5625C51.125 44.2292 51.4167 43.2005 52 42.4766C52.5833 41.7526 53.4193 41.3906 54.5078 41.3906C55.5703 41.3906 56.3698 41.7318 56.9062 42.4141C57.4427 43.0911 57.7161 44.0964 57.7266 45.4297V46.5156H53.3281C53.3594 47.1406 53.4974 47.599 53.7422 47.8906C53.987 48.1771 54.3646 48.3203 54.875 48.3203C55.6146 48.3203 56.2318 48.0677 56.7266 47.5625L57.5938 48.8984C57.3229 49.2734 56.9297 49.5781 56.4141 49.8125C55.8984 50.0417 55.3385 50.1562 54.7344 50.1562ZM53.3438 44.9688H55.5547V44.7656C55.5443 44.2604 55.4609 43.8776 55.3047 43.6172C55.1484 43.3568 54.8776 43.2266 54.4922 43.2266C54.1068 43.2266 53.8255 43.3646 53.6484 43.6406C53.4766 43.9167 53.375 44.3594 53.3438 44.9688ZM61.0547 41.5469L61.1172 42.3281C61.612 41.7031 62.2656 41.3906 63.0781 41.3906C63.9219 41.3906 64.5182 41.7708 64.8672 42.5312C65.3516 41.7708 66.0417 41.3906 66.9375 41.3906C68.4167 41.3906 69.1745 42.4141 69.2109 44.4609V50H67V44.6016C67 44.112 66.9323 43.763 66.7969 43.5547C66.6615 43.3464 66.4323 43.2422 66.1094 43.2422C65.6979 43.2422 65.3906 43.4948 65.1875 44L65.2031 44.2656V50H62.9922V44.6172C62.9922 44.1328 62.9271 43.7839 62.7969 43.5703C62.6667 43.3516 62.4349 43.2422 62.1016 43.2422C61.7214 43.2422 61.4193 43.4479 61.1953 43.8594V50H58.9844V41.5469H61.0547ZM77.4453 46.0469C77.4453 47.4167 77.2266 48.4453 76.7891 49.1328C76.3516 49.8151 75.6641 50.1562 74.7266 50.1562C73.9922 50.1562 73.4036 49.8255 72.9609 49.1641L72.8906 50H70.8516V38H73.0625V42.2344C73.4792 41.6719 74.0286 41.3906 74.7109 41.3906C75.6484 41.3906 76.3359 41.7318 76.7734 42.4141C77.2109 43.0911 77.4349 44.0859 77.4453 45.3984V46.0469ZM75.2344 45.4922C75.2344 44.6016 75.1484 44.0052 74.9766 43.7031C74.8047 43.3958 74.5052 43.2422 74.0781 43.2422C73.6146 43.2422 73.276 43.4531 73.0625 43.875V47.7266C73.2604 48.1224 73.6042 48.3203 74.0938 48.3203C74.5156 48.3203 74.8073 48.1823 74.9688 47.9062C75.1354 47.6302 75.224 47.0938 75.2344 46.2969V45.4922ZM82.9453 43.6797L82.2109 43.6172C81.6068 43.6172 81.1979 43.8828 80.9844 44.4141V50H78.7656V41.5469H80.8516L80.9141 42.4609C81.263 41.7474 81.7448 41.3906 82.3594 41.3906C82.6094 41.3906 82.8125 41.4245 82.9688 41.4922L82.9453 43.6797ZM83.5469 45.5C83.5469 44.2188 83.849 43.2135 84.4531 42.4844C85.0573 41.7552 85.8932 41.3906 86.9609 41.3906C88.0391 41.3906 88.8802 41.7552 89.4844 42.4844C90.0885 43.2135 90.3906 44.224 90.3906 45.5156V46.0547C90.3906 47.3411 90.0911 48.3464 89.4922 49.0703C88.8932 49.7943 88.0547 50.1562 86.9766 50.1562C85.8932 50.1562 85.0495 49.7943 84.4453 49.0703C83.8464 48.3411 83.5469 47.3307 83.5469 46.0391V45.5ZM85.7656 46.0547C85.7656 47.5651 86.1693 48.3203 86.9766 48.3203C87.7214 48.3203 88.1224 47.6901 88.1797 46.4297L88.1875 45.5C88.1875 44.7292 88.0807 44.1589 87.8672 43.7891C87.6536 43.4141 87.3516 43.2266 86.9609 43.2266C86.5859 43.2266 86.2917 43.4141 86.0781 43.7891C85.8698 44.1589 85.7656 44.7292 85.7656 45.5V46.0547ZM95.5156 47.7344C95.5156 47.5469 95.4245 47.375 95.2422 47.2188C95.0651 47.0573 94.6667 46.8411 94.0469 46.5703C93.1354 46.2005 92.5078 45.8177 92.1641 45.4219C91.8255 45.026 91.6562 44.5339 91.6562 43.9453C91.6562 43.2057 91.9219 42.5964 92.4531 42.1172C92.9896 41.6328 93.6979 41.3906 94.5781 41.3906C95.5052 41.3906 96.2474 41.6302 96.8047 42.1094C97.362 42.5885 97.6406 43.2318 97.6406 44.0391H95.4297C95.4297 43.3516 95.1432 43.0078 94.5703 43.0078C94.3359 43.0078 94.1432 43.0807 93.9922 43.2266C93.8411 43.3724 93.7656 43.5755 93.7656 43.8359C93.7656 44.0234 93.849 44.1901 94.0156 44.3359C94.1823 44.4766 94.5755 44.6797 95.1953 44.9453C96.0964 45.2786 96.7318 45.651 97.1016 46.0625C97.4766 46.4688 97.6641 46.9974 97.6641 47.6484C97.6641 48.4036 97.3802 49.0104 96.8125 49.4688C96.2448 49.9271 95.5 50.1562 94.5781 50.1562C93.9583 50.1562 93.4115 50.0365 92.9375 49.7969C92.4635 49.5521 92.0911 49.2135 91.8203 48.7812C91.5547 48.349 91.4219 47.8828 91.4219 47.3828H93.5234C93.5339 47.7682 93.6224 48.0573 93.7891 48.25C93.9609 48.4427 94.2396 48.5391 94.625 48.5391C95.2188 48.5391 95.5156 48.2708 95.5156 47.7344ZM99.2344 48.875C99.2344 48.5208 99.3516 48.2292 99.5859 48C99.8255 47.7708 100.135 47.6562 100.516 47.6562C100.885 47.6562 101.193 47.7708 101.438 48C101.682 48.224 101.805 48.5156 101.805 48.875C101.805 49.2396 101.68 49.5339 101.43 49.7578C101.185 49.9766 100.88 50.0859 100.516 50.0859C100.146 50.0859 99.8385 49.974 99.5938 49.75C99.3542 49.526 99.2344 49.2344 99.2344 48.875ZM99.2344 42.4844C99.2344 42.1302 99.3516 41.8385 99.5859 41.6094C99.8255 41.3802 100.135 41.2656 100.516 41.2656C100.885 41.2656 101.193 41.3802 101.438 41.6094C101.682 41.8333 101.805 42.125 101.805 42.4844C101.805 42.849 101.68 43.1432 101.43 43.3672C101.185 43.5859 100.88 43.6953 100.516 43.6953C100.146 43.6953 99.8385 43.5833 99.5938 43.3594C99.3542 43.1354 99.2344 42.8438 99.2344 42.4844ZM69.8516 69H63.1484V67.4375L66.2266 63.5234C66.6172 62.9818 66.9036 62.5078 67.0859 62.1016C67.2734 61.6901 67.3672 61.2969 67.3672 60.9219C67.3672 60.4167 67.2786 60.0208 67.1016 59.7344C66.9297 59.4479 66.6797 59.3047 66.3516 59.3047C65.9922 59.3047 65.7057 59.4714 65.4922 59.8047C65.2839 60.138 65.1797 60.6068 65.1797 61.2109H62.9609C62.9609 60.513 63.1042 59.875 63.3906 59.2969C63.6823 58.7188 64.0885 58.2708 64.6094 57.9531C65.1354 57.6302 65.7292 57.4688 66.3906 57.4688C67.4062 57.4688 68.1927 57.75 68.75 58.3125C69.3125 58.8698 69.5938 59.6641 69.5938 60.6953C69.5938 61.3359 69.4375 61.987 69.125 62.6484C68.8177 63.3047 68.2578 64.1146 67.4453 65.0781L65.9844 67.1641H69.8516V69ZM77.8516 64.2969C77.8516 65.8698 77.5651 67.0729 76.9922 67.9062C76.4245 68.7396 75.612 69.1562 74.5547 69.1562C73.5078 69.1562 72.6979 68.7526 72.125 67.9453C71.5573 67.1328 71.263 65.9714 71.2422 64.4609V62.3125C71.2422 60.7448 71.526 59.5469 72.0938 58.7188C72.6615 57.8854 73.4766 57.4688 74.5391 57.4688C75.6016 57.4688 76.4167 57.8802 76.9844 58.7031C77.5521 59.526 77.8411 60.7005 77.8516 62.2266V64.2969ZM75.6328 61.9922C75.6328 61.0964 75.5443 60.4245 75.3672 59.9766C75.1901 59.5286 74.9141 59.3047 74.5391 59.3047C73.8359 59.3047 73.4714 60.125 73.4453 61.7656V64.6016C73.4453 65.5182 73.5339 66.2005 73.7109 66.6484C73.8932 67.0964 74.1745 67.3203 74.5547 67.3203C74.9141 67.3203 75.1797 67.112 75.3516 66.6953C75.5286 66.2734 75.6224 65.6302 75.6328 64.7656V61.9922Z" fill="white"/>
<g id="icon_membros">
<path id="shadow_membros" opacity="0.25" d="M27.6429 80.3571V88.0714L19.2857 96.4286V99.6429L10.9286 108H0V86.7857L8.35714 80.3571H12.2143V82.9286L13.5 81.6429H22.5L23.7857 80.3571H27.6429Z" fill="#3E5363"/>
<g id="membros">
<path id="Vector" d="M13.5005 81.6428V86.7857H16.7148V99.6428H19.2862V86.7857H22.5005V81.6428H13.5005Z" fill="white"/>
<path id="Vector_2" d="M27.643 80.3572H23.7859V88.0715H27.643V80.3572Z" fill="white"/>
<path id="Vector_3" d="M12.2146 80.3572H8.35742V88.0715H12.2146V80.3572Z" fill="white"/>
</g>
</g>
</g>
</svg>
