<svg width="140" height="109" viewBox="0 0 140 109" fill="none" xmlns="http://www.w3.org/2000/svg">
<g id="hover_servidores">
<path id="bg_beneficio" opacity="0.9" d="M140 108H0V0H140V108Z" fill="#CA6D99"/>
<path id="Inativos: 300" d="M46.125 50H43.8281V38.625H46.125V50ZM49.9688 41.5469L50.0312 42.3828C50.5312 41.7214 51.1849 41.3906 51.9922 41.3906C53.4453 41.3906 54.1927 42.4089 54.2344 44.4453V50H52.0156V44.6094C52.0156 44.1302 51.9427 43.7839 51.7969 43.5703C51.6562 43.3516 51.4062 43.2422 51.0469 43.2422C50.6458 43.2422 50.3333 43.4479 50.1094 43.8594V50H47.8906V41.5469H49.9688ZM59.8359 50C59.7734 49.8698 59.7109 49.651 59.6484 49.3438C59.2526 49.8854 58.7161 50.1562 58.0391 50.1562C57.3307 50.1562 56.7422 49.9219 56.2734 49.4531C55.8099 48.9844 55.5781 48.3776 55.5781 47.6328C55.5781 46.7474 55.8594 46.0625 56.4219 45.5781C56.9896 45.0938 57.8047 44.8464 58.8672 44.8359H59.5391V44.1562C59.5391 43.776 59.474 43.5078 59.3438 43.3516C59.2135 43.1953 59.0234 43.1172 58.7734 43.1172C58.2214 43.1172 57.9453 43.4401 57.9453 44.0859H55.7344C55.7344 43.3047 56.026 42.6615 56.6094 42.1562C57.1979 41.6458 57.9401 41.3906 58.8359 41.3906C59.763 41.3906 60.4792 41.6328 60.9844 42.1172C61.4948 42.5964 61.75 43.2839 61.75 44.1797V48.1562C61.7604 48.8854 61.8646 49.4557 62.0625 49.8672V50H59.8359ZM58.5312 48.4219C58.776 48.4219 58.9844 48.3724 59.1562 48.2734C59.3281 48.1745 59.4557 48.0573 59.5391 47.9219V46.1641H59.0078C58.6328 46.1641 58.3359 46.2839 58.1172 46.5234C57.9036 46.763 57.7969 47.0833 57.7969 47.4844C57.7969 48.1094 58.0417 48.4219 58.5312 48.4219ZM65.9219 39.4688V41.5469H67.0547V43.2109H65.9219V47.4062C65.9219 47.7396 65.9661 47.9688 66.0547 48.0938C66.1484 48.2188 66.3255 48.2812 66.5859 48.2812C66.7995 48.2812 66.974 48.263 67.1094 48.2266L67.0938 49.9453C66.7188 50.0859 66.3125 50.1562 65.875 50.1562C64.4479 50.1562 63.7266 49.3385 63.7109 47.7031V43.2109H62.7344V41.5469H63.7109V39.4688H65.9219ZM70.5938 50H68.375V41.5469H70.5938V50ZM68.2734 39.3594C68.2734 39.0156 68.3828 38.7344 68.6016 38.5156C68.8203 38.2969 69.112 38.1875 69.4766 38.1875C69.8411 38.1875 70.1328 38.2969 70.3516 38.5156C70.5703 38.7344 70.6797 39.0156 70.6797 39.3594C70.6797 39.6979 70.5703 39.9792 70.3516 40.2031C70.138 40.4271 69.8464 40.5391 69.4766 40.5391C69.1068 40.5391 68.8125 40.4271 68.5938 40.2031C68.3802 39.9792 68.2734 39.6979 68.2734 39.3594ZM75.0781 46.875L76.1484 41.5469H78.4531L76.1328 50H74.0234L71.6953 41.5469H74.0078L75.0781 46.875ZM79.1094 45.5C79.1094 44.2188 79.4115 43.2135 80.0156 42.4844C80.6198 41.7552 81.4557 41.3906 82.5234 41.3906C83.6016 41.3906 84.4427 41.7552 85.0469 42.4844C85.651 43.2135 85.9531 44.224 85.9531 45.5156V46.0547C85.9531 47.3411 85.6536 48.3464 85.0547 49.0703C84.4557 49.7943 83.6172 50.1562 82.5391 50.1562C81.4557 50.1562 80.612 49.7943 80.0078 49.0703C79.4089 48.3411 79.1094 47.3307 79.1094 46.0391V45.5ZM81.3281 46.0547C81.3281 47.5651 81.7318 48.3203 82.5391 48.3203C83.2839 48.3203 83.6849 47.6901 83.7422 46.4297L83.75 45.5C83.75 44.7292 83.6432 44.1589 83.4297 43.7891C83.2161 43.4141 82.9141 43.2266 82.5234 43.2266C82.1484 43.2266 81.8542 43.4141 81.6406 43.7891C81.4323 44.1589 81.3281 44.7292 81.3281 45.5V46.0547ZM91.0781 47.7344C91.0781 47.5469 90.987 47.375 90.8047 47.2188C90.6276 47.0573 90.2292 46.8411 89.6094 46.5703C88.6979 46.2005 88.0703 45.8177 87.7266 45.4219C87.388 45.026 87.2188 44.5339 87.2188 43.9453C87.2188 43.2057 87.4844 42.5964 88.0156 42.1172C88.5521 41.6328 89.2604 41.3906 90.1406 41.3906C91.0677 41.3906 91.8099 41.6302 92.3672 42.1094C92.9245 42.5885 93.2031 43.2318 93.2031 44.0391H90.9922C90.9922 43.3516 90.7057 43.0078 90.1328 43.0078C89.8984 43.0078 89.7057 43.0807 89.5547 43.2266C89.4036 43.3724 89.3281 43.5755 89.3281 43.8359C89.3281 44.0234 89.4115 44.1901 89.5781 44.3359C89.7448 44.4766 90.138 44.6797 90.7578 44.9453C91.6589 45.2786 92.2943 45.651 92.6641 46.0625C93.0391 46.4688 93.2266 46.9974 93.2266 47.6484C93.2266 48.4036 92.9427 49.0104 92.375 49.4688C91.8073 49.9271 91.0625 50.1562 90.1406 50.1562C89.5208 50.1562 88.974 50.0365 88.5 49.7969C88.026 49.5521 87.6536 49.2135 87.3828 48.7812C87.1172 48.349 86.9844 47.8828 86.9844 47.3828H89.0859C89.0964 47.7682 89.1849 48.0573 89.3516 48.25C89.5234 48.4427 89.8021 48.5391 90.1875 48.5391C90.7812 48.5391 91.0781 48.2708 91.0781 47.7344ZM94.7969 48.875C94.7969 48.5208 94.9141 48.2292 95.1484 48C95.388 47.7708 95.6979 47.6562 96.0781 47.6562C96.4479 47.6562 96.7552 47.7708 97 48C97.2448 48.224 97.3672 48.5156 97.3672 48.875C97.3672 49.2396 97.2422 49.5339 96.9922 49.7578C96.7474 49.9766 96.4427 50.0859 96.0781 50.0859C95.7083 50.0859 95.401 49.974 95.1562 49.75C94.9167 49.526 94.7969 49.2344 94.7969 48.875ZM94.7969 42.4844C94.7969 42.1302 94.9141 41.8385 95.1484 41.6094C95.388 41.3802 95.6979 41.2656 96.0781 41.2656C96.4479 41.2656 96.7552 41.3802 97 41.6094C97.2448 41.8333 97.3672 42.125 97.3672 42.4844C97.3672 42.849 97.2422 43.1432 96.9922 43.3672C96.7474 43.5859 96.4427 43.6953 96.0781 43.6953C95.7083 43.6953 95.401 43.5833 95.1562 43.3594C94.9167 43.1354 94.7969 42.8438 94.7969 42.4844ZM61.0703 62.3047H62.1406C62.5469 62.3047 62.8438 62.1641 63.0312 61.8828C63.224 61.5964 63.3203 61.2161 63.3203 60.7422C63.3203 60.2891 63.2214 59.9375 63.0234 59.6875C62.8307 59.4323 62.5703 59.3047 62.2422 59.3047C61.9349 59.3047 61.6823 59.4245 61.4844 59.6641C61.2917 59.9036 61.1953 60.2057 61.1953 60.5703H58.9844C58.9844 59.9766 59.1198 59.4453 59.3906 58.9766C59.6667 58.5026 60.0495 58.1328 60.5391 57.8672C61.0339 57.6016 61.5807 57.4688 62.1797 57.4688C63.2266 57.4688 64.0469 57.7578 64.6406 58.3359C65.2344 58.9141 65.5312 59.7057 65.5312 60.7109C65.5312 61.2266 65.3958 61.7057 65.125 62.1484C64.8594 62.5859 64.5078 62.9219 64.0703 63.1562C64.6068 63.3854 65.0052 63.7292 65.2656 64.1875C65.5312 64.6458 65.6641 65.1875 65.6641 65.8125C65.6641 66.8229 65.3411 67.6328 64.6953 68.2422C64.0547 68.8516 63.2109 69.1562 62.1641 69.1562C61.1901 69.1562 60.3984 68.8568 59.7891 68.2578C59.1849 67.6536 58.8828 66.862 58.8828 65.8828H61.0938C61.0938 66.2891 61.2005 66.6302 61.4141 66.9062C61.6276 67.1823 61.8984 67.3203 62.2266 67.3203C62.6068 67.3203 62.9062 67.1797 63.125 66.8984C63.349 66.6172 63.4609 66.2422 63.4609 65.7734C63.4609 64.6536 63.026 64.0911 62.1562 64.0859H61.0703V62.3047ZM73.8047 64.2969C73.8047 65.8698 73.5182 67.0729 72.9453 67.9062C72.3776 68.7396 71.5651 69.1562 70.5078 69.1562C69.4609 69.1562 68.651 68.7526 68.0781 67.9453C67.5104 67.1328 67.2161 65.9714 67.1953 64.4609V62.3125C67.1953 60.7448 67.4792 59.5469 68.0469 58.7188C68.6146 57.8854 69.4297 57.4688 70.4922 57.4688C71.5547 57.4688 72.3698 57.8802 72.9375 58.7031C73.5052 59.526 73.7943 60.7005 73.8047 62.2266V64.2969ZM71.5859 61.9922C71.5859 61.0964 71.4974 60.4245 71.3203 59.9766C71.1432 59.5286 70.8672 59.3047 70.4922 59.3047C69.7891 59.3047 69.4245 60.125 69.3984 61.7656V64.6016C69.3984 65.5182 69.487 66.2005 69.6641 66.6484C69.8464 67.0964 70.1276 67.3203 70.5078 67.3203C70.8672 67.3203 71.1328 67.112 71.3047 66.6953C71.4818 66.2734 71.5755 65.6302 71.5859 64.7656V61.9922ZM81.8984 64.2969C81.8984 65.8698 81.612 67.0729 81.0391 67.9062C80.4714 68.7396 79.6589 69.1562 78.6016 69.1562C77.5547 69.1562 76.7448 68.7526 76.1719 67.9453C75.6042 67.1328 75.3099 65.9714 75.2891 64.4609V62.3125C75.2891 60.7448 75.5729 59.5469 76.1406 58.7188C76.7083 57.8854 77.5234 57.4688 78.5859 57.4688C79.6484 57.4688 80.4635 57.8802 81.0312 58.7031C81.599 59.526 81.888 60.7005 81.8984 62.2266V64.2969ZM79.6797 61.9922C79.6797 61.0964 79.5911 60.4245 79.4141 59.9766C79.237 59.5286 78.9609 59.3047 78.5859 59.3047C77.8828 59.3047 77.5182 60.125 77.4922 61.7656V64.6016C77.4922 65.5182 77.5807 66.2005 77.7578 66.6484C77.9401 67.0964 78.2214 67.3203 78.6016 67.3203C78.9609 67.3203 79.2266 67.112 79.3984 66.6953C79.5755 66.2734 79.6693 65.6302 79.6797 64.7656V61.9922Z" fill="white"/>
<g id="icon_inativos">
<path id="shadow_inativos" opacity="0.25" d="M26.3571 91.6071L26.3572 100.286L18.6429 108H0V96.4286L18 79.7143L27.6429 88.7143L26.3572 90L26.3571 91.6071Z" fill="#3E5363"/>
<g id="inativos">
<path id="Vector" d="M9.64307 90V100.286H16.7145V96H19.2859V100.286H26.3574V90H9.64307Z" fill="white"/>
<path id="Vector_2" d="M18.0003 79.7144L8.35742 88.7144H27.6432L18.0003 79.7144Z" fill="white"/>
</g>
</g>
</g>
</svg>
