<svg width="140" height="109" viewBox="0 0 140 109" fill="none" xmlns="http://www.w3.org/2000/svg">
<g id="hover_beneficios">
<path id="bg_beneficio" opacity="0.9" d="M140 108H0V0H140V108Z" fill="#97BB2F"/>
<path id="Benef&#195;&#173;cios: R$ 12.7M" d="M35.0938 50V38.625H38.6094C39.7969 38.625 40.6979 38.8906 41.3125 39.4219C41.9323 39.9479 42.2422 40.7214 42.2422 41.7422C42.2422 42.3203 42.1146 42.8177 41.8594 43.2344C41.6042 43.651 41.2552 43.9557 40.8125 44.1484C41.3229 44.2943 41.7161 44.5885 41.9922 45.0312C42.2682 45.4688 42.4062 46.0104 42.4062 46.6562C42.4062 47.7604 42.1016 48.5938 41.4922 49.1562C40.888 49.7188 40.0104 50 38.8594 50H35.0938ZM37.3906 45.0547V48.0938H38.8594C39.2708 48.0938 39.5833 47.9661 39.7969 47.7109C40.0104 47.4557 40.1172 47.0938 40.1172 46.625C40.1172 45.6042 39.7474 45.0807 39.0078 45.0547H37.3906ZM37.3906 43.3828H38.5859C39.487 43.3828 39.9375 42.9167 39.9375 41.9844C39.9375 41.4688 39.8333 41.099 39.625 40.875C39.4167 40.651 39.0781 40.5391 38.6094 40.5391H37.3906V43.3828ZM47.3828 50.1562C46.2474 50.1562 45.362 49.8177 44.7266 49.1406C44.0911 48.4635 43.7734 47.4948 43.7734 46.2344V45.5625C43.7734 44.2292 44.0651 43.2005 44.6484 42.4766C45.2318 41.7526 46.0677 41.3906 47.1562 41.3906C48.2188 41.3906 49.0182 41.7318 49.5547 42.4141C50.0911 43.0911 50.3646 44.0964 50.375 45.4297V46.5156H45.9766C46.0078 47.1406 46.1458 47.599 46.3906 47.8906C46.6354 48.1771 47.013 48.3203 47.5234 48.3203C48.263 48.3203 48.8802 48.0677 49.375 47.5625L50.2422 48.8984C49.9714 49.2734 49.5781 49.5781 49.0625 49.8125C48.5469 50.0417 47.987 50.1562 47.3828 50.1562ZM45.9922 44.9688H48.2031V44.7656C48.1927 44.2604 48.1094 43.8776 47.9531 43.6172C47.7969 43.3568 47.526 43.2266 47.1406 43.2266C46.7552 43.2266 46.474 43.3646 46.2969 43.6406C46.125 43.9167 46.0234 44.3594 45.9922 44.9688ZM53.6484 41.5469L53.7109 42.3828C54.2109 41.7214 54.8646 41.3906 55.6719 41.3906C57.125 41.3906 57.8724 42.4089 57.9141 44.4453V50H55.6953V44.6094C55.6953 44.1302 55.6224 43.7839 55.4766 43.5703C55.3359 43.3516 55.0859 43.2422 54.7266 43.2422C54.3255 43.2422 54.013 43.4479 53.7891 43.8594V50H51.5703V41.5469H53.6484ZM62.9141 50.1562C61.7786 50.1562 60.8932 49.8177 60.2578 49.1406C59.6224 48.4635 59.3047 47.4948 59.3047 46.2344V45.5625C59.3047 44.2292 59.5964 43.2005 60.1797 42.4766C60.763 41.7526 61.599 41.3906 62.6875 41.3906C63.75 41.3906 64.5495 41.7318 65.0859 42.4141C65.6224 43.0911 65.8958 44.0964 65.9062 45.4297V46.5156H61.5078C61.5391 47.1406 61.6771 47.599 61.9219 47.8906C62.1667 48.1771 62.5443 48.3203 63.0547 48.3203C63.7943 48.3203 64.4115 48.0677 64.9062 47.5625L65.7734 48.8984C65.5026 49.2734 65.1094 49.5781 64.5938 49.8125C64.0781 50.0417 63.5182 50.1562 62.9141 50.1562ZM61.5234 44.9688H63.7344V44.7656C63.724 44.2604 63.6406 43.8776 63.4844 43.6172C63.3281 43.3568 63.0573 43.2266 62.6719 43.2266C62.2865 43.2266 62.0052 43.3646 61.8281 43.6406C61.6562 43.9167 61.5547 44.3594 61.5234 44.9688ZM67.6641 50V43.2109H66.6406V41.5469H67.6641V40.7891C67.6693 39.8568 67.9141 39.1328 68.3984 38.6172C68.888 38.0964 69.5625 37.8359 70.4219 37.8359C70.6823 37.8359 71.0156 37.888 71.4219 37.9922L71.4062 39.7578C71.2552 39.7109 71.0755 39.6875 70.8672 39.6875C70.2109 39.6875 69.8828 40.0781 69.8828 40.8594V41.5469H71.2031V43.2109H69.8828V50H67.6641ZM74.7812 50H72.5703V41.5469H74.7812V50ZM74.1406 38.1172H76.625L74.4531 40.5391H72.6094L74.1406 38.1172ZM79.6641 48.3203C80.3047 48.3203 80.6302 47.9036 80.6406 47.0703H82.7188C82.7083 47.9922 82.4245 48.737 81.8672 49.3047C81.3099 49.8724 80.5911 50.1562 79.7109 50.1562C78.6224 50.1562 77.7917 49.8177 77.2188 49.1406C76.6458 48.4635 76.3542 47.4661 76.3438 46.1484V45.4766C76.3438 44.1484 76.625 43.1354 77.1875 42.4375C77.7552 41.7396 78.5911 41.3906 79.6953 41.3906C80.6276 41.3906 81.362 41.6797 81.8984 42.2578C82.4349 42.8307 82.7083 43.6458 82.7188 44.7031H80.6406C80.6354 44.2292 80.5573 43.8646 80.4062 43.6094C80.2552 43.3542 80.0052 43.2266 79.6562 43.2266C79.2708 43.2266 78.9948 43.3646 78.8281 43.6406C78.6615 43.9115 78.5729 44.4401 78.5625 45.2266V46.0859C78.5625 46.7734 78.5964 47.2552 78.6641 47.5312C78.7318 47.8021 78.8438 48.0026 79 48.1328C79.1562 48.2578 79.3776 48.3203 79.6641 48.3203ZM86.2891 50H84.0703V41.5469H86.2891V50ZM83.9688 39.3594C83.9688 39.0156 84.0781 38.7344 84.2969 38.5156C84.5156 38.2969 84.8073 38.1875 85.1719 38.1875C85.5365 38.1875 85.8281 38.2969 86.0469 38.5156C86.2656 38.7344 86.375 39.0156 86.375 39.3594C86.375 39.6979 86.2656 39.9792 86.0469 40.2031C85.8333 40.4271 85.5417 40.5391 85.1719 40.5391C84.8021 40.5391 84.5078 40.4271 84.2891 40.2031C84.0755 39.9792 83.9688 39.6979 83.9688 39.3594ZM87.7422 45.5C87.7422 44.2188 88.0443 43.2135 88.6484 42.4844C89.2526 41.7552 90.0885 41.3906 91.1562 41.3906C92.2344 41.3906 93.0755 41.7552 93.6797 42.4844C94.2839 43.2135 94.5859 44.224 94.5859 45.5156V46.0547C94.5859 47.3411 94.2865 48.3464 93.6875 49.0703C93.0885 49.7943 92.25 50.1562 91.1719 50.1562C90.0885 50.1562 89.2448 49.7943 88.6406 49.0703C88.0417 48.3411 87.7422 47.3307 87.7422 46.0391V45.5ZM89.9609 46.0547C89.9609 47.5651 90.3646 48.3203 91.1719 48.3203C91.9167 48.3203 92.3177 47.6901 92.375 46.4297L92.3828 45.5C92.3828 44.7292 92.276 44.1589 92.0625 43.7891C91.849 43.4141 91.5469 43.2266 91.1562 43.2266C90.7812 43.2266 90.487 43.4141 90.2734 43.7891C90.0651 44.1589 89.9609 44.7292 89.9609 45.5V46.0547ZM99.7109 47.7344C99.7109 47.5469 99.6198 47.375 99.4375 47.2188C99.2604 47.0573 98.862 46.8411 98.2422 46.5703C97.3307 46.2005 96.7031 45.8177 96.3594 45.4219C96.0208 45.026 95.8516 44.5339 95.8516 43.9453C95.8516 43.2057 96.1172 42.5964 96.6484 42.1172C97.1849 41.6328 97.8932 41.3906 98.7734 41.3906C99.7005 41.3906 100.443 41.6302 101 42.1094C101.557 42.5885 101.836 43.2318 101.836 44.0391H99.625C99.625 43.3516 99.3385 43.0078 98.7656 43.0078C98.5312 43.0078 98.3385 43.0807 98.1875 43.2266C98.0365 43.3724 97.9609 43.5755 97.9609 43.8359C97.9609 44.0234 98.0443 44.1901 98.2109 44.3359C98.3776 44.4766 98.7708 44.6797 99.3906 44.9453C100.292 45.2786 100.927 45.651 101.297 46.0625C101.672 46.4688 101.859 46.9974 101.859 47.6484C101.859 48.4036 101.576 49.0104 101.008 49.4688C100.44 49.9271 99.6953 50.1562 98.7734 50.1562C98.1536 50.1562 97.6068 50.0365 97.1328 49.7969C96.6589 49.5521 96.2865 49.2135 96.0156 48.7812C95.75 48.349 95.6172 47.8828 95.6172 47.3828H97.7188C97.7292 47.7682 97.8177 48.0573 97.9844 48.25C98.1562 48.4427 98.4349 48.5391 98.8203 48.5391C99.4141 48.5391 99.7109 48.2708 99.7109 47.7344ZM103.43 48.875C103.43 48.5208 103.547 48.2292 103.781 48C104.021 47.7708 104.331 47.6562 104.711 47.6562C105.081 47.6562 105.388 47.7708 105.633 48C105.878 48.224 106 48.5156 106 48.875C106 49.2396 105.875 49.5339 105.625 49.7578C105.38 49.9766 105.076 50.0859 104.711 50.0859C104.341 50.0859 104.034 49.974 103.789 49.75C103.549 49.526 103.43 49.2344 103.43 48.875ZM103.43 42.4844C103.43 42.1302 103.547 41.8385 103.781 41.6094C104.021 41.3802 104.331 41.2656 104.711 41.2656C105.081 41.2656 105.388 41.3802 105.633 41.6094C105.878 41.8333 106 42.125 106 42.4844C106 42.849 105.875 43.1432 105.625 43.3672C105.38 43.5859 105.076 43.6953 104.711 43.6953C104.341 43.6953 104.034 43.5833 103.789 43.3594C103.549 43.1354 103.43 42.8438 103.43 42.4844ZM44 64.8438H42.8594V69H40.5625V57.625H44.2266C45.3776 57.625 46.2656 57.9245 46.8906 58.5234C47.5208 59.1172 47.8359 59.9635 47.8359 61.0625C47.8359 62.5729 47.2865 63.6302 46.1875 64.2344L48.1797 68.8906V69H45.7109L44 64.8438ZM42.8594 62.9297H44.1641C44.6224 62.9297 44.9661 62.7786 45.1953 62.4766C45.4245 62.1693 45.5391 61.7604 45.5391 61.25C45.5391 60.1094 45.0938 59.5391 44.2031 59.5391H42.8594V62.9297ZM53.6328 66C53.6328 65.5677 53.5443 65.2266 53.3672 64.9766C53.1901 64.7266 52.8984 64.4922 52.4922 64.2734C51.6953 63.9193 51.1042 63.5807 50.7188 63.2578C50.3385 62.9297 50.0547 62.5573 49.8672 62.1406C49.6797 61.7188 49.5859 61.2188 49.5859 60.6406C49.5859 59.776 49.8255 59.0625 50.3047 58.5C50.7839 57.9323 51.4167 57.5964 52.2031 57.4922V55.8203H53.3828V57.5234C54.1641 57.6745 54.7708 58.0703 55.2031 58.7109C55.6406 59.3516 55.8594 60.1641 55.8594 61.1484H53.6484C53.6484 60.5234 53.5573 60.0573 53.375 59.75C53.1979 59.4427 52.9661 59.2891 52.6797 59.2891C52.4036 59.2891 52.1875 59.4089 52.0312 59.6484C51.875 59.888 51.7969 60.2214 51.7969 60.6484C51.7969 61.0182 51.8776 61.3255 52.0391 61.5703C52.2005 61.8151 52.5078 62.0703 52.9609 62.3359C53.7943 62.7318 54.3932 63.0938 54.7578 63.4219C55.1276 63.7448 55.401 64.112 55.5781 64.5234C55.7552 64.9349 55.8438 65.4219 55.8438 65.9844C55.8438 66.8646 55.6094 67.5807 55.1406 68.1328C54.6771 68.6849 54.0339 69.0156 53.2109 69.125V70.6797H52.0391V69.125C51.138 68.9948 50.4427 68.612 49.9531 67.9766C49.4635 67.3359 49.2188 66.4844 49.2188 65.4219H51.4297C51.4297 66.0365 51.5286 66.5104 51.7266 66.8438C51.9245 67.1719 52.2214 67.3359 52.6172 67.3359C52.9349 67.3359 53.1823 67.2188 53.3594 66.9844C53.5417 66.7448 53.6328 66.4167 53.6328 66ZM65.8906 69H63.6719V60.3125L61.5078 61.1484V59.3047L65.6562 57.6094H65.8906V69ZM75.8203 69H69.1172V67.4375L72.1953 63.5234C72.5859 62.9818 72.8724 62.5078 73.0547 62.1016C73.2422 61.6901 73.3359 61.2969 73.3359 60.9219C73.3359 60.4167 73.2474 60.0208 73.0703 59.7344C72.8984 59.4479 72.6484 59.3047 72.3203 59.3047C71.9609 59.3047 71.6745 59.4714 71.4609 59.8047C71.2526 60.138 71.1484 60.6068 71.1484 61.2109H68.9297C68.9297 60.513 69.0729 59.875 69.3594 59.2969C69.651 58.7188 70.0573 58.2708 70.5781 57.9531C71.1042 57.6302 71.6979 57.4688 72.3594 57.4688C73.375 57.4688 74.1615 57.75 74.7188 58.3125C75.2812 58.8698 75.5625 59.6641 75.5625 60.6953C75.5625 61.3359 75.4062 61.987 75.0938 62.6484C74.7865 63.3047 74.2266 64.1146 73.4141 65.0781L71.9531 67.1641H75.8203V69ZM77.4531 67.875C77.4531 67.5208 77.5703 67.2292 77.8047 67C78.0443 66.7708 78.3542 66.6562 78.7344 66.6562C79.1042 66.6562 79.4115 66.7708 79.6562 67C79.901 67.224 80.0234 67.5156 80.0234 67.875C80.0234 68.2396 79.8984 68.5339 79.6484 68.7578C79.4036 68.9766 79.099 69.0859 78.7344 69.0859C78.3646 69.0859 78.0573 68.974 77.8125 68.75C77.5729 68.526 77.4531 68.2344 77.4531 67.875ZM88.5391 58.8984L84.9453 69H82.6094L86.2188 59.4609H81.6562V57.625H88.5391V58.8984ZM93.1328 57.625L95.2812 65.8516L97.4219 57.625H100.422V69H98.1172V65.9219L98.3281 61.1797L96.0547 69H94.4922L92.2188 61.1797L92.4297 65.9219V69H90.1328V57.625H93.1328Z" fill="white"/>
<g id="icon_beneficio">
<path id="shadow_beneficio" opacity="0.25" d="M16.7143 108H0V91.9286L11.5714 80.3571L17.3571 81.6429V82.9286L18.6429 81.6429L24.4286 80.3571V84.8571L23.7857 85.5H27L27 90.6429H26.3571V98.3571L16.7143 108Z" fill="#3E5363"/>
<g id="beneficio">
<path id="Vector" d="M9 90.6429H9.64286V98.3571H17.3572V85.5H9V90.6429Z" fill="white"/>
<path id="Vector_2" d="M18.6431 85.5V98.3571H26.3574V90.6429H27.0002V85.5H18.6431Z" fill="white"/>
</g>
<path id="Subtract" fill-rule="evenodd" clip-rule="evenodd" d="M17.3572 81.6429L11.5715 80.3572V84.8572H17.3572V81.6429ZM16.0715 82.9286L12.8572 82.2857V83.5714H16.0715V82.9286Z" fill="white"/>
<path id="Subtract_2" fill-rule="evenodd" clip-rule="evenodd" d="M18.6428 81.6429L24.4285 80.3572V84.8572H18.6428V81.6429ZM19.9285 82.9286L23.1428 82.2857V83.5714H19.9285V82.9286Z" fill="white"/>
</g>
</g>
</svg>
