<svg width="140" height="109" viewBox="0 0 140 109" fill="none" xmlns="http://www.w3.org/2000/svg">
<g id="hover_servidores">
<path id="bg_beneficio" opacity="0.9" d="M140 108H0V0H140V108Z" fill="#7E65C7"/>
<path id="Servidores: 120" d="M39.5469 47.0156C39.5469 46.5521 39.4271 46.2031 39.1875 45.9688C38.9531 45.7292 38.5234 45.4818 37.8984 45.2266C36.7578 44.7943 35.9375 44.2891 35.4375 43.7109C34.9375 43.1276 34.6875 42.4401 34.6875 41.6484C34.6875 40.6901 35.026 39.9219 35.7031 39.3438C36.3854 38.7604 37.25 38.4688 38.2969 38.4688C38.9948 38.4688 39.6172 38.6172 40.1641 38.9141C40.7109 39.2057 41.1302 39.6198 41.4219 40.1562C41.7188 40.6927 41.8672 41.3021 41.8672 41.9844H39.5781C39.5781 41.4531 39.4635 41.0495 39.2344 40.7734C39.0104 40.4922 38.6849 40.3516 38.2578 40.3516C37.8568 40.3516 37.5443 40.4714 37.3203 40.7109C37.0964 40.9453 36.9844 41.263 36.9844 41.6641C36.9844 41.9766 37.1094 42.2604 37.3594 42.5156C37.6094 42.7656 38.0521 43.026 38.6875 43.2969C39.7969 43.6979 40.6016 44.1901 41.1016 44.7734C41.6068 45.3568 41.8594 46.099 41.8594 47C41.8594 47.9896 41.5443 48.763 40.9141 49.3203C40.2839 49.8776 39.4271 50.1562 38.3438 50.1562C37.6094 50.1562 36.9401 50.0052 36.3359 49.7031C35.7318 49.401 35.2578 48.9688 34.9141 48.4062C34.5755 47.8438 34.4062 47.1797 34.4062 46.4141H36.7109C36.7109 47.0703 36.8385 47.5469 37.0938 47.8438C37.349 48.1406 37.7656 48.2891 38.3438 48.2891C39.1458 48.2891 39.5469 47.8646 39.5469 47.0156ZM46.6875 50.1562C45.5521 50.1562 44.6667 49.8177 44.0312 49.1406C43.3958 48.4635 43.0781 47.4948 43.0781 46.2344V45.5625C43.0781 44.2292 43.3698 43.2005 43.9531 42.4766C44.5365 41.7526 45.3724 41.3906 46.4609 41.3906C47.5234 41.3906 48.3229 41.7318 48.8594 42.4141C49.3958 43.0911 49.6693 44.0964 49.6797 45.4297V46.5156H45.2812C45.3125 47.1406 45.4505 47.599 45.6953 47.8906C45.9401 48.1771 46.3177 48.3203 46.8281 48.3203C47.5677 48.3203 48.1849 48.0677 48.6797 47.5625L49.5469 48.8984C49.276 49.2734 48.8828 49.5781 48.3672 49.8125C47.8516 50.0417 47.2917 50.1562 46.6875 50.1562ZM45.2969 44.9688H47.5078V44.7656C47.4974 44.2604 47.4141 43.8776 47.2578 43.6172C47.1016 43.3568 46.8307 43.2266 46.4453 43.2266C46.0599 43.2266 45.7786 43.3646 45.6016 43.6406C45.4297 43.9167 45.3281 44.3594 45.2969 44.9688ZM55.1016 43.6797L54.3672 43.6172C53.763 43.6172 53.3542 43.8828 53.1406 44.4141V50H50.9219V41.5469H53.0078L53.0703 42.4609C53.4193 41.7474 53.901 41.3906 54.5156 41.3906C54.7656 41.3906 54.9688 41.4245 55.125 41.4922L55.1016 43.6797ZM59.1562 46.875L60.2266 41.5469H62.5312L60.2109 50H58.1016L55.7734 41.5469H58.0859L59.1562 46.875ZM65.8906 50H63.6719V41.5469H65.8906V50ZM63.5703 39.3594C63.5703 39.0156 63.6797 38.7344 63.8984 38.5156C64.1172 38.2969 64.4089 38.1875 64.7734 38.1875C65.138 38.1875 65.4297 38.2969 65.6484 38.5156C65.8672 38.7344 65.9766 39.0156 65.9766 39.3594C65.9766 39.6979 65.8672 39.9792 65.6484 40.2031C65.4349 40.4271 65.1432 40.5391 64.7734 40.5391C64.4036 40.5391 64.1094 40.4271 63.8906 40.2031C63.6771 39.9792 63.5703 39.6979 63.5703 39.3594ZM67.3047 45.5156C67.3047 44.1302 67.5391 43.0964 68.0078 42.4141C68.4766 41.7318 69.1589 41.3906 70.0547 41.3906C70.7057 41.3906 71.2474 41.6719 71.6797 42.2344V38H73.9062V50H71.8984L71.7969 49.1406C71.3438 49.8177 70.7604 50.1562 70.0469 50.1562C69.1615 50.1562 68.4844 49.8177 68.0156 49.1406C67.5521 48.4635 67.3151 47.4688 67.3047 46.1562V45.5156ZM69.5234 46.0703C69.5234 46.9036 69.612 47.487 69.7891 47.8203C69.9661 48.1484 70.2656 48.3125 70.6875 48.3125C71.125 48.3125 71.4557 48.1172 71.6797 47.7266V43.8672C71.4609 43.4505 71.1328 43.2422 70.6953 43.2422C70.2891 43.2422 69.9922 43.4062 69.8047 43.7344C69.6172 44.0625 69.5234 44.6458 69.5234 45.4844V46.0703ZM75.2812 45.5C75.2812 44.2188 75.5833 43.2135 76.1875 42.4844C76.7917 41.7552 77.6276 41.3906 78.6953 41.3906C79.7734 41.3906 80.6146 41.7552 81.2188 42.4844C81.8229 43.2135 82.125 44.224 82.125 45.5156V46.0547C82.125 47.3411 81.8255 48.3464 81.2266 49.0703C80.6276 49.7943 79.7891 50.1562 78.7109 50.1562C77.6276 50.1562 76.7839 49.7943 76.1797 49.0703C75.5807 48.3411 75.2812 47.3307 75.2812 46.0391V45.5ZM77.5 46.0547C77.5 47.5651 77.9036 48.3203 78.7109 48.3203C79.4557 48.3203 79.8568 47.6901 79.9141 46.4297L79.9219 45.5C79.9219 44.7292 79.8151 44.1589 79.6016 43.7891C79.388 43.4141 79.0859 43.2266 78.6953 43.2266C78.3203 43.2266 78.026 43.4141 77.8125 43.7891C77.6042 44.1589 77.5 44.7292 77.5 45.5V46.0547ZM87.6797 43.6797L86.9453 43.6172C86.3411 43.6172 85.9323 43.8828 85.7188 44.4141V50H83.5V41.5469H85.5859L85.6484 42.4609C85.9974 41.7474 86.4792 41.3906 87.0938 41.3906C87.3438 41.3906 87.5469 41.4245 87.7031 41.4922L87.6797 43.6797ZM92.0781 50.1562C90.9427 50.1562 90.0573 49.8177 89.4219 49.1406C88.7865 48.4635 88.4688 47.4948 88.4688 46.2344V45.5625C88.4688 44.2292 88.7604 43.2005 89.3438 42.4766C89.9271 41.7526 90.763 41.3906 91.8516 41.3906C92.9141 41.3906 93.7135 41.7318 94.25 42.4141C94.7865 43.0911 95.0599 44.0964 95.0703 45.4297V46.5156H90.6719C90.7031 47.1406 90.8411 47.599 91.0859 47.8906C91.3307 48.1771 91.7083 48.3203 92.2188 48.3203C92.9583 48.3203 93.5755 48.0677 94.0703 47.5625L94.9375 48.8984C94.6667 49.2734 94.2734 49.5781 93.7578 49.8125C93.2422 50.0417 92.6823 50.1562 92.0781 50.1562ZM90.6875 44.9688H92.8984V44.7656C92.888 44.2604 92.8047 43.8776 92.6484 43.6172C92.4922 43.3568 92.2214 43.2266 91.8359 43.2266C91.4505 43.2266 91.1693 43.3646 90.9922 43.6406C90.8203 43.9167 90.7188 44.3594 90.6875 44.9688ZM100.062 47.7344C100.062 47.5469 99.9714 47.375 99.7891 47.2188C99.612 47.0573 99.2135 46.8411 98.5938 46.5703C97.6823 46.2005 97.0547 45.8177 96.7109 45.4219C96.3724 45.026 96.2031 44.5339 96.2031 43.9453C96.2031 43.2057 96.4688 42.5964 97 42.1172C97.5365 41.6328 98.2448 41.3906 99.125 41.3906C100.052 41.3906 100.794 41.6302 101.352 42.1094C101.909 42.5885 102.188 43.2318 102.188 44.0391H99.9766C99.9766 43.3516 99.6901 43.0078 99.1172 43.0078C98.8828 43.0078 98.6901 43.0807 98.5391 43.2266C98.388 43.3724 98.3125 43.5755 98.3125 43.8359C98.3125 44.0234 98.3958 44.1901 98.5625 44.3359C98.7292 44.4766 99.1224 44.6797 99.7422 44.9453C100.643 45.2786 101.279 45.651 101.648 46.0625C102.023 46.4688 102.211 46.9974 102.211 47.6484C102.211 48.4036 101.927 49.0104 101.359 49.4688C100.792 49.9271 100.047 50.1562 99.125 50.1562C98.5052 50.1562 97.9583 50.0365 97.4844 49.7969C97.0104 49.5521 96.638 49.2135 96.3672 48.7812C96.1016 48.349 95.9688 47.8828 95.9688 47.3828H98.0703C98.0807 47.7682 98.1693 48.0573 98.3359 48.25C98.5078 48.4427 98.7865 48.5391 99.1719 48.5391C99.7656 48.5391 100.062 48.2708 100.062 47.7344ZM103.781 48.875C103.781 48.5208 103.898 48.2292 104.133 48C104.372 47.7708 104.682 47.6562 105.062 47.6562C105.432 47.6562 105.74 47.7708 105.984 48C106.229 48.224 106.352 48.5156 106.352 48.875C106.352 49.2396 106.227 49.5339 105.977 49.7578C105.732 49.9766 105.427 50.0859 105.062 50.0859C104.693 50.0859 104.385 49.974 104.141 49.75C103.901 49.526 103.781 49.2344 103.781 48.875ZM103.781 42.4844C103.781 42.1302 103.898 41.8385 104.133 41.6094C104.372 41.3802 104.682 41.2656 105.062 41.2656C105.432 41.2656 105.74 41.3802 105.984 41.6094C106.229 41.8333 106.352 42.125 106.352 42.4844C106.352 42.849 106.227 43.1432 105.977 43.3672C105.732 43.5859 105.427 43.6953 105.062 43.6953C104.693 43.6953 104.385 43.5833 104.141 43.3594C103.901 43.1354 103.781 42.8438 103.781 42.4844ZM63.9688 69H61.75V60.3125L59.5859 61.1484V59.3047L63.7344 57.6094H63.9688V69ZM73.8984 69H67.1953V67.4375L70.2734 63.5234C70.6641 62.9818 70.9505 62.5078 71.1328 62.1016C71.3203 61.6901 71.4141 61.2969 71.4141 60.9219C71.4141 60.4167 71.3255 60.0208 71.1484 59.7344C70.9766 59.4479 70.7266 59.3047 70.3984 59.3047C70.0391 59.3047 69.7526 59.4714 69.5391 59.8047C69.3307 60.138 69.2266 60.6068 69.2266 61.2109H67.0078C67.0078 60.513 67.151 59.875 67.4375 59.2969C67.7292 58.7188 68.1354 58.2708 68.6562 57.9531C69.1823 57.6302 69.776 57.4688 70.4375 57.4688C71.4531 57.4688 72.2396 57.75 72.7969 58.3125C73.3594 58.8698 73.6406 59.6641 73.6406 60.6953C73.6406 61.3359 73.4844 61.987 73.1719 62.6484C72.8646 63.3047 72.3047 64.1146 71.4922 65.0781L70.0312 67.1641H73.8984V69ZM81.8984 64.2969C81.8984 65.8698 81.612 67.0729 81.0391 67.9062C80.4714 68.7396 79.6589 69.1562 78.6016 69.1562C77.5547 69.1562 76.7448 68.7526 76.1719 67.9453C75.6042 67.1328 75.3099 65.9714 75.2891 64.4609V62.3125C75.2891 60.7448 75.5729 59.5469 76.1406 58.7188C76.7083 57.8854 77.5234 57.4688 78.5859 57.4688C79.6484 57.4688 80.4635 57.8802 81.0312 58.7031C81.599 59.526 81.888 60.7005 81.8984 62.2266V64.2969ZM79.6797 61.9922C79.6797 61.0964 79.5911 60.4245 79.4141 59.9766C79.237 59.5286 78.9609 59.3047 78.5859 59.3047C77.8828 59.3047 77.5182 60.125 77.4922 61.7656V64.6016C77.4922 65.5182 77.5807 66.2005 77.7578 66.6484C77.9401 67.0964 78.2214 67.3203 78.6016 67.3203C78.9609 67.3203 79.2266 67.112 79.3984 66.6953C79.5755 66.2734 79.6693 65.6302 79.6797 64.7656V61.9922Z" fill="white"/>
<g id="icon_servidores">
<path id="shadow_servidores" opacity="0.25" d="M16.7143 108L0 108V95.1429L8.35714 87.4286L10.9286 84.8571L12.8571 82.9286H23.1429V86.1429L21.8571 87.4286H27.6429V97.0714L16.7143 108Z" fill="#3E5363"/>
<g id="servidores">
<path id="Vector" d="M27.6432 87.4287H8.35742V97.0716H27.6432V87.4287Z" fill="white"/>
<path id="Vector_2" d="M12.8574 82.9287V86.143H14.1431V84.2144H21.8574V86.143H23.1431V82.9287H12.8574Z" fill="white"/>
</g>
</g>
</g>
</svg>
