<svg width="36" height="36" viewBox="0 0 36 36" fill="none" xmlns="http://www.w3.org/2000/svg">
<mask id="mask0" mask-type="alpha" maskUnits="userSpaceOnUse" x="0" y="0" width="36" height="36">
<circle cx="18" cy="18" r="18" fill="white"/>
</mask>
<g mask="url(#mask0)">
<path d="M36 0H0V36H36V0Z" fill="white"/>
<path d="M25.0714 12.2141V8.35693H23.7857V10.2855H21.2142V8.35693H14.7857V10.2855H12.2142V8.35693H10.9285V12.2141H25.0714Z" fill="#B361C6"/>
<path d="M10.9285 12.8569V27.6426H25.0714V12.8569H10.9285ZM14.7857 17.3569H12.2142V14.7855H14.7857V17.3569ZM19.2857 17.3569H16.7142V14.7855H19.2857V17.3569ZM23.7857 17.3569H21.2142V14.7855H23.7857V17.3569ZM14.7857 21.2141H12.2142V18.6426H14.7857V21.2141ZM19.2857 21.2141H16.7142V18.6426H19.2857V21.2141ZM23.7857 21.2141H21.2142V18.6426H23.7857V21.2141ZM14.7857 25.0712H12.2142V22.4998H14.7857V25.0712ZM19.2857 25.0712H16.7142V22.4998H19.2857V25.0712ZM23.7857 25.0712H21.2142V22.4998H23.7857V25.0712Z" fill="#B361C6"/>
<path opacity="0.1" d="M16.7143 35.9998H0V19.2855L10.9286 8.35693H25.0714V11.5712L23.7857 12.8569H25.0714V27.6426L16.7143 35.9998Z" fill="#B361C6"/>
<rect x="12.8571" y="7.07129" width="1.28571" height="2.57143" fill="#B361C6"/>
<rect x="21.8571" y="7.07129" width="1.28571" height="2.57143" fill="#B361C6"/>
</g>
</svg>
