<svg width="36" height="36" viewBox="0 0 36 36" fill="none" xmlns="http://www.w3.org/2000/svg">
<mask id="mask0" mask-type="alpha" maskUnits="userSpaceOnUse" x="0" y="0" width="36" height="36">
<circle cx="18" cy="18" r="18" fill="white"/>
</mask>
<g mask="url(#mask0)">
<path d="M36 0H0V36H36V0Z" fill="#2FBB96"/>
<path d="M25.0713 12.2146V8.35742H23.7856V10.286H21.2142V8.35742H14.7856V10.286H12.2142V8.35742H10.9285V12.2146H25.0713Z" fill="white"/>
<path d="M10.9285 12.8574V27.6431H25.0713V12.8574H10.9285ZM14.7856 17.3574H12.2142V14.786H14.7856V17.3574ZM19.2856 17.3574H16.7142V14.786H19.2856V17.3574ZM23.7856 17.3574H21.2142V14.786H23.7856V17.3574ZM14.7856 21.2146H12.2142V18.6431H14.7856V21.2146ZM19.2856 21.2146H16.7142V18.6431H19.2856V21.2146ZM23.7856 21.2146H21.2142V18.6431H23.7856V21.2146ZM14.7856 25.0717H12.2142V22.5003H14.7856V25.0717ZM19.2856 25.0717H16.7142V22.5003H19.2856V25.0717ZM23.7856 25.0717H21.2142V22.5003H23.7856V25.0717Z" fill="white"/>
<path opacity="0.25" d="M16.7143 36.0003H0V19.286L10.9286 8.35742H25.0714V11.5717L23.7857 12.8574H25.0714V27.6431L16.7143 36.0003Z" fill="white"/>
<rect x="12.8572" y="7.07227" width="1.28571" height="2.57143" fill="white"/>
<rect x="21.8572" y="7.07227" width="1.28571" height="2.57143" fill="white"/>
</g>
</svg>
