<svg width="36" height="36" viewBox="0 0 36 36" fill="none" xmlns="http://www.w3.org/2000/svg">
<g id="icon_semdados">
<rect id="Rectangle 51" x="-1" y="-1" width="34" height="33.9999" transform="matrix(1.28494e-07 -1 -1 -1.48699e-08 34 34)" stroke="white" stroke-width="2"/>
<line id="Line 47" y1="-1" x2="31.1127" y2="-1" transform="matrix(-0.707107 0.707107 0.707107 0.707107 36 13.6279)" stroke="white" stroke-width="2"/>
<line id="Line 48" y1="-1" x2="45.2548" y2="-1" transform="matrix(-0.707107 0.707107 0.707107 0.707107 36 3.62793)" stroke="white" stroke-width="2"/>
<line id="Line 44" y1="-1" x2="8.48528" y2="-1" transform="matrix(-0.707107 0.707107 0.707107 0.707107 8 1.62793)" stroke="white" stroke-width="2"/>
<line id="Line 49" y1="-1" x2="16.9706" y2="-1" transform="matrix(-0.707107 0.707107 0.707107 0.707107 36 23.6279)" stroke="white" stroke-width="2"/>
<line id="Line 45" y1="-1" x2="22.6274" y2="-1" transform="matrix(-0.707107 0.707107 0.707107 0.707107 18 1.62793)" stroke="white" stroke-width="2"/>
<line id="Line 50" y1="-1" x2="2.82843" y2="-1" transform="matrix(-0.707107 0.707107 0.707107 0.707107 36 33.6279)" stroke="white" stroke-width="2"/>
<line id="Line 46" y1="-1" x2="36.7696" y2="-1" transform="matrix(-0.707107 0.707107 0.707107 0.707107 28 1.62793)" stroke="white" stroke-width="2"/>
</g>
</svg>
