<svg width="680" height="200" viewBox="0 0 680 200" fill="none" xmlns="http://www.w3.org/2000/svg">
<rect x="542.484" y="30.5809" width="134.579" height="136.315" rx="12.5" stroke="white" stroke-width="5"/>
<line x1="603.302" y1="33.0809" x2="603.302" y2="63.3844" stroke="white" stroke-width="5"/>
<line x1="544.984" y1="65.935" x2="674.563" y2="65.935" stroke="white" stroke-width="5"/>
<ellipse cx="559.935" cy="48.2327" rx="9.96763" ry="10.1012" fill="white"/>
<ellipse cx="586.848" cy="48.2327" rx="9.96763" ry="10.1012" fill="white"/>
<line x1="549.968" y1="81.0868" x2="627.715" y2="81.0868" stroke="white" stroke-width="5"/>
<line x1="549.968" y1="96.2385" x2="642.666" y2="96.2385" stroke="white" stroke-width="5"/>
<line x1="549.968" y1="114.421" x2="600.802" y2="114.421" stroke="white" stroke-width="5"/>
<line x1="550.964" y1="131.593" x2="623.728" y2="131.593" stroke="white" stroke-width="5"/>
<line x1="550.964" y1="146.744" x2="636.686" y2="146.744" stroke="white" stroke-width="5"/>
<line x1="545.987" y1="163.464" x2="674.464" y2="34.0133" stroke="#FF5050" stroke-width="5" stroke-linecap="round"/>
<line x1="546.535" y1="33.0536" x2="673.054" y2="163.465" stroke="#FF5050" stroke-width="5" stroke-linecap="round"/>
<path d="M160 96.5C158.619 96.5 157.5 97.6193 157.5 99C157.5 100.381 158.619 101.5 160 101.5V96.5ZM211.768 100.768C212.744 99.7915 212.744 98.2085 211.768 97.2322L195.858 81.3223C194.882 80.346 193.299 80.346 192.322 81.3223C191.346 82.2986 191.346 83.8816 192.322 84.8579L206.464 99L192.322 113.142C191.346 114.118 191.346 115.701 192.322 116.678C193.299 117.654 194.882 117.654 195.858 116.678L211.768 100.768ZM160 101.5H210V96.5H160V101.5Z" fill="white"/>
<circle cx="325" cy="97" r="67.5" stroke="white" stroke-width="5"/>
<path d="M344.71 33C344.71 37.1135 346.497 56 341.71 56C328.516 56 340.03 69.6312 338.654 74.4444C337.837 77.3058 330 76 327.71 76C322.243 76 320.528 74.3634 315.71 72.2222C309.856 69.6203 309.997 75.5079 307.154 77.9444C302.55 81.8914 309.521 84.0062 312.21 85.5C319.089 89.3218 330.047 86.328 337.321 87.9444C338.331 88.1689 343.29 87.2806 343.654 88.5556C344.695 92.1973 342.588 90.8974 340.932 92.2222C338.831 93.9034 332.036 96.3908 331.71 99C331.213 102.979 331.801 105.16 332.765 109.5C333.225 111.566 334.488 113.75 333.488 116C332.988 117.124 331.05 120.072 332.21 121C335.396 123.549 343.727 122 347.71 122C355.379 122 349.71 127.017 349.71 131C349.71 135.615 344.17 135.34 341.265 137C337.453 139.179 342.024 145.707 338.71 147.778C335.451 149.814 338.891 156 334.21 156C330.895 156 327.71 151.997 327.71 158.5C327.71 162.034 320.71 167.287 320.71 161C320.71 154.437 318.71 148.013 318.71 141.222C318.71 135.719 318.901 134.106 314.21 131.5C310.647 129.52 305.28 128 301.21 128C299.431 128 290.814 124.776 290.71 123C290.41 117.896 290.71 112.664 290.71 107.556C290.71 103.037 290.71 98.5185 290.71 94C290.71 92.0008 289.133 90.6528 288.654 88.5C287.943 85.2978 283.199 82.4018 280.932 80.2222C276.974 76.4167 277.175 71.2953 273.265 67.9444C266.95 62.5309 286.229 55.9976 288.154 53.9444C290.865 51.0532 293.703 48.8271 297.154 46.9444C299.209 45.8238 305.436 43.3301 305.71 41C305.922 39.2002 308.556 39.7096 307.654 36.5556C307.328 35.4128 305.367 33.3144 304.71 32" stroke="white" stroke-width="3" stroke-linecap="round"/>
<path d="M440 96.5C438.619 96.5 437.5 97.6193 437.5 99C437.5 100.381 438.619 101.5 440 101.5V96.5ZM491.768 100.768C492.744 99.7915 492.744 98.2085 491.768 97.2322L475.858 81.3223C474.882 80.346 473.299 80.346 472.322 81.3223C471.346 82.2986 471.346 83.8816 472.322 84.8579L486.464 99L472.322 113.142C471.346 114.118 471.346 115.701 472.322 116.678C473.299 117.654 474.882 117.654 475.858 116.678L491.768 100.768ZM440 101.5H490V96.5H440V101.5Z" fill="white"/>
<rect x="2.5" y="37.5" width="95" height="95" rx="7.5" stroke="white" stroke-width="5"/>
<rect x="77.5" y="32.5" width="35" height="40" rx="7.5" fill="#485C6B" stroke="white" stroke-width="5"/>
<path d="M33 135V165" stroke="white" stroke-width="5"/>
<line x1="68.5" y1="135" x2="68.5" y2="165" stroke="white" stroke-width="5"/>
<line x1="12.5" y1="162.5" x2="87.5" y2="162.5" stroke="white" stroke-width="5" stroke-linecap="round"/>
<line x1="97.5" y1="126.5" x2="97.5" y2="162.5" stroke="white" stroke-width="5" stroke-linecap="round"/>
<line x1="79" y1="49.5" x2="111" y2="49.5" stroke="white" stroke-width="5"/>
<path d="M90 34L90 50" stroke="white" stroke-width="3"/>
<path d="M100 34L100 50" stroke="white" stroke-width="3"/>
</svg>
