<svg width="56" height="56" viewBox="0 0 56 56" fill="none" xmlns="http://www.w3.org/2000/svg">
<g id="Twitter">
<path id="Oval" d="M28 56C43.464 56 56 43.464 56 28C56 12.536 43.464 0 28 0C12.536 0 0 12.536 0 28C0 43.464 12.536 56 28 56Z" fill="#1DA1F2"/>
<path id="Path" d="M22.8761 42.77C35.2941 42.77 42.0841 32.48 42.0841 23.562C42.0841 23.268 42.0841 22.974 42.0701 22.694C43.3861 21.742 44.5341 20.552 45.4441 19.194C44.2401 19.726 42.9381 20.09 41.5661 20.258C42.9661 19.418 44.0301 18.102 44.5341 16.52C43.2321 17.29 41.7901 17.85 40.2501 18.158C39.0181 16.842 37.2681 16.03 35.3221 16.03C31.5981 16.03 28.5741 19.054 28.5741 22.778C28.5741 23.31 28.6301 23.828 28.7561 24.318C23.1421 24.038 18.1721 21.35 14.8401 17.262C14.2661 18.256 13.9301 19.418 13.9301 20.65C13.9301 22.988 15.1201 25.06 16.9401 26.264C15.8341 26.236 14.7981 25.928 13.8881 25.424C13.8881 25.452 13.8881 25.48 13.8881 25.508C13.8881 28.784 16.2121 31.5 19.3061 32.13C18.7461 32.284 18.1441 32.368 17.5281 32.368C17.0941 32.368 16.6741 32.326 16.2541 32.242C17.1081 34.93 19.6001 36.876 22.5541 36.932C20.2441 38.738 17.3321 39.816 14.1681 39.816C13.6221 39.816 13.0901 39.788 12.5581 39.718C15.5121 41.65 19.0681 42.77 22.8761 42.77Z" fill="white"/>
</g>
</svg>
