<svg width="56" height="56" viewBox="0 0 56 56" fill="none" xmlns="http://www.w3.org/2000/svg">
<g id="Whatsapp">
<path id="Fill 1" fill-rule="evenodd" clip-rule="evenodd" d="M44.2977 11.4505C39.9442 7.09158 34.1522 4.68859 27.9917 4.68726C15.2702 4.68726 4.92378 15.0324 4.91846 27.7499C4.91713 32.1076 6.13592 36.352 8.44445 40.0244L8.99264 40.8972L6.66283 49.4074L15.3926 47.1175L16.2349 47.6178C19.7755 49.7188 23.835 50.8311 27.9744 50.8325H27.9837C40.6959 50.8325 51.0424 40.486 51.0477 27.7685C51.0503 21.6053 48.6527 15.8107 44.2977 11.4505Z" fill="#51B962"/>
<path id="Fill 3" fill-rule="evenodd" clip-rule="evenodd" d="M40.6339 33.5583C39.9405 33.2113 36.5316 31.5342 35.896 31.3025C35.2605 31.0713 34.7983 30.9556 34.3359 31.6495C33.8738 32.3435 32.5451 33.9055 32.1405 34.3683C31.7361 34.8309 31.3317 34.889 30.6383 34.5419C29.9449 34.1948 27.7108 33.4627 25.0625 31.1004C23.0013 29.2617 21.6096 26.9914 21.2052 26.2971C20.8008 25.6029 21.162 25.2278 21.5092 24.882C21.8212 24.5713 22.2027 24.0721 22.5493 23.6674C22.8959 23.2625 23.0115 22.9731 23.2426 22.5107C23.4738 22.0478 23.3583 21.6429 23.1848 21.2959C23.0115 20.9489 21.6248 17.5359 21.0471 16.1474C20.4843 14.7956 19.9126 14.9787 19.487 14.9572C19.083 14.9371 18.6203 14.9329 18.1582 14.9329C17.6959 14.9329 16.9447 15.1064 16.3092 15.8004C15.6736 16.4947 13.8824 18.1721 13.8824 21.5848C13.8824 24.9978 16.3668 28.2947 16.7136 28.7574C17.0603 29.2203 21.6027 36.2236 28.5584 39.2271C30.2125 39.9415 31.5041 40.3682 32.5111 40.6875C34.172 41.2155 35.6835 41.1408 36.8782 40.9624C38.2105 40.7633 40.9805 39.2851 41.5584 37.6655C42.1361 36.0456 42.1361 34.6574 41.9627 34.3683C41.7895 34.079 41.3272 33.9055 40.6339 33.5583ZM27.9826 50.8324H27.9733C23.8346 50.8308 19.7753 49.7188 16.2342 47.6175L15.3921 47.1176L6.66265 49.4075L8.9926 40.8964L8.44427 40.0238C6.13548 36.3516 4.91602 32.1074 4.91789 27.7493C4.92281 15.0327 15.2697 4.68677 27.9918 4.68677C34.1523 4.6889 39.9432 7.09123 44.298 11.4508C48.6525 15.8103 51.0492 21.6053 51.0469 27.7679C51.0417 40.4857 40.6951 50.8324 27.9826 50.8324ZM47.6121 8.13811C42.3731 2.89291 35.4057 0.00306029 27.9824 0C12.6872 0 0.238703 12.4477 0.232582 27.7477C0.230586 32.6384 1.50832 37.4122 3.93673 41.6206L0 56L14.7104 52.1412C18.7636 54.352 23.327 55.5173 27.9713 55.5189H27.9826H27.9828C43.2764 55.5189 55.7259 43.0699 55.7322 27.7697C55.735 20.3551 52.8512 13.3832 47.6121 8.13811Z" fill="white"/>
</g>
</svg>
