<svg width="56" height="56" viewBox="0 0 56 56" fill="none" xmlns="http://www.w3.org/2000/svg">
<path opacity="0.25" d="M22 56H0V31L18 13L27 15V17L29 15L38 13V20L37 21H42L42 29H41V41L22 56Z" fill="white"/>
<path d="M14 29H15V41H27V21H14V29Z" fill="white"/>
<path d="M29.0005 21V41H41.0005V29H42.0005V21H29.0005Z" fill="white"/>
<path fill-rule="evenodd" clip-rule="evenodd" d="M27 15L18 13V20H27V15ZM24.9999 16.9999L19.9999 15.9999V17.9999H24.9999V16.9999Z" fill="white"/>
<path fill-rule="evenodd" clip-rule="evenodd" d="M29 15L38 13V20H29V15ZM31.0001 16.9999L36.0001 15.9999V17.9999H31.0001V16.9999Z" fill="white"/>
</svg>
