<svg width="140" height="108" viewBox="0 0 140 108" fill="none" xmlns="http://www.w3.org/2000/svg">
<path d="M101.277 85.5078C101.277 87.5411 100.462 89.2083 98.8336 90.4689C97.205 91.7296 95.062 92.3395 92.4476 92.3395C91.2047 92.3395 90.0475 92.1769 88.976 91.8516C88.5474 91.7296 88.1188 91.5669 87.7331 91.3636C86.3616 90.7129 85.333 89.7776 84.5186 88.5984C84.0043 87.8257 83.7043 87.0124 83.5329 86.1991C83.4472 85.7518 83.4043 85.3045 83.4043 84.8165H89.4046C89.4046 85.1011 89.4475 85.3858 89.4903 85.6298C89.6189 86.2804 89.8332 86.7684 90.1761 87.1751C90.5618 87.5817 91.119 87.8257 91.8904 87.907C92.1047 87.9477 92.319 87.9477 92.5762 87.9477C94.2906 87.9477 95.1049 87.2157 95.1049 85.7518C95.1049 85.2638 94.8477 84.7758 94.3334 84.3285C93.8191 83.8812 92.6619 83.3119 90.9047 82.5799C90.0046 82.2139 89.1474 81.8479 88.4617 81.5226C88.0331 81.3193 87.6902 81.116 87.3474 80.872C86.5759 80.4247 85.9759 79.9367 85.5473 79.4487C85.1615 79.042 84.8615 78.5541 84.6472 78.0661C84.2615 77.2934 84.09 76.3988 84.09 75.4228C84.09 73.4302 84.8615 71.763 86.4044 70.4617C87.9474 69.1604 89.9618 68.5098 92.4905 68.5098C95.1477 68.5098 97.2907 69.1604 98.8765 70.4617C99.0908 70.665 99.3051 70.8683 99.5194 71.0717C100.677 72.2916 101.277 73.8369 101.277 75.7075H94.9334C94.9334 75.6262 94.9334 75.5042 94.9334 75.4228C94.8477 73.7556 94.0334 72.9016 92.4905 72.9016C91.8047 72.9016 91.2904 73.1049 90.819 73.5116C90.3904 73.9182 90.1761 74.4469 90.1761 75.1789C90.1761 75.6668 90.4332 76.1548 90.9047 76.5208C91.2476 76.7648 91.8476 77.1308 92.7476 77.5374C93.1762 77.7408 93.6905 77.9441 94.2906 78.1881C96.8621 79.0827 98.7051 80.0993 99.7766 81.1973C100.762 82.2953 101.277 83.7185 101.277 85.5078Z" fill="#3E5363"/>
<path d="M80.4256 68.5098V92.3395H74.4681V89.9814C74.0887 90.4365 73.7094 90.8088 73.2879 91.1398C72.6134 91.6362 71.8969 91.9672 71.0538 92.1741C70.548 92.2982 69.7612 92.3395 69.2132 92.3395C67.485 92.3395 66.094 91.8845 65.0402 90.9743C64.8716 90.8088 64.703 90.6433 64.5344 90.4778C64.4501 90.3537 64.3236 90.2296 64.2393 90.1055C63.1012 88.6161 62.5532 86.4648 62.5532 83.6516V68.5098H68.5107V83.8171C68.5528 86.0925 69.5926 87.2095 71.11 87.2095C72.5432 87.2095 73.8358 86.589 74.4681 85.3892V68.5098L80.4256 68.5098Z" fill="#3E5363"/>
<path d="M59.5753 56.5957L59.5752 93.2692C59.5752 95.8575 58.9686 97.8795 57.7958 99.214C56.5826 100.589 54.9524 101.277 52.7686 101.277C51.8385 101.277 50.9488 101.155 50.0591 100.913L50.0186 96.0192C50.6657 96.1405 51.1914 96.2214 51.5958 96.2214C52.9304 96.2214 53.6179 95.2913 53.6179 93.431L53.618 56.5957H59.5753Z" fill="#3E5363"/>
<path opacity="0.25" d="M95.3191 107.234L95.3191 101.276L80.4255 86.3828L74.468 86.3828L74.468 92.3403L89.3616 107.234L95.3191 107.234Z" fill="#3E5363"/>
<rect x="95.3191" y="101.275" width="5.95744" height="5.95744" transform="rotate(90 95.3191 101.275)" fill="#3E5363"/>
<path d="M101.277 43.8066C101.277 45.8399 100.462 47.5072 98.8336 48.7678C97.205 50.0284 95.062 50.6384 92.4476 50.6384C91.2047 50.6384 90.0475 50.4757 88.976 50.1504C88.5474 50.0284 88.1188 49.8657 87.7331 49.6624C86.3616 49.0118 85.333 48.0765 84.5186 46.8972C84.0043 46.1245 83.7043 45.3112 83.5329 44.4979C83.4472 44.0506 83.4043 43.6033 83.4043 43.1153H89.4046C89.4046 43.4 89.4475 43.6846 89.4903 43.9286C89.6189 44.5793 89.8332 45.0672 90.1761 45.4739C90.5618 45.8806 91.119 46.1245 91.8904 46.2059C92.1047 46.2465 92.319 46.2465 92.5762 46.2465C94.2906 46.2465 95.1049 45.5146 95.1049 44.0506C95.1049 43.5626 94.8477 43.0747 94.3334 42.6273C93.8191 42.18 92.6619 41.6107 90.9047 40.8787C90.0046 40.5127 89.1474 40.1468 88.4617 39.8214C88.0331 39.6181 87.6902 39.4148 87.3474 39.1708C86.5759 38.7235 85.9759 38.2355 85.5473 37.7475C85.1615 37.3409 84.8615 36.8529 84.6472 36.3649C84.2615 35.5923 84.09 34.6976 84.09 33.7217C84.09 31.7291 84.8615 30.0618 86.4044 28.7605C87.9474 27.4592 89.9618 26.8086 92.4905 26.8086C95.1477 26.8086 97.2907 27.4592 98.8765 28.7605C99.0908 28.9638 99.3051 29.1672 99.5194 29.3705C100.677 30.5905 101.277 32.1357 101.277 34.0063H94.9334C94.9334 33.925 94.9334 33.803 94.9334 33.7217C94.8477 32.0544 94.0334 31.2004 92.4905 31.2004C91.8047 31.2004 91.2904 31.4038 90.819 31.8104C90.3904 32.2171 90.1761 32.7457 90.1761 33.4777C90.1761 33.9657 90.4332 34.4536 90.9047 34.8196C91.2476 35.0636 91.8476 35.4296 92.7476 35.8363C93.1762 36.0396 93.6905 36.2429 94.2906 36.4869C96.8621 37.3815 98.7051 38.3982 99.7766 39.4961C100.762 40.5941 101.277 42.0174 101.277 43.8066Z" fill="#3E5363"/>
<path d="M80.1524 34.8603C79.8012 32.827 79.0988 31.1191 78.0452 29.7771C77.9671 29.6552 77.8501 29.5332 77.733 29.4112L77.3428 29.0045C77.3428 28.9638 77.3037 28.9638 77.3037 28.9638C76.016 27.7439 74.4161 27.0119 72.504 26.8493C72.1918 26.8086 71.8406 26.8086 71.4894 26.8086C68.7188 26.8086 66.5335 27.7846 64.9336 29.7771C63.3727 31.7697 62.5532 34.4943 62.5532 37.9915V39.4555C62.5532 41.0821 62.7093 42.546 63.0605 43.8066C63.4507 45.3112 64.0751 46.6125 64.9336 47.6698C66.4945 49.6624 68.6798 50.6384 71.5284 50.6384C74.338 50.6384 76.5233 49.6624 78.0842 47.6698C79.6451 45.7179 80.4256 42.9527 80.4256 39.4555V37.9915C80.4256 36.8936 80.3085 35.8363 80.1524 34.8603ZM74.6502 40.5127C74.4941 43.9286 73.4405 45.6366 71.5284 45.6366C69.4212 45.6366 68.3676 43.6033 68.3676 39.4961V37.9915C68.3676 35.8769 68.6407 34.3316 69.1871 33.315C69.7334 32.2984 70.5138 31.8104 71.4894 31.8104C72.3479 31.8104 73.0503 32.1764 73.5576 32.9084C73.6747 33.0304 73.7527 33.193 73.8307 33.3557C74.3771 34.3723 74.6502 35.9176 74.6502 38.0322V40.5127Z" fill="#3E5363"/>
<path d="M53.617 14.8926V29.0886C52.4442 27.5519 50.8822 26.8239 49.1028 26.8239C46.6764 26.8239 44.8161 27.7541 43.5624 29.5739C42.3492 31.4342 41.7021 34.2246 41.7021 37.9452V39.6841C41.7426 43.2429 42.3896 46.027 43.6433 47.8873C43.7646 48.049 43.886 48.2108 44.0073 48.3321C44.2904 48.6961 44.6139 48.9792 44.9374 49.2622C46.0698 50.152 47.4448 50.6372 49.1433 50.6372C50.9227 50.6372 52.4442 49.8284 53.617 48.2512V50.6372H59.5745V14.8926H53.617ZM53.617 43.9304C53.0104 44.9819 52.0146 45.5076 50.8418 45.5076C49.7094 45.5076 48.9006 45.0628 48.4153 44.1731C47.93 43.2834 47.6874 41.7062 47.6874 39.4415V37.8643C47.6874 35.5996 47.93 34.0224 48.4558 33.1327C48.9815 32.243 49.7499 31.7982 50.8822 31.7982C52.055 31.7982 53.0104 32.3643 53.617 33.4967V43.9304Z" fill="#3E5363"/>
<path d="M36.5172 28.7498C35.0459 27.4556 33.4158 26.8086 30.7328 26.8086C28.1364 26.8086 25.9726 27.4961 24.2849 28.8711C22.5972 30.2056 21.775 31.9446 21.775 34.0475H28.1796C28.1796 32.3086 28.9586 31.4189 30.5597 31.4189C31.2954 31.4189 31.8147 31.6211 32.2041 32.0659C32.5936 32.5108 32.7667 33.1983 32.7667 34.2497V36.0696H30.8194C27.7469 36.11 25.4101 36.7571 23.7656 38.0512C22.1212 39.3453 21.299 41.2056 21.299 43.5916C21.299 45.6136 21.9914 47.2717 23.3329 48.5254C24.6744 49.779 26.3621 50.4261 28.4393 50.4261C30.2135 50.4261 31.6849 49.8195 32.7667 48.6062V56.5958H38.7242V34.3306C38.7242 31.9041 37.9886 30.0439 36.5172 28.7498ZM32.7667 44.4408C32.5071 44.8048 32.1609 45.1283 31.6416 45.4114C31.1656 45.6945 30.5597 45.8158 29.8241 45.8158C28.396 45.8158 27.7036 44.9666 27.7036 43.268C27.7036 42.1761 28.0065 41.3269 28.6556 40.6798C29.2615 40.0328 30.127 39.7092 31.2088 39.7092H32.7667V44.4408Z" fill="#3E5363"/>
<path d="M11.9149 5.95703V29.0892C10.7421 27.5525 9.18009 26.8245 7.40069 26.8245C4.97423 26.8245 3.11395 27.7547 1.86028 29.5745C0.647054 31.4348 0 34.2252 0 37.9458V39.6848C0.0404409 43.2436 0.687496 46.0276 1.94116 47.8879C2.06249 48.0496 2.18381 48.2114 2.30513 48.3327C2.58822 48.6967 2.91175 48.9798 3.23527 49.2629C4.36762 50.1526 5.74261 50.6379 7.44113 50.6379C9.22053 50.6379 10.7421 49.829 11.9149 48.2519V50.6379H17.8723V5.95703H11.9149ZM11.9149 43.931C11.3083 44.9825 10.3124 45.5082 9.13965 45.5082C8.0073 45.5082 7.19848 45.0634 6.71319 44.1737C6.2279 43.284 5.98526 41.7068 5.98526 39.4421V37.8649C5.98526 35.6002 6.2279 34.023 6.75363 33.1333C7.27936 32.2436 8.04774 31.7988 9.18009 31.7988C10.3529 31.7988 11.3083 32.3649 11.9149 33.4973V43.931Z" fill="#3E5363"/>
<path opacity="0.25" d="M23.8298 65.5323L29.7872 65.5323L38.7234 56.5961L38.7234 50.6387L32.7659 50.6387L23.8298 59.5748L23.8298 65.5323Z" fill="#3E5363"/>
<rect x="29.7874" y="65.5332" width="5.95744" height="5.95744" transform="rotate(-180 29.7874 65.5332)" fill="#3E5363"/>
<path opacity="0.25" d="M38.7234 0.000507355H44.6809L59.5745 14.8941V20.8516H53.617L38.7234 5.95795V0.000507355Z" fill="#3E5363"/>
<rect width="5.95744" height="5.95744" transform="matrix(-1 0 0 1 44.6807 0)" fill="#3E5363"/>
<path d="M140 68.7929L139.919 74.6972L137.978 74.5355H137.938C136.32 74.5355 134.637 75.2636 134.07 76.679V101.276H128.085V68.51H133.706L133.868 71.4217C134.798 69.4806 136.643 68.5098 138.342 68.5098C139.03 68.5098 139.596 68.5906 140 68.7929Z" fill="#3E5363"/>
<path d="M123.286 71.4324C122.114 69.5721 120.216 68.5104 117.668 68.5104C115.808 68.5104 114.324 69.4508 113.191 70.9471V59.5742H107.234L107.234 92.3402H112.734L112.936 89.6713C114.109 91.4507 115.727 92.3404 117.708 92.3404C118.76 92.3404 119.69 92.1786 120.539 91.8551C121.671 91.4102 122.639 90.6419 123.327 89.5499C124.5 87.6897 125.106 84.9397 125.106 81.2191V79.5206C125.066 75.9618 124.459 73.2927 123.286 71.4324ZM116.01 87.4875C114.675 87.4875 113.717 86.8808 113.191 85.7889V75.3956C113.758 74.2633 114.716 73.6971 115.969 73.6971C117.142 73.6971 117.951 74.1015 118.396 74.9508C118.841 75.8 119.083 77.3772 119.083 79.8037V81.9875C119.043 84.1309 118.8 85.5867 118.355 86.3551C117.91 87.083 117.142 87.4875 116.01 87.4875Z" fill="#3E5363"/>
<path opacity="0.25" d="M122.128 50.6396H116.17L107.234 59.5758V65.5332H113.192L122.128 56.597V50.6396Z" fill="#3E5363"/>
<rect x="116.17" y="50.6387" width="5.95744" height="5.95744" fill="#3E5363"/>
</svg>
