<svg width="140" height="108" viewBox="0 0 140 108" fill="none" xmlns="http://www.w3.org/2000/svg">
<path d="M101.277 85.5085C101.277 87.5418 100.462 89.2091 98.8336 90.4697C97.205 91.7303 95.062 92.3403 92.4476 92.3403C91.2047 92.3403 90.0475 92.1776 88.976 91.8523C88.5474 91.7303 88.1188 91.5676 87.7331 91.3643C86.3616 90.7137 85.333 89.7784 84.5186 88.5991C84.0043 87.8264 83.7043 87.0131 83.5329 86.1998C83.4472 85.7525 83.4043 85.3052 83.4043 84.8172H89.4046C89.4046 85.1019 89.4475 85.3865 89.4903 85.6305C89.6189 86.2812 89.8332 86.7692 90.1761 87.1758C90.5618 87.5825 91.119 87.8264 91.8904 87.9078C92.1047 87.9484 92.319 87.9484 92.5762 87.9484C94.2906 87.9484 95.1049 87.2165 95.1049 85.7525C95.1049 85.2645 94.8477 84.7766 94.3334 84.3292C93.8191 83.8819 92.6619 83.3126 90.9047 82.5806C90.0046 82.2147 89.1474 81.8487 88.4617 81.5233C88.0331 81.32 87.6902 81.1167 87.3474 80.8727C86.5759 80.4254 85.9759 79.9374 85.5473 79.4494C85.1615 79.0428 84.8615 78.5548 84.6472 78.0668C84.2615 77.2942 84.09 76.3995 84.09 75.4236C84.09 73.431 84.8615 71.7637 86.4044 70.4624C87.9474 69.1611 89.9618 68.5105 92.4905 68.5105C95.1477 68.5105 97.2907 69.1611 98.8765 70.4624C99.0908 70.6658 99.3051 70.8691 99.5194 71.0724C100.677 72.2924 101.277 73.8376 101.277 75.7082H94.9334C94.9334 75.6269 94.9334 75.5049 94.9334 75.4236C94.8477 73.7563 94.0334 72.9023 92.4905 72.9023C91.8047 72.9023 91.2904 73.1057 90.819 73.5123C90.3904 73.919 90.1761 74.4476 90.1761 75.1796C90.1761 75.6676 90.4332 76.1555 90.9047 76.5215C91.2476 76.7655 91.8476 77.1315 92.7476 77.5382C93.1762 77.7415 93.6905 77.9448 94.2906 78.1888C96.8621 79.0834 98.7051 80.1001 99.7766 81.198C100.762 82.296 101.277 83.7193 101.277 85.5085Z" fill="white"/>
<path d="M80.4256 68.5105V92.3403H74.4681V89.9821C74.0887 90.4372 73.7094 90.8095 73.2879 91.1405C72.6134 91.637 71.8969 91.9679 71.0538 92.1748C70.548 92.2989 69.7612 92.3403 69.2132 92.3403C67.485 92.3403 66.094 91.8852 65.0402 90.975C64.8716 90.8095 64.703 90.6441 64.5344 90.4786C64.4501 90.3545 64.3236 90.2303 64.2393 90.1062C63.1012 88.6169 62.5532 86.4656 62.5532 83.6523V68.5105H68.5107V83.8178C68.5528 86.0932 69.5926 87.2103 71.11 87.2103C72.5432 87.2103 73.8358 86.5897 74.4681 85.3899V68.5105L80.4256 68.5105Z" fill="white"/>
<path d="M59.5753 56.5957L59.5752 93.2692C59.5752 95.8575 58.9686 97.8795 57.7958 99.214C56.5826 100.589 54.9524 101.277 52.7686 101.277C51.8385 101.277 50.9488 101.155 50.0591 100.913L50.0186 96.0192C50.6657 96.1405 51.1914 96.2214 51.5958 96.2214C52.9304 96.2214 53.6179 95.2913 53.6179 93.431L53.618 56.5957H59.5753Z" fill="white"/>
<path opacity="0.25" d="M95.3191 107.234L95.3191 101.277L80.4255 86.3831L74.468 86.3831L74.468 92.3405L89.3616 107.234L95.3191 107.234Z" fill="white"/>
<rect x="95.3191" y="101.277" width="5.95744" height="5.95744" transform="rotate(90 95.3191 101.277)" fill="white"/>
<path d="M101.277 43.8066C101.277 45.8399 100.462 47.5072 98.8336 48.7678C97.205 50.0284 95.062 50.6384 92.4476 50.6384C91.2047 50.6384 90.0475 50.4757 88.976 50.1504C88.5474 50.0284 88.1188 49.8657 87.7331 49.6624C86.3616 49.0118 85.333 48.0765 84.5186 46.8972C84.0043 46.1245 83.7043 45.3112 83.5329 44.4979C83.4472 44.0506 83.4043 43.6033 83.4043 43.1153H89.4046C89.4046 43.4 89.4475 43.6846 89.4903 43.9286C89.6189 44.5793 89.8332 45.0672 90.1761 45.4739C90.5618 45.8806 91.119 46.1245 91.8904 46.2059C92.1047 46.2465 92.319 46.2465 92.5762 46.2465C94.2906 46.2465 95.1049 45.5146 95.1049 44.0506C95.1049 43.5626 94.8477 43.0747 94.3334 42.6273C93.8191 42.18 92.6619 41.6107 90.9047 40.8787C90.0046 40.5127 89.1474 40.1468 88.4617 39.8214C88.0331 39.6181 87.6902 39.4148 87.3474 39.1708C86.5759 38.7235 85.9759 38.2355 85.5473 37.7475C85.1615 37.3409 84.8615 36.8529 84.6472 36.3649C84.2615 35.5923 84.09 34.6976 84.09 33.7217C84.09 31.7291 84.8615 30.0618 86.4044 28.7605C87.9474 27.4592 89.9618 26.8086 92.4905 26.8086C95.1477 26.8086 97.2907 27.4592 98.8765 28.7605C99.0908 28.9638 99.3051 29.1672 99.5194 29.3705C100.677 30.5905 101.277 32.1357 101.277 34.0063H94.9334C94.9334 33.925 94.9334 33.803 94.9334 33.7217C94.8477 32.0544 94.0334 31.2004 92.4905 31.2004C91.8047 31.2004 91.2904 31.4038 90.819 31.8104C90.3904 32.2171 90.1761 32.7457 90.1761 33.4777C90.1761 33.9657 90.4332 34.4536 90.9047 34.8196C91.2476 35.0636 91.8476 35.4296 92.7476 35.8363C93.1762 36.0396 93.6905 36.2429 94.2906 36.4869C96.8621 37.3815 98.7051 38.3982 99.7766 39.4961C100.762 40.5941 101.277 42.0174 101.277 43.8066Z" fill="#B361C6"/>
<path d="M80.1524 34.8603C79.8012 32.827 79.0988 31.1191 78.0452 29.7771C77.9671 29.6552 77.8501 29.5332 77.733 29.4112L77.3428 29.0045C77.3428 28.9638 77.3037 28.9638 77.3037 28.9638C76.016 27.7439 74.4161 27.0119 72.504 26.8493C72.1918 26.8086 71.8406 26.8086 71.4894 26.8086C68.7188 26.8086 66.5335 27.7846 64.9336 29.7771C63.3727 31.7697 62.5532 34.4943 62.5532 37.9915V39.4555C62.5532 41.0821 62.7093 42.546 63.0605 43.8066C63.4507 45.3112 64.0751 46.6125 64.9336 47.6698C66.4945 49.6624 68.6798 50.6384 71.5284 50.6384C74.338 50.6384 76.5233 49.6624 78.0842 47.6698C79.6451 45.7179 80.4256 42.9527 80.4256 39.4555V37.9915C80.4256 36.8936 80.3085 35.8363 80.1524 34.8603ZM74.6502 40.5127C74.4941 43.9286 73.4405 45.6366 71.5284 45.6366C69.4212 45.6366 68.3676 43.6033 68.3676 39.4961V37.9915C68.3676 35.8769 68.6407 34.3316 69.1871 33.315C69.7334 32.2984 70.5138 31.8104 71.4894 31.8104C72.3479 31.8104 73.0503 32.1764 73.5576 32.9084C73.6747 33.0304 73.7527 33.193 73.8307 33.3557C74.3771 34.3723 74.6502 35.9176 74.6502 38.0322V40.5127Z" fill="#B361C6"/>
<path d="M53.617 14.8936V29.0896C52.4442 27.5528 50.8822 26.8249 49.1028 26.8249C46.6764 26.8249 44.8161 27.755 43.5624 29.5749C42.3492 31.4352 41.7021 34.2256 41.7021 37.9461V39.6851C41.7426 43.2439 42.3896 46.028 43.6433 47.8882C43.7646 48.05 43.886 48.2118 44.0073 48.3331C44.2904 48.6971 44.6139 48.9801 44.9374 49.2632C46.0698 50.1529 47.4448 50.6382 49.1433 50.6382C50.9227 50.6382 52.4442 49.8294 53.617 48.2522V50.6382H59.5745V14.8936H53.617ZM53.617 43.9314C53.0104 44.9829 52.0146 45.5086 50.8418 45.5086C49.7094 45.5086 48.9006 45.0637 48.4153 44.174C47.93 43.2843 47.6874 41.7072 47.6874 39.4425V37.8653C47.6874 35.6006 47.93 34.0234 48.4558 33.1337C48.9815 32.244 49.7499 31.7991 50.8822 31.7991C52.055 31.7991 53.0104 32.3653 53.617 33.4977V43.9314Z" fill="#B361C6"/>
<path d="M36.5172 28.7498C35.0459 27.4556 33.4158 26.8086 30.7328 26.8086C28.1364 26.8086 25.9726 27.4961 24.2849 28.8711C22.5972 30.2056 21.775 31.9446 21.775 34.0475H28.1796C28.1796 32.3086 28.9586 31.4189 30.5597 31.4189C31.2954 31.4189 31.8147 31.6211 32.2041 32.0659C32.5936 32.5108 32.7667 33.1983 32.7667 34.2497V36.0696H30.8194C27.7469 36.11 25.4101 36.7571 23.7656 38.0512C22.1212 39.3453 21.299 41.2056 21.299 43.5916C21.299 45.6136 21.9914 47.2717 23.3329 48.5254C24.6744 49.779 26.3621 50.4261 28.4393 50.4261C30.2135 50.4261 31.6849 49.8195 32.7667 48.6062V56.5958H38.7242V34.3306C38.7242 31.9041 37.9886 30.0439 36.5172 28.7498ZM32.7667 44.4408C32.5071 44.8048 32.1609 45.1283 31.6416 45.4114C31.1656 45.6945 30.5597 45.8158 29.8241 45.8158C28.396 45.8158 27.7036 44.9666 27.7036 43.268C27.7036 42.1761 28.0065 41.3269 28.6556 40.6798C29.2615 40.0328 30.127 39.7092 31.2088 39.7092H32.7667V44.4408Z" fill="#B361C6"/>
<path d="M11.9149 5.95752V29.0897C10.7421 27.553 9.18009 26.825 7.40069 26.825C4.97423 26.825 3.11395 27.7552 1.86028 29.575C0.647054 31.4353 0 34.2257 0 37.9463V39.6852C0.0404409 43.244 0.687496 46.0281 1.94116 47.8884C2.06249 48.0501 2.18381 48.2119 2.30513 48.3332C2.58822 48.6972 2.91175 48.9803 3.23527 49.2634C4.36762 50.1531 5.74261 50.6384 7.44113 50.6384C9.22053 50.6384 10.7421 49.8295 11.9149 48.2523V50.6384H17.8723V5.95752H11.9149ZM11.9149 43.9315C11.3083 44.983 10.3124 45.5087 9.13965 45.5087C8.0073 45.5087 7.19848 45.0639 6.71319 44.1742C6.2279 43.2845 5.98526 41.7073 5.98526 39.4426V37.8654C5.98526 35.6007 6.2279 34.0235 6.75363 33.1338C7.27936 32.2441 8.04774 31.7993 9.18009 31.7993C10.3529 31.7993 11.3083 32.3654 11.9149 33.4978V43.9315Z" fill="#B361C6"/>
<path opacity="0.25" d="M23.8298 65.5318L29.7872 65.5318L38.7234 56.5956L38.7234 50.6382L32.7659 50.6382L23.8298 59.5744L23.8298 65.5318Z" fill="#B361C6"/>
<rect x="29.7874" y="65.532" width="5.95744" height="5.95744" transform="rotate(-180 29.7874 65.532)" fill="#B361C6"/>
<path opacity="0.25" d="M38.7234 1.90735e-05H44.6809L59.5745 14.8936V20.8511H53.617L38.7234 5.95746V1.90735e-05Z" fill="#B361C6"/>
<rect width="5.95744" height="5.95744" transform="matrix(-1 0 0 1 44.6807 0)" fill="#B361C6"/>
<path d="M140 68.7936L139.919 74.698L137.978 74.5362H137.938C136.32 74.5362 134.637 75.2643 134.07 76.6798V101.277H128.085V68.5107H133.706L133.868 71.4225C134.798 69.4813 136.643 68.5105 138.342 68.5105C139.03 68.5105 139.596 68.5914 140 68.7936Z" fill="#2FBB96"/>
<path d="M123.286 71.4327C122.114 69.5724 120.216 68.5106 117.668 68.5106C115.808 68.5106 114.324 69.4511 113.191 70.9474V59.5745H107.234L107.234 92.3404H112.734L112.936 89.6715C114.109 91.4509 115.727 92.3406 117.708 92.3406C118.76 92.3406 119.69 92.1788 120.539 91.8553C121.671 91.4105 122.639 90.6421 123.327 89.5502C124.5 87.6899 125.106 84.9399 125.106 81.2194V79.5208C125.066 75.962 124.459 73.2929 123.286 71.4327ZM116.01 87.4877C114.675 87.4877 113.717 86.8811 113.191 85.7892V75.3959C113.758 74.2635 114.716 73.6974 115.969 73.6974C117.142 73.6974 117.951 74.1018 118.396 74.951C118.841 75.8003 119.083 77.3775 119.083 79.8039V81.9877C119.043 84.1311 118.8 85.587 118.355 86.3554C117.91 87.0833 117.142 87.4877 116.01 87.4877Z" fill="#2FBB96"/>
<path opacity="0.25" d="M122.128 50.6384H116.17L107.234 59.5745V65.532H113.192L122.128 56.5958V50.6384Z" fill="#2FBB96"/>
<rect x="116.17" y="50.6382" width="5.95744" height="5.95744" fill="#2FBB96"/>
</svg>
